<mxfile host="Electron" agent="Mozilla/5.0 (Windows NT 10.0; Win64; x64) AppleWebKit/537.36 (KHTML, like Gecko) draw.io/28.2.5 Chrome/138.0.7204.251 Electron/37.6.1 Safari/537.36" version="28.2.5" pages="4">
  <diagram id="1py6E_HqmO8F6NQKWy9Y" name="№1. Use Case">
    <mxGraphModel dx="5497" dy="3919" grid="1" gridSize="10" guides="1" tooltips="1" connect="1" arrows="1" fold="1" page="1" pageScale="1" pageWidth="827" pageHeight="1169" math="0" shadow="0">
      <root>
        <mxCell id="0" />
        <mxCell id="1" parent="0" />
        <mxCell id="5O325MqEOkg0hkSNaYNA-2" value="" style="rounded=0;whiteSpace=wrap;html=1;fontSize=14;" parent="1" vertex="1">
          <mxGeometry x="386" y="-1151" width="1280" height="1120" as="geometry" />
        </mxCell>
        <mxCell id="5O325MqEOkg0hkSNaYNA-3" value="&lt;font style=&quot;font-size: 16px;&quot;&gt;Пользователь&lt;/font&gt;" style="shape=umlActor;verticalLabelPosition=bottom;verticalAlign=top;html=1;outlineConnect=0;" parent="1" vertex="1">
          <mxGeometry x="70" y="-571" width="30" height="60" as="geometry" />
        </mxCell>
        <mxCell id="5O325MqEOkg0hkSNaYNA-4" value="Посмотреть профиль в личном кабинете" style="ellipse;whiteSpace=wrap;html=1;fontSize=16;" parent="1" vertex="1">
          <mxGeometry x="1119" y="-801" width="170" height="90" as="geometry" />
        </mxCell>
        <mxCell id="5O325MqEOkg0hkSNaYNA-5" value="Авторизоваться&lt;br&gt;в личном кабинете" style="ellipse;whiteSpace=wrap;html=1;fontSize=16;" parent="1" vertex="1">
          <mxGeometry x="766" y="-801" width="170" height="90" as="geometry" />
        </mxCell>
        <mxCell id="5O325MqEOkg0hkSNaYNA-6" value="&lt;font style=&quot;font-size: 14px;&quot;&gt;&amp;lt;&amp;lt;extend&amp;gt;&amp;gt;&lt;/font&gt;" style="html=1;verticalAlign=bottom;labelBackgroundColor=none;endArrow=open;endFill=0;dashed=1;rounded=0;exitX=0;exitY=0.5;exitDx=0;exitDy=0;entryX=1;entryY=0.5;entryDx=0;entryDy=0;" parent="1" source="5O325MqEOkg0hkSNaYNA-4" target="5O325MqEOkg0hkSNaYNA-5" edge="1">
          <mxGeometry width="160" relative="1" as="geometry">
            <mxPoint x="1124.5" y="-690.9999999999995" as="sourcePoint" />
            <mxPoint x="975.5" y="-690.9999999999995" as="targetPoint" />
          </mxGeometry>
        </mxCell>
        <mxCell id="5O325MqEOkg0hkSNaYNA-7" value="&lt;font style=&quot;font-size: 16px;&quot;&gt;Авторизованный &lt;br&gt;пользователь&lt;/font&gt;" style="shape=umlActor;verticalLabelPosition=bottom;verticalAlign=top;html=1;outlineConnect=0;" parent="1" vertex="1">
          <mxGeometry x="286" y="-281" width="30" height="60" as="geometry" />
        </mxCell>
        <mxCell id="5O325MqEOkg0hkSNaYNA-8" value="Отредактировать профиль в личном кабинете" style="ellipse;whiteSpace=wrap;html=1;fontSize=16;" parent="1" vertex="1">
          <mxGeometry x="1406" y="-901" width="170" height="90" as="geometry" />
        </mxCell>
        <mxCell id="5O325MqEOkg0hkSNaYNA-9" value="&lt;font style=&quot;font-size: 14px;&quot;&gt;&amp;lt;&amp;lt;extend&amp;gt;&amp;gt;&lt;/font&gt;" style="html=1;verticalAlign=bottom;labelBackgroundColor=none;endArrow=open;endFill=0;dashed=1;rounded=0;exitX=0;exitY=1;exitDx=0;exitDy=0;" parent="1" source="5O325MqEOkg0hkSNaYNA-8" target="5O325MqEOkg0hkSNaYNA-4" edge="1">
          <mxGeometry width="160" relative="1" as="geometry">
            <mxPoint x="1101" y="-621" as="sourcePoint" />
            <mxPoint x="1021" y="-581" as="targetPoint" />
          </mxGeometry>
        </mxCell>
        <mxCell id="5O325MqEOkg0hkSNaYNA-10" value="&lt;font style=&quot;font-size: 14px;&quot;&gt;&amp;lt;&amp;lt;extend&amp;gt;&amp;gt;&lt;/font&gt;" style="html=1;verticalAlign=bottom;labelBackgroundColor=none;endArrow=open;endFill=0;dashed=1;rounded=0;entryX=1.001;entryY=0.573;entryDx=0;entryDy=0;exitX=0;exitY=0.5;exitDx=0;exitDy=0;entryPerimeter=0;" parent="1" source="5O325MqEOkg0hkSNaYNA-11" target="5O325MqEOkg0hkSNaYNA-4" edge="1">
          <mxGeometry width="160" relative="1" as="geometry">
            <mxPoint x="1016" y="-611" as="sourcePoint" />
            <mxPoint x="965.9977724684711" y="-679.8178781311822" as="targetPoint" />
          </mxGeometry>
        </mxCell>
        <mxCell id="5O325MqEOkg0hkSNaYNA-11" value="Посмотреть историю заказов" style="ellipse;whiteSpace=wrap;html=1;fontSize=16;" parent="1" vertex="1">
          <mxGeometry x="1406" y="-750" width="170" height="90" as="geometry" />
        </mxCell>
        <mxCell id="5O325MqEOkg0hkSNaYNA-12" value="" style="endArrow=block;endSize=16;endFill=0;html=1;rounded=0;" parent="1" edge="1">
          <mxGeometry width="160" relative="1" as="geometry">
            <mxPoint x="276" y="-311" as="sourcePoint" />
            <mxPoint x="136" y="-461" as="targetPoint" />
          </mxGeometry>
        </mxCell>
        <mxCell id="5O325MqEOkg0hkSNaYNA-13" value="" style="endArrow=block;endSize=16;endFill=0;html=1;rounded=0;" parent="1" edge="1">
          <mxGeometry width="160" relative="1" as="geometry">
            <mxPoint x="276" y="-751" as="sourcePoint" />
            <mxPoint x="136" y="-576" as="targetPoint" />
          </mxGeometry>
        </mxCell>
        <mxCell id="5O325MqEOkg0hkSNaYNA-14" value="&lt;font style=&quot;font-size: 16px;&quot;&gt;Посмотреть информацию о &lt;font style=&quot;font-size: 16px;&quot;&gt;Товаре&lt;/font&gt;&lt;/font&gt;" style="ellipse;whiteSpace=wrap;html=1;fontSize=16;" parent="1" vertex="1">
          <mxGeometry x="941" y="-581" width="170" height="90" as="geometry" />
        </mxCell>
        <mxCell id="5O325MqEOkg0hkSNaYNA-15" value="Посмотреть список всех товаров" style="ellipse;whiteSpace=wrap;html=1;fontSize=16;" parent="1" vertex="1">
          <mxGeometry x="466" y="-581" width="170" height="90" as="geometry" />
        </mxCell>
        <mxCell id="5O325MqEOkg0hkSNaYNA-16" value="Оформить &lt;b&gt;&lt;font style=&quot;font-size: 20px;&quot;&gt;&lt;u&gt;Заказ&lt;/u&gt;&lt;/font&gt;&lt;/b&gt;" style="ellipse;whiteSpace=wrap;html=1;fontSize=16;" parent="1" vertex="1">
          <mxGeometry x="536" y="-351" width="170" height="90" as="geometry" />
        </mxCell>
        <mxCell id="5O325MqEOkg0hkSNaYNA-17" value="" style="endArrow=none;html=1;rounded=0;entryX=0;entryY=0;entryDx=0;entryDy=0;" parent="1" target="5O325MqEOkg0hkSNaYNA-15" edge="1">
          <mxGeometry width="50" height="50" relative="1" as="geometry">
            <mxPoint x="336" y="-751" as="sourcePoint" />
            <mxPoint x="506" y="-938.5" as="targetPoint" />
          </mxGeometry>
        </mxCell>
        <mxCell id="5O325MqEOkg0hkSNaYNA-18" value="&amp;lt;&amp;lt;extend&amp;gt;&amp;gt;" style="html=1;verticalAlign=bottom;labelBackgroundColor=none;endArrow=open;endFill=0;dashed=1;rounded=0;exitX=0;exitY=0.5;exitDx=0;exitDy=0;entryX=1;entryY=0;entryDx=0;entryDy=0;fontSize=14;" parent="1" source="5O325MqEOkg0hkSNaYNA-35" target="5O325MqEOkg0hkSNaYNA-15" edge="1">
          <mxGeometry width="160" relative="1" as="geometry">
            <mxPoint x="529" y="-301" as="sourcePoint" />
            <mxPoint x="685.9999999999977" y="-316" as="targetPoint" />
          </mxGeometry>
        </mxCell>
        <mxCell id="5O325MqEOkg0hkSNaYNA-19" value="" style="endArrow=none;html=1;rounded=0;entryX=0;entryY=1;entryDx=0;entryDy=0;" parent="1" target="5O325MqEOkg0hkSNaYNA-15" edge="1">
          <mxGeometry width="50" height="50" relative="1" as="geometry">
            <mxPoint x="336" y="-311" as="sourcePoint" />
            <mxPoint x="515.9999999999945" y="-703.5" as="targetPoint" />
          </mxGeometry>
        </mxCell>
        <mxCell id="5O325MqEOkg0hkSNaYNA-20" value="&lt;font style=&quot;font-size: 16px;&quot;&gt;Зарегистрироваться в личном кабинете&lt;/font&gt;" style="ellipse;whiteSpace=wrap;html=1;" parent="1" vertex="1">
          <mxGeometry x="766" y="-1001" width="170" height="90" as="geometry" />
        </mxCell>
        <mxCell id="5O325MqEOkg0hkSNaYNA-21" value="" style="endArrow=none;html=1;rounded=0;entryX=0;entryY=0.5;entryDx=0;entryDy=0;startArrow=none;" parent="1" target="5O325MqEOkg0hkSNaYNA-22" edge="1">
          <mxGeometry width="50" height="50" relative="1" as="geometry">
            <mxPoint x="356" y="-821" as="sourcePoint" />
            <mxPoint x="532.1091270347324" y="-724.7132034356005" as="targetPoint" />
          </mxGeometry>
        </mxCell>
        <mxCell id="5O325MqEOkg0hkSNaYNA-22" value="&lt;font style=&quot;font-size: 16px;&quot;&gt;Войти в личный кабинет&lt;/font&gt;" style="ellipse;whiteSpace=wrap;html=1;" parent="1" vertex="1">
          <mxGeometry x="476" y="-891" width="170" height="90" as="geometry" />
        </mxCell>
        <mxCell id="5O325MqEOkg0hkSNaYNA-23" value="&lt;font style=&quot;font-size: 14px;&quot;&gt;&amp;lt;&amp;lt;extend&amp;gt;&amp;gt;&lt;/font&gt;" style="html=1;verticalAlign=bottom;labelBackgroundColor=none;endArrow=open;endFill=0;dashed=1;rounded=0;exitX=0;exitY=0.5;exitDx=0;exitDy=0;entryX=0.785;entryY=0.056;entryDx=0;entryDy=0;entryPerimeter=0;" parent="1" source="5O325MqEOkg0hkSNaYNA-20" target="5O325MqEOkg0hkSNaYNA-22" edge="1">
          <mxGeometry width="160" relative="1" as="geometry">
            <mxPoint x="916.0000000000005" y="-601" as="sourcePoint" />
            <mxPoint x="815.9999999999995" y="-601" as="targetPoint" />
          </mxGeometry>
        </mxCell>
        <mxCell id="5O325MqEOkg0hkSNaYNA-24" value="&lt;font style=&quot;font-size: 14px;&quot;&gt;&amp;lt;&amp;lt;extend&amp;gt;&amp;gt;&lt;/font&gt;" style="html=1;verticalAlign=bottom;labelBackgroundColor=none;endArrow=open;endFill=0;dashed=1;rounded=0;exitX=0;exitY=0.5;exitDx=0;exitDy=0;entryX=1;entryY=1;entryDx=0;entryDy=0;" parent="1" source="5O325MqEOkg0hkSNaYNA-5" target="5O325MqEOkg0hkSNaYNA-22" edge="1">
          <mxGeometry width="160" relative="1" as="geometry">
            <mxPoint x="686.000000000005" y="-871" as="sourcePoint" />
            <mxPoint x="576.000000000005" y="-801" as="targetPoint" />
          </mxGeometry>
        </mxCell>
        <mxCell id="5O325MqEOkg0hkSNaYNA-25" value="Ввести количество товара" style="ellipse;whiteSpace=wrap;html=1;fontSize=16;" parent="1" vertex="1">
          <mxGeometry x="949" y="-381" width="170" height="90" as="geometry" />
        </mxCell>
        <mxCell id="5O325MqEOkg0hkSNaYNA-26" value="Ввести данные о доставке" style="ellipse;whiteSpace=wrap;html=1;fontSize=16;" parent="1" vertex="1">
          <mxGeometry x="886" y="-271" width="170" height="90" as="geometry" />
        </mxCell>
        <mxCell id="5O325MqEOkg0hkSNaYNA-27" value="Оплатить заказ" style="ellipse;whiteSpace=wrap;html=1;fontSize=16;" parent="1" vertex="1">
          <mxGeometry x="716" y="-191" width="170" height="90" as="geometry" />
        </mxCell>
        <mxCell id="5O325MqEOkg0hkSNaYNA-28" value="&amp;lt;&amp;lt;include&amp;gt;&amp;gt;" style="html=1;verticalAlign=bottom;labelBackgroundColor=none;endArrow=open;endFill=0;dashed=1;rounded=0;entryX=0;entryY=0.5;entryDx=0;entryDy=0;exitX=1;exitY=0;exitDx=0;exitDy=0;fontSize=14;" parent="1" source="5O325MqEOkg0hkSNaYNA-16" target="5O325MqEOkg0hkSNaYNA-25" edge="1">
          <mxGeometry width="160" relative="1" as="geometry">
            <mxPoint x="1054" y="-411" as="sourcePoint" />
            <mxPoint x="1179" y="-351" as="targetPoint" />
          </mxGeometry>
        </mxCell>
        <mxCell id="5O325MqEOkg0hkSNaYNA-29" value="&amp;lt;&amp;lt;include&amp;gt;&amp;gt;" style="html=1;verticalAlign=bottom;labelBackgroundColor=none;endArrow=open;endFill=0;dashed=1;rounded=0;entryX=0;entryY=0.5;entryDx=0;entryDy=0;fontSize=14;exitX=0.982;exitY=0.652;exitDx=0;exitDy=0;exitPerimeter=0;" parent="1" source="5O325MqEOkg0hkSNaYNA-16" target="5O325MqEOkg0hkSNaYNA-26" edge="1">
          <mxGeometry width="160" relative="1" as="geometry">
            <mxPoint x="656" y="-116" as="sourcePoint" />
            <mxPoint x="879.0000000000005" y="-141" as="targetPoint" />
          </mxGeometry>
        </mxCell>
        <mxCell id="5O325MqEOkg0hkSNaYNA-30" value="&amp;lt;&amp;lt;include&amp;gt;&amp;gt;" style="html=1;verticalAlign=bottom;labelBackgroundColor=none;endArrow=open;endFill=0;dashed=1;rounded=0;exitX=0.5;exitY=1;exitDx=0;exitDy=0;fontSize=14;" parent="1" source="5O325MqEOkg0hkSNaYNA-16" target="5O325MqEOkg0hkSNaYNA-27" edge="1">
          <mxGeometry width="160" relative="1" as="geometry">
            <mxPoint x="764" y="-181" as="sourcePoint" />
            <mxPoint x="879.0000000000005" y="69" as="targetPoint" />
          </mxGeometry>
        </mxCell>
        <mxCell id="5O325MqEOkg0hkSNaYNA-31" value="" style="endArrow=none;html=1;rounded=0;entryX=0;entryY=0.5;entryDx=0;entryDy=0;" parent="1" target="5O325MqEOkg0hkSNaYNA-16" edge="1">
          <mxGeometry width="50" height="50" relative="1" as="geometry">
            <mxPoint x="366" y="-241" as="sourcePoint" />
            <mxPoint x="766" y="-232.18000000000018" as="targetPoint" />
          </mxGeometry>
        </mxCell>
        <mxCell id="5O325MqEOkg0hkSNaYNA-32" value="&amp;lt;&amp;lt;extend&amp;gt;&amp;gt;" style="html=1;verticalAlign=bottom;labelBackgroundColor=none;endArrow=open;endFill=0;dashed=1;rounded=0;exitX=0.5;exitY=0;exitDx=0;exitDy=0;entryX=0.5;entryY=1;entryDx=0;entryDy=0;fontSize=14;" parent="1" source="5O325MqEOkg0hkSNaYNA-16" target="5O325MqEOkg0hkSNaYNA-14" edge="1">
          <mxGeometry width="160" relative="1" as="geometry">
            <mxPoint x="1059" y="-256" as="sourcePoint" />
            <mxPoint x="928.9999999999877" y="-241" as="targetPoint" />
          </mxGeometry>
        </mxCell>
        <mxCell id="5O325MqEOkg0hkSNaYNA-33" value="&lt;font style=&quot;font-size: 29px;&quot;&gt;&lt;b&gt;Интернет-магазин бренда «Накарабине»&lt;/b&gt;&lt;/font&gt;" style="text;html=1;strokeColor=none;fillColor=none;align=center;verticalAlign=middle;whiteSpace=wrap;rounded=0;fontSize=14;" parent="1" vertex="1">
          <mxGeometry x="811.5" y="-1111" width="429" height="70" as="geometry" />
        </mxCell>
        <mxCell id="5O325MqEOkg0hkSNaYNA-34" value="&amp;lt;&amp;lt;extend&amp;gt;&amp;gt;" style="html=1;verticalAlign=bottom;labelBackgroundColor=none;endArrow=open;endFill=0;dashed=1;rounded=0;exitX=0;exitY=0.5;exitDx=0;exitDy=0;entryX=1;entryY=0.5;entryDx=0;entryDy=0;fontSize=14;" parent="1" source="5O325MqEOkg0hkSNaYNA-14" target="5O325MqEOkg0hkSNaYNA-15" edge="1">
          <mxGeometry width="160" relative="1" as="geometry">
            <mxPoint x="889.0000000000023" y="-416" as="sourcePoint" />
            <mxPoint x="655.9999999999982" y="-416" as="targetPoint" />
          </mxGeometry>
        </mxCell>
        <mxCell id="5O325MqEOkg0hkSNaYNA-35" value="Найти товар" style="ellipse;whiteSpace=wrap;html=1;fontSize=16;" parent="1" vertex="1">
          <mxGeometry x="726" y="-681" width="170" height="90" as="geometry" />
        </mxCell>
        <mxCell id="5O325MqEOkg0hkSNaYNA-36" value="&lt;font style=&quot;font-size: 16px;&quot;&gt;Неавторизованный &lt;br&gt;пользователь&lt;/font&gt;" style="shape=umlActor;verticalLabelPosition=bottom;verticalAlign=top;html=1;outlineConnect=0;" parent="1" vertex="1">
          <mxGeometry x="286" y="-871" width="30" height="60" as="geometry" />
        </mxCell>
        <mxCell id="5O325MqEOkg0hkSNaYNA-37" value="" style="rounded=0;whiteSpace=wrap;html=1;fontSize=14;" parent="1" vertex="1">
          <mxGeometry x="1766" y="-1151" width="3030" height="2320" as="geometry" />
        </mxCell>
        <mxCell id="5O325MqEOkg0hkSNaYNA-38" value="&lt;font size=&quot;1&quot; style=&quot;&quot;&gt;&lt;b style=&quot;font-size: 30px;&quot;&gt;Варианты использования&lt;/b&gt;&lt;/font&gt;" style="text;html=1;strokeColor=none;fillColor=none;align=left;verticalAlign=middle;whiteSpace=wrap;rounded=0;" parent="1" vertex="1">
          <mxGeometry x="1886" y="-1091" width="410" height="30" as="geometry" />
        </mxCell>
        <mxCell id="5O325MqEOkg0hkSNaYNA-39" value="" style="shape=table;html=1;whiteSpace=wrap;startSize=0;container=1;collapsible=0;childLayout=tableLayout;fontSize=29;columnLines=1;rowLines=1;strokeColor=#666666;swimlaneLine=1;swimlaneFillColor=none;fillColor=#f5f5f5;fontColor=#333333;strokeWidth=2;perimeterSpacing=0;labelBorderColor=default;shadow=1;rounded=0;" parent="1" vertex="1">
          <mxGeometry x="1876" y="-991" width="870" height="400" as="geometry" />
        </mxCell>
        <mxCell id="5O325MqEOkg0hkSNaYNA-40" value="" style="shape=tableRow;horizontal=0;startSize=0;swimlaneHead=0;swimlaneBody=0;top=0;left=0;bottom=0;right=0;collapsible=0;dropTarget=0;fillColor=none;points=[[0,0.5],[1,0.5]];portConstraint=eastwest;fontSize=29;" parent="5O325MqEOkg0hkSNaYNA-39" vertex="1">
          <mxGeometry width="870" height="40" as="geometry" />
        </mxCell>
        <mxCell id="5O325MqEOkg0hkSNaYNA-41" value="&lt;font style=&quot;font-size: 18px;&quot;&gt;Уникальный код и название&lt;/font&gt;" style="shape=partialRectangle;html=1;whiteSpace=wrap;connectable=0;fillColor=#f5f5f5;top=0;left=0;bottom=1;right=1;overflow=hidden;fontSize=29;align=left;fontStyle=1;fontColor=#333333;strokeColor=#666666;labelBorderColor=none;strokeWidth=1;sketch=0;perimeterSpacing=1;verticalAlign=middle;" parent="5O325MqEOkg0hkSNaYNA-40" vertex="1">
          <mxGeometry width="290" height="40" as="geometry">
            <mxRectangle width="290" height="40" as="alternateBounds" />
          </mxGeometry>
        </mxCell>
        <mxCell id="5O325MqEOkg0hkSNaYNA-42" value="&lt;font style=&quot;font-size: 18px;&quot;&gt;ВИ-1: Посмотреть список всех товаров&lt;/font&gt;" style="shape=partialRectangle;html=1;whiteSpace=wrap;connectable=0;fillColor=#f5f5f5;top=0;left=0;bottom=1;right=0;overflow=hidden;fontSize=29;fontStyle=1;align=left;fontColor=#333333;strokeColor=#666666;strokeWidth=1;labelBorderColor=none;shadow=1;perimeterSpacing=1;verticalAlign=middle;" parent="5O325MqEOkg0hkSNaYNA-40" vertex="1">
          <mxGeometry x="290" width="580" height="40" as="geometry">
            <mxRectangle width="580" height="40" as="alternateBounds" />
          </mxGeometry>
        </mxCell>
        <mxCell id="5O325MqEOkg0hkSNaYNA-43" value="" style="shape=tableRow;horizontal=0;startSize=0;swimlaneHead=0;swimlaneBody=0;top=0;left=0;bottom=0;right=0;collapsible=0;dropTarget=0;fillColor=none;points=[[0,0.5],[1,0.5]];portConstraint=eastwest;fontSize=29;" parent="5O325MqEOkg0hkSNaYNA-39" vertex="1">
          <mxGeometry y="40" width="870" height="40" as="geometry" />
        </mxCell>
        <mxCell id="5O325MqEOkg0hkSNaYNA-44" value="&lt;font style=&quot;font-size: 16px;&quot;&gt;Контекст использования&lt;/font&gt;" style="shape=partialRectangle;html=1;whiteSpace=wrap;connectable=0;fillColor=#f5f5f5;top=0;left=0;bottom=1;right=1;overflow=hidden;fontSize=16;fontColor=#333333;strokeColor=#666666;perimeterSpacing=1;align=left;fontStyle=1;strokeWidth=1;verticalAlign=top;" parent="5O325MqEOkg0hkSNaYNA-43" vertex="1">
          <mxGeometry width="290" height="40" as="geometry">
            <mxRectangle width="290" height="40" as="alternateBounds" />
          </mxGeometry>
        </mxCell>
        <mxCell id="5O325MqEOkg0hkSNaYNA-45" value="Посмотреть доступные для заказа товары в веб-приложении" style="shape=partialRectangle;html=1;whiteSpace=wrap;connectable=0;top=0;left=0;bottom=1;right=0;overflow=hidden;fontSize=16;align=left;strokeWidth=1;strokeColor=#666666;verticalAlign=top;perimeterSpacing=1;" parent="5O325MqEOkg0hkSNaYNA-43" vertex="1">
          <mxGeometry x="290" width="580" height="40" as="geometry">
            <mxRectangle width="580" height="40" as="alternateBounds" />
          </mxGeometry>
        </mxCell>
        <mxCell id="5O325MqEOkg0hkSNaYNA-46" value="" style="shape=tableRow;horizontal=0;startSize=0;swimlaneHead=0;swimlaneBody=0;top=0;left=0;bottom=0;right=0;collapsible=0;dropTarget=0;fillColor=none;points=[[0,0.5],[1,0.5]];portConstraint=eastwest;fontSize=29;" parent="5O325MqEOkg0hkSNaYNA-39" vertex="1">
          <mxGeometry y="80" width="870" height="40" as="geometry" />
        </mxCell>
        <mxCell id="5O325MqEOkg0hkSNaYNA-47" value="&lt;font style=&quot;font-size: 16px;&quot;&gt;Область действия&lt;/font&gt;" style="shape=partialRectangle;html=1;whiteSpace=wrap;connectable=0;fillColor=#f5f5f5;top=0;left=0;bottom=1;right=1;overflow=hidden;fontSize=16;fontColor=#333333;strokeColor=#666666;align=left;fontStyle=1;strokeWidth=1;verticalAlign=top;perimeterSpacing=1;" parent="5O325MqEOkg0hkSNaYNA-46" vertex="1">
          <mxGeometry width="290" height="40" as="geometry">
            <mxRectangle width="290" height="40" as="alternateBounds" />
          </mxGeometry>
        </mxCell>
        <mxCell id="5O325MqEOkg0hkSNaYNA-48" value="Веб-приложение Накарабине" style="shape=partialRectangle;html=1;whiteSpace=wrap;connectable=0;top=0;left=0;bottom=1;right=0;overflow=hidden;fontSize=16;align=left;strokeWidth=1;verticalAlign=top;strokeColor=#666666;perimeterSpacing=1;" parent="5O325MqEOkg0hkSNaYNA-46" vertex="1">
          <mxGeometry x="290" width="580" height="40" as="geometry">
            <mxRectangle width="580" height="40" as="alternateBounds" />
          </mxGeometry>
        </mxCell>
        <mxCell id="5O325MqEOkg0hkSNaYNA-49" style="shape=tableRow;horizontal=0;startSize=0;swimlaneHead=0;swimlaneBody=0;top=0;left=0;bottom=0;right=0;collapsible=0;dropTarget=0;fillColor=none;points=[[0,0.5],[1,0.5]];portConstraint=eastwest;fontSize=29;" parent="5O325MqEOkg0hkSNaYNA-39" vertex="1">
          <mxGeometry y="120" width="870" height="40" as="geometry" />
        </mxCell>
        <mxCell id="5O325MqEOkg0hkSNaYNA-50" value="Основное действующее лицо" style="shape=partialRectangle;html=1;whiteSpace=wrap;connectable=0;fillColor=#f5f5f5;top=0;left=0;bottom=1;right=1;overflow=hidden;fontSize=16;fontColor=#333333;strokeColor=#666666;align=left;fontStyle=1;strokeWidth=1;verticalAlign=top;perimeterSpacing=1;" parent="5O325MqEOkg0hkSNaYNA-49" vertex="1">
          <mxGeometry width="290" height="40" as="geometry">
            <mxRectangle width="290" height="40" as="alternateBounds" />
          </mxGeometry>
        </mxCell>
        <mxCell id="5O325MqEOkg0hkSNaYNA-51" value="Пользователь" style="shape=partialRectangle;html=1;whiteSpace=wrap;connectable=0;top=0;left=0;bottom=1;right=0;overflow=hidden;fontSize=16;align=left;strokeWidth=1;verticalAlign=top;strokeColor=#666666;perimeterSpacing=1;" parent="5O325MqEOkg0hkSNaYNA-49" vertex="1">
          <mxGeometry x="290" width="580" height="40" as="geometry">
            <mxRectangle width="580" height="40" as="alternateBounds" />
          </mxGeometry>
        </mxCell>
        <mxCell id="5O325MqEOkg0hkSNaYNA-52" style="shape=tableRow;horizontal=0;startSize=0;swimlaneHead=0;swimlaneBody=0;top=0;left=0;bottom=0;right=0;collapsible=0;dropTarget=0;fillColor=none;points=[[0,0.5],[1,0.5]];portConstraint=eastwest;fontSize=29;" parent="5O325MqEOkg0hkSNaYNA-39" vertex="1">
          <mxGeometry y="160" width="870" height="40" as="geometry" />
        </mxCell>
        <mxCell id="5O325MqEOkg0hkSNaYNA-53" value="Предусловие" style="shape=partialRectangle;html=1;whiteSpace=wrap;connectable=0;fillColor=#f5f5f5;top=0;left=0;bottom=1;right=1;overflow=hidden;fontSize=16;fontColor=#333333;strokeColor=#666666;align=left;fontStyle=1;strokeWidth=1;verticalAlign=top;perimeterSpacing=1;" parent="5O325MqEOkg0hkSNaYNA-52" vertex="1">
          <mxGeometry width="290" height="40" as="geometry">
            <mxRectangle width="290" height="40" as="alternateBounds" />
          </mxGeometry>
        </mxCell>
        <mxCell id="5O325MqEOkg0hkSNaYNA-54" value="Пользователь вошел в веб-приложение Накарабине" style="shape=partialRectangle;html=1;whiteSpace=wrap;connectable=0;top=0;left=0;bottom=1;right=0;overflow=hidden;fontSize=16;align=left;strokeWidth=1;verticalAlign=top;perimeterSpacing=1;strokeColor=#666666;" parent="5O325MqEOkg0hkSNaYNA-52" vertex="1">
          <mxGeometry x="290" width="580" height="40" as="geometry">
            <mxRectangle width="580" height="40" as="alternateBounds" />
          </mxGeometry>
        </mxCell>
        <mxCell id="5O325MqEOkg0hkSNaYNA-55" style="shape=tableRow;horizontal=0;startSize=0;swimlaneHead=0;swimlaneBody=0;top=0;left=0;bottom=0;right=0;collapsible=0;dropTarget=0;fillColor=none;points=[[0,0.5],[1,0.5]];portConstraint=eastwest;fontSize=29;" parent="5O325MqEOkg0hkSNaYNA-39" vertex="1">
          <mxGeometry y="200" width="870" height="40" as="geometry" />
        </mxCell>
        <mxCell id="5O325MqEOkg0hkSNaYNA-56" value="Гарантии успеха" style="shape=partialRectangle;html=1;whiteSpace=wrap;connectable=0;fillColor=#f5f5f5;top=0;left=0;bottom=1;right=1;overflow=hidden;fontSize=16;fontColor=#333333;strokeColor=#666666;align=left;fontStyle=1;strokeWidth=1;verticalAlign=top;perimeterSpacing=1;" parent="5O325MqEOkg0hkSNaYNA-55" vertex="1">
          <mxGeometry width="290" height="40" as="geometry">
            <mxRectangle width="290" height="40" as="alternateBounds" />
          </mxGeometry>
        </mxCell>
        <mxCell id="5O325MqEOkg0hkSNaYNA-57" value="Информация о товарах Накарабине просмотрена" style="shape=partialRectangle;html=1;whiteSpace=wrap;connectable=0;top=0;left=0;bottom=1;right=0;overflow=hidden;fontSize=16;align=left;strokeWidth=1;verticalAlign=top;strokeColor=#666666;" parent="5O325MqEOkg0hkSNaYNA-55" vertex="1">
          <mxGeometry x="290" width="580" height="40" as="geometry">
            <mxRectangle width="580" height="40" as="alternateBounds" />
          </mxGeometry>
        </mxCell>
        <mxCell id="5O325MqEOkg0hkSNaYNA-58" style="shape=tableRow;horizontal=0;startSize=0;swimlaneHead=0;swimlaneBody=0;top=0;left=0;bottom=0;right=0;collapsible=0;dropTarget=0;fillColor=none;points=[[0,0.5],[1,0.5]];portConstraint=eastwest;fontSize=29;" parent="5O325MqEOkg0hkSNaYNA-39" vertex="1">
          <mxGeometry y="240" width="870" height="50" as="geometry" />
        </mxCell>
        <mxCell id="5O325MqEOkg0hkSNaYNA-59" value="Триггер" style="shape=partialRectangle;html=1;whiteSpace=wrap;connectable=0;fillColor=#f5f5f5;top=0;left=0;bottom=1;right=1;overflow=hidden;fontSize=16;fontColor=#333333;strokeColor=#666666;perimeterSpacing=1;align=left;fontStyle=1;strokeWidth=1;verticalAlign=top;" parent="5O325MqEOkg0hkSNaYNA-58" vertex="1">
          <mxGeometry width="290" height="50" as="geometry">
            <mxRectangle width="290" height="50" as="alternateBounds" />
          </mxGeometry>
        </mxCell>
        <mxCell id="5O325MqEOkg0hkSNaYNA-60" value="Пользователь хочет узнать о доступных для заказа товарах в веб-приложении" style="shape=partialRectangle;html=1;whiteSpace=wrap;connectable=0;top=0;left=0;bottom=1;right=0;overflow=hidden;fontSize=16;align=left;strokeWidth=1;verticalAlign=top;perimeterSpacing=1;" parent="5O325MqEOkg0hkSNaYNA-58" vertex="1">
          <mxGeometry x="290" width="580" height="50" as="geometry">
            <mxRectangle width="580" height="50" as="alternateBounds" />
          </mxGeometry>
        </mxCell>
        <mxCell id="5O325MqEOkg0hkSNaYNA-61" style="shape=tableRow;horizontal=0;startSize=0;swimlaneHead=0;swimlaneBody=0;top=0;left=0;bottom=0;right=0;collapsible=0;dropTarget=0;fillColor=none;points=[[0,0.5],[1,0.5]];portConstraint=eastwest;fontSize=29;" parent="5O325MqEOkg0hkSNaYNA-39" vertex="1">
          <mxGeometry y="290" width="870" height="70" as="geometry" />
        </mxCell>
        <mxCell id="5O325MqEOkg0hkSNaYNA-62" value="Базовый сценарий" style="shape=partialRectangle;html=1;whiteSpace=wrap;connectable=0;fillColor=#f5f5f5;top=0;left=0;bottom=1;right=1;overflow=hidden;fontSize=16;fontColor=#333333;strokeColor=#666666;perimeterSpacing=1;align=left;fontStyle=1;strokeWidth=1;verticalAlign=top;" parent="5O325MqEOkg0hkSNaYNA-61" vertex="1">
          <mxGeometry width="290" height="70" as="geometry">
            <mxRectangle width="290" height="70" as="alternateBounds" />
          </mxGeometry>
        </mxCell>
        <mxCell id="5O325MqEOkg0hkSNaYNA-63" value="Просмотр информации о всех товарах:&lt;br style=&quot;font-size: 16px;&quot;&gt;1. Пользователь просматривает список всех товаров в веб-приложении.&lt;br&gt;2. Система отображает информацию из Базового каталога товаров." style="shape=partialRectangle;html=1;whiteSpace=wrap;connectable=0;top=0;left=0;bottom=1;right=0;overflow=hidden;fontSize=16;align=left;strokeWidth=1;verticalAlign=top;perimeterSpacing=1;strokeColor=#666666;" parent="5O325MqEOkg0hkSNaYNA-61" vertex="1">
          <mxGeometry x="290" width="580" height="70" as="geometry">
            <mxRectangle width="580" height="70" as="alternateBounds" />
          </mxGeometry>
        </mxCell>
        <mxCell id="5O325MqEOkg0hkSNaYNA-64" style="shape=tableRow;horizontal=0;startSize=0;swimlaneHead=0;swimlaneBody=0;top=0;left=0;bottom=0;right=0;collapsible=0;dropTarget=0;fillColor=none;points=[[0,0.5],[1,0.5]];portConstraint=eastwest;fontSize=29;" parent="5O325MqEOkg0hkSNaYNA-39" vertex="1">
          <mxGeometry y="360" width="870" height="40" as="geometry" />
        </mxCell>
        <mxCell id="5O325MqEOkg0hkSNaYNA-65" value="Изменения в технологии и данных" style="shape=partialRectangle;html=1;whiteSpace=wrap;connectable=0;fillColor=#f5f5f5;top=0;left=0;bottom=0;right=1;overflow=hidden;fontSize=16;fontColor=#333333;strokeColor=#666666;strokeWidth=1;perimeterSpacing=1;align=left;fontStyle=1;verticalAlign=top;" parent="5O325MqEOkg0hkSNaYNA-64" vertex="1">
          <mxGeometry width="290" height="40" as="geometry">
            <mxRectangle width="290" height="40" as="alternateBounds" />
          </mxGeometry>
        </mxCell>
        <mxCell id="5O325MqEOkg0hkSNaYNA-66" value="Использовать каталог товаров" style="shape=partialRectangle;html=1;whiteSpace=wrap;connectable=0;top=0;left=0;bottom=0;right=0;overflow=hidden;fontSize=16;align=left;strokeWidth=1;verticalAlign=top;strokeColor=#666666;perimeterSpacing=1;" parent="5O325MqEOkg0hkSNaYNA-64" vertex="1">
          <mxGeometry x="290" width="580" height="40" as="geometry">
            <mxRectangle width="580" height="40" as="alternateBounds" />
          </mxGeometry>
        </mxCell>
        <mxCell id="5O325MqEOkg0hkSNaYNA-67" value="" style="shape=table;html=1;whiteSpace=wrap;startSize=0;container=1;collapsible=0;childLayout=tableLayout;fontSize=29;columnLines=1;rowLines=1;strokeColor=#666666;swimlaneLine=1;swimlaneFillColor=none;fillColor=#f5f5f5;fontColor=#333333;labelBorderColor=default;strokeWidth=2;shadow=1;verticalAlign=top;" parent="1" vertex="1">
          <mxGeometry x="1876" y="-571" width="870" height="450.0000000000007" as="geometry" />
        </mxCell>
        <mxCell id="5O325MqEOkg0hkSNaYNA-68" value="" style="shape=tableRow;horizontal=0;startSize=0;swimlaneHead=0;swimlaneBody=0;top=0;left=0;bottom=0;right=0;collapsible=0;dropTarget=0;fillColor=none;points=[[0,0.5],[1,0.5]];portConstraint=eastwest;fontSize=29;" parent="5O325MqEOkg0hkSNaYNA-67" vertex="1">
          <mxGeometry width="870" height="40" as="geometry" />
        </mxCell>
        <mxCell id="5O325MqEOkg0hkSNaYNA-69" value="&lt;font style=&quot;font-size: 18px;&quot;&gt;Уникальный код и название&lt;/font&gt;" style="shape=partialRectangle;html=1;whiteSpace=wrap;connectable=0;fillColor=#f5f5f5;top=0;left=0;bottom=1;right=1;overflow=hidden;fontSize=29;align=left;fontStyle=1;fontColor=#333333;strokeColor=default;labelBorderColor=none;" parent="5O325MqEOkg0hkSNaYNA-68" vertex="1">
          <mxGeometry width="290" height="40" as="geometry">
            <mxRectangle width="290" height="40" as="alternateBounds" />
          </mxGeometry>
        </mxCell>
        <mxCell id="5O325MqEOkg0hkSNaYNA-70" value="&lt;font style=&quot;font-size: 18px;&quot;&gt;ВИ-2: Посмотреть информацию о товаре&lt;/font&gt;" style="shape=partialRectangle;html=1;whiteSpace=wrap;connectable=0;fillColor=#f5f5f5;top=0;left=0;bottom=1;right=0;overflow=hidden;fontSize=29;fontStyle=1;align=left;fontColor=#333333;strokeColor=#000000;" parent="5O325MqEOkg0hkSNaYNA-68" vertex="1">
          <mxGeometry x="290" width="580" height="40" as="geometry">
            <mxRectangle width="580" height="40" as="alternateBounds" />
          </mxGeometry>
        </mxCell>
        <mxCell id="5O325MqEOkg0hkSNaYNA-71" value="" style="shape=tableRow;horizontal=0;startSize=0;swimlaneHead=0;swimlaneBody=0;top=0;left=0;bottom=0;right=0;collapsible=0;dropTarget=0;fillColor=none;points=[[0,0.5],[1,0.5]];portConstraint=eastwest;fontSize=29;" parent="5O325MqEOkg0hkSNaYNA-67" vertex="1">
          <mxGeometry y="40" width="870" height="40" as="geometry" />
        </mxCell>
        <mxCell id="5O325MqEOkg0hkSNaYNA-72" value="&lt;font style=&quot;font-size: 16px;&quot;&gt;Контекст использования&lt;/font&gt;" style="shape=partialRectangle;html=1;whiteSpace=wrap;connectable=0;fillColor=#f5f5f5;top=0;left=0;bottom=1;right=1;overflow=hidden;fontSize=16;fontColor=#333333;strokeColor=#000000;perimeterSpacing=1;align=left;verticalAlign=top;fontStyle=1" parent="5O325MqEOkg0hkSNaYNA-71" vertex="1">
          <mxGeometry width="290" height="40" as="geometry">
            <mxRectangle width="290" height="40" as="alternateBounds" />
          </mxGeometry>
        </mxCell>
        <mxCell id="5O325MqEOkg0hkSNaYNA-73" value="Посмотреть информацию о товаре в веб-приложении" style="shape=partialRectangle;html=1;whiteSpace=wrap;connectable=0;top=0;left=0;bottom=1;right=0;overflow=hidden;fontSize=16;align=left;verticalAlign=top;" parent="5O325MqEOkg0hkSNaYNA-71" vertex="1">
          <mxGeometry x="290" width="580" height="40" as="geometry">
            <mxRectangle width="580" height="40" as="alternateBounds" />
          </mxGeometry>
        </mxCell>
        <mxCell id="5O325MqEOkg0hkSNaYNA-74" value="" style="shape=tableRow;horizontal=0;startSize=0;swimlaneHead=0;swimlaneBody=0;top=0;left=0;bottom=0;right=0;collapsible=0;dropTarget=0;fillColor=none;points=[[0,0.5],[1,0.5]];portConstraint=eastwest;fontSize=29;" parent="5O325MqEOkg0hkSNaYNA-67" vertex="1">
          <mxGeometry y="80" width="870" height="40" as="geometry" />
        </mxCell>
        <mxCell id="5O325MqEOkg0hkSNaYNA-75" value="&lt;font style=&quot;font-size: 16px;&quot;&gt;Область действия&lt;/font&gt;" style="shape=partialRectangle;html=1;whiteSpace=wrap;connectable=0;fillColor=#f5f5f5;top=0;left=0;bottom=1;right=1;overflow=hidden;fontSize=16;fontColor=#333333;strokeColor=#666666;align=left;fontStyle=1;verticalAlign=top;" parent="5O325MqEOkg0hkSNaYNA-74" vertex="1">
          <mxGeometry width="290" height="40" as="geometry">
            <mxRectangle width="290" height="40" as="alternateBounds" />
          </mxGeometry>
        </mxCell>
        <mxCell id="5O325MqEOkg0hkSNaYNA-76" value="Веб-приложение Накарабине" style="shape=partialRectangle;html=1;whiteSpace=wrap;connectable=0;top=0;left=0;bottom=1;right=0;overflow=hidden;fontSize=16;align=left;verticalAlign=top;" parent="5O325MqEOkg0hkSNaYNA-74" vertex="1">
          <mxGeometry x="290" width="580" height="40" as="geometry">
            <mxRectangle width="580" height="40" as="alternateBounds" />
          </mxGeometry>
        </mxCell>
        <mxCell id="5O325MqEOkg0hkSNaYNA-77" style="shape=tableRow;horizontal=0;startSize=0;swimlaneHead=0;swimlaneBody=0;top=0;left=0;bottom=0;right=0;collapsible=0;dropTarget=0;fillColor=none;points=[[0,0.5],[1,0.5]];portConstraint=eastwest;fontSize=29;" parent="5O325MqEOkg0hkSNaYNA-67" vertex="1">
          <mxGeometry y="120" width="870" height="40" as="geometry" />
        </mxCell>
        <mxCell id="5O325MqEOkg0hkSNaYNA-78" value="Основное действующее лицо" style="shape=partialRectangle;html=1;whiteSpace=wrap;connectable=0;fillColor=#f5f5f5;top=0;left=0;bottom=1;right=1;overflow=hidden;fontSize=16;fontColor=#333333;strokeColor=#666666;align=left;fontStyle=1;verticalAlign=top;" parent="5O325MqEOkg0hkSNaYNA-77" vertex="1">
          <mxGeometry width="290" height="40" as="geometry">
            <mxRectangle width="290" height="40" as="alternateBounds" />
          </mxGeometry>
        </mxCell>
        <mxCell id="5O325MqEOkg0hkSNaYNA-79" value="Пользователь" style="shape=partialRectangle;html=1;whiteSpace=wrap;connectable=0;top=0;left=0;bottom=1;right=0;overflow=hidden;fontSize=16;align=left;verticalAlign=top;" parent="5O325MqEOkg0hkSNaYNA-77" vertex="1">
          <mxGeometry x="290" width="580" height="40" as="geometry">
            <mxRectangle width="580" height="40" as="alternateBounds" />
          </mxGeometry>
        </mxCell>
        <mxCell id="5O325MqEOkg0hkSNaYNA-80" style="shape=tableRow;horizontal=0;startSize=0;swimlaneHead=0;swimlaneBody=0;top=0;left=0;bottom=0;right=0;collapsible=0;dropTarget=0;fillColor=none;points=[[0,0.5],[1,0.5]];portConstraint=eastwest;fontSize=29;" parent="5O325MqEOkg0hkSNaYNA-67" vertex="1">
          <mxGeometry y="160" width="870" height="40" as="geometry" />
        </mxCell>
        <mxCell id="5O325MqEOkg0hkSNaYNA-81" value="Предусловие" style="shape=partialRectangle;html=1;whiteSpace=wrap;connectable=0;fillColor=#f5f5f5;top=0;left=0;bottom=1;right=1;overflow=hidden;fontSize=16;fontColor=#333333;strokeColor=#666666;align=left;fontStyle=1;verticalAlign=top;" parent="5O325MqEOkg0hkSNaYNA-80" vertex="1">
          <mxGeometry width="290" height="40" as="geometry">
            <mxRectangle width="290" height="40" as="alternateBounds" />
          </mxGeometry>
        </mxCell>
        <mxCell id="5O325MqEOkg0hkSNaYNA-82" value="Пользователь вошел в веб-приложение Накарабине" style="shape=partialRectangle;html=1;whiteSpace=wrap;connectable=0;top=0;left=0;bottom=1;right=0;overflow=hidden;fontSize=16;align=left;verticalAlign=top;" parent="5O325MqEOkg0hkSNaYNA-80" vertex="1">
          <mxGeometry x="290" width="580" height="40" as="geometry">
            <mxRectangle width="580" height="40" as="alternateBounds" />
          </mxGeometry>
        </mxCell>
        <mxCell id="5O325MqEOkg0hkSNaYNA-83" style="shape=tableRow;horizontal=0;startSize=0;swimlaneHead=0;swimlaneBody=0;top=0;left=0;bottom=0;right=0;collapsible=0;dropTarget=0;fillColor=none;points=[[0,0.5],[1,0.5]];portConstraint=eastwest;fontSize=29;" parent="5O325MqEOkg0hkSNaYNA-67" vertex="1">
          <mxGeometry y="200" width="870" height="40" as="geometry" />
        </mxCell>
        <mxCell id="5O325MqEOkg0hkSNaYNA-84" value="Гарантии успеха" style="shape=partialRectangle;html=1;whiteSpace=wrap;connectable=0;fillColor=#f5f5f5;top=0;left=0;bottom=1;right=1;overflow=hidden;fontSize=16;fontColor=#333333;strokeColor=#666666;align=left;fontStyle=1;verticalAlign=top;" parent="5O325MqEOkg0hkSNaYNA-83" vertex="1">
          <mxGeometry width="290" height="40" as="geometry">
            <mxRectangle width="290" height="40" as="alternateBounds" />
          </mxGeometry>
        </mxCell>
        <mxCell id="5O325MqEOkg0hkSNaYNA-85" value="Информация о товарах Накарабине просмотрена" style="shape=partialRectangle;html=1;whiteSpace=wrap;connectable=0;top=0;left=0;bottom=1;right=0;overflow=hidden;fontSize=16;align=left;verticalAlign=top;" parent="5O325MqEOkg0hkSNaYNA-83" vertex="1">
          <mxGeometry x="290" width="580" height="40" as="geometry">
            <mxRectangle width="580" height="40" as="alternateBounds" />
          </mxGeometry>
        </mxCell>
        <mxCell id="5O325MqEOkg0hkSNaYNA-86" style="shape=tableRow;horizontal=0;startSize=0;swimlaneHead=0;swimlaneBody=0;top=0;left=0;bottom=0;right=0;collapsible=0;dropTarget=0;fillColor=none;points=[[0,0.5],[1,0.5]];portConstraint=eastwest;fontSize=29;" parent="5O325MqEOkg0hkSNaYNA-67" vertex="1">
          <mxGeometry y="240" width="870" height="40" as="geometry" />
        </mxCell>
        <mxCell id="5O325MqEOkg0hkSNaYNA-87" value="Триггер" style="shape=partialRectangle;html=1;whiteSpace=wrap;connectable=0;fillColor=#f5f5f5;top=0;left=0;bottom=1;right=1;overflow=hidden;fontSize=16;fontColor=#333333;strokeColor=#666666;perimeterSpacing=1;align=left;fontStyle=1;verticalAlign=top;" parent="5O325MqEOkg0hkSNaYNA-86" vertex="1">
          <mxGeometry width="290" height="40" as="geometry">
            <mxRectangle width="290" height="40" as="alternateBounds" />
          </mxGeometry>
        </mxCell>
        <mxCell id="5O325MqEOkg0hkSNaYNA-88" value="Пользователь хочет узнать информацию о товаре в веб-приложении" style="shape=partialRectangle;html=1;whiteSpace=wrap;connectable=0;top=0;left=0;bottom=1;right=0;overflow=hidden;fontSize=16;align=left;verticalAlign=top;" parent="5O325MqEOkg0hkSNaYNA-86" vertex="1">
          <mxGeometry x="290" width="580" height="40" as="geometry">
            <mxRectangle width="580" height="40" as="alternateBounds" />
          </mxGeometry>
        </mxCell>
        <mxCell id="5O325MqEOkg0hkSNaYNA-89" style="shape=tableRow;horizontal=0;startSize=0;swimlaneHead=0;swimlaneBody=0;top=0;left=0;bottom=0;right=0;collapsible=0;dropTarget=0;fillColor=none;points=[[0,0.5],[1,0.5]];portConstraint=eastwest;fontSize=29;" parent="5O325MqEOkg0hkSNaYNA-67" vertex="1">
          <mxGeometry y="280" width="870" height="130" as="geometry" />
        </mxCell>
        <mxCell id="5O325MqEOkg0hkSNaYNA-90" value="Базовый сценарий" style="shape=partialRectangle;html=1;whiteSpace=wrap;connectable=0;fillColor=#f5f5f5;top=0;left=0;bottom=1;right=1;overflow=hidden;fontSize=16;fontColor=#333333;strokeColor=#666666;perimeterSpacing=1;align=left;fontStyle=1;verticalAlign=top;" parent="5O325MqEOkg0hkSNaYNA-89" vertex="1">
          <mxGeometry width="290" height="130" as="geometry">
            <mxRectangle width="290" height="130" as="alternateBounds" />
          </mxGeometry>
        </mxCell>
        <mxCell id="5O325MqEOkg0hkSNaYNA-91" value="Просмотр информации товаре:&lt;br&gt;1. Пользователь выбирает нужный товар в каталоге.&lt;br&gt;2. Пользователь переходит на страницу нужного товара.&lt;br&gt;3. Система отображает информацию о выбранном товаре.&lt;br&gt;4. Пользователь просматривает название, описание, артикул, цену, размер скидки, название акции." style="shape=partialRectangle;html=1;whiteSpace=wrap;connectable=0;top=0;left=0;bottom=1;right=0;overflow=hidden;fontSize=16;align=left;verticalAlign=top;" parent="5O325MqEOkg0hkSNaYNA-89" vertex="1">
          <mxGeometry x="290" width="580" height="130" as="geometry">
            <mxRectangle width="580" height="130" as="alternateBounds" />
          </mxGeometry>
        </mxCell>
        <mxCell id="5O325MqEOkg0hkSNaYNA-92" style="shape=tableRow;horizontal=0;startSize=0;swimlaneHead=0;swimlaneBody=0;top=0;left=0;bottom=0;right=0;collapsible=0;dropTarget=0;fillColor=none;points=[[0,0.5],[1,0.5]];portConstraint=eastwest;fontSize=29;" parent="5O325MqEOkg0hkSNaYNA-67" vertex="1">
          <mxGeometry y="410" width="870" height="40" as="geometry" />
        </mxCell>
        <mxCell id="5O325MqEOkg0hkSNaYNA-93" value="Изменения в технологии и данных" style="shape=partialRectangle;html=1;whiteSpace=wrap;connectable=0;fillColor=#f5f5f5;top=0;left=0;bottom=0;right=1;overflow=hidden;fontSize=16;fontColor=#333333;strokeColor=#000000;strokeWidth=1;perimeterSpacing=1;align=left;fontStyle=1;verticalAlign=top;" parent="5O325MqEOkg0hkSNaYNA-92" vertex="1">
          <mxGeometry width="290" height="40" as="geometry">
            <mxRectangle width="290" height="40" as="alternateBounds" />
          </mxGeometry>
        </mxCell>
        <mxCell id="5O325MqEOkg0hkSNaYNA-94" value="Использовать каталог товаров" style="shape=partialRectangle;html=1;whiteSpace=wrap;connectable=0;top=0;left=0;bottom=0;right=0;overflow=hidden;fontSize=16;align=left;verticalAlign=top;" parent="5O325MqEOkg0hkSNaYNA-92" vertex="1">
          <mxGeometry x="290" width="580" height="40" as="geometry">
            <mxRectangle width="580" height="40" as="alternateBounds" />
          </mxGeometry>
        </mxCell>
        <mxCell id="5O325MqEOkg0hkSNaYNA-95" value="" style="shape=table;html=1;whiteSpace=wrap;startSize=0;container=1;collapsible=0;childLayout=tableLayout;fontSize=29;columnLines=1;rowLines=1;strokeColor=#666666;swimlaneLine=1;swimlaneFillColor=none;fillColor=#f5f5f5;fontColor=#333333;strokeWidth=2;shadow=1;" parent="1" vertex="1">
          <mxGeometry x="1876" y="-101" width="870" height="520.0000000000009" as="geometry" />
        </mxCell>
        <mxCell id="5O325MqEOkg0hkSNaYNA-96" value="" style="shape=tableRow;horizontal=0;startSize=0;swimlaneHead=0;swimlaneBody=0;top=0;left=0;bottom=0;right=0;collapsible=0;dropTarget=0;fillColor=none;points=[[0,0.5],[1,0.5]];portConstraint=eastwest;fontSize=29;" parent="5O325MqEOkg0hkSNaYNA-95" vertex="1">
          <mxGeometry width="870" height="40" as="geometry" />
        </mxCell>
        <mxCell id="5O325MqEOkg0hkSNaYNA-97" value="&lt;font style=&quot;font-size: 18px;&quot;&gt;Уникальный код и название&lt;/font&gt;" style="shape=partialRectangle;html=1;whiteSpace=wrap;connectable=0;fillColor=#f5f5f5;top=0;left=0;bottom=1;right=1;overflow=hidden;fontSize=29;align=left;fontStyle=1;fontColor=#333333;strokeColor=#666666;labelBorderColor=none;verticalAlign=middle;strokeWidth=1;" parent="5O325MqEOkg0hkSNaYNA-96" vertex="1">
          <mxGeometry width="290" height="40" as="geometry">
            <mxRectangle width="290" height="40" as="alternateBounds" />
          </mxGeometry>
        </mxCell>
        <mxCell id="5O325MqEOkg0hkSNaYNA-98" value="&lt;font style=&quot;font-size: 18px;&quot;&gt;ВИ-3: Найти товар&lt;/font&gt;" style="shape=partialRectangle;html=1;whiteSpace=wrap;connectable=0;fillColor=#f5f5f5;top=0;left=0;bottom=1;right=0;overflow=hidden;fontSize=29;fontStyle=1;align=left;fontColor=#333333;strokeColor=#666666;strokeWidth=1;" parent="5O325MqEOkg0hkSNaYNA-96" vertex="1">
          <mxGeometry x="290" width="580" height="40" as="geometry">
            <mxRectangle width="580" height="40" as="alternateBounds" />
          </mxGeometry>
        </mxCell>
        <mxCell id="5O325MqEOkg0hkSNaYNA-99" value="" style="shape=tableRow;horizontal=0;startSize=0;swimlaneHead=0;swimlaneBody=0;top=0;left=0;bottom=0;right=0;collapsible=0;dropTarget=0;fillColor=none;points=[[0,0.5],[1,0.5]];portConstraint=eastwest;fontSize=29;" parent="5O325MqEOkg0hkSNaYNA-95" vertex="1">
          <mxGeometry y="40" width="870" height="40" as="geometry" />
        </mxCell>
        <mxCell id="5O325MqEOkg0hkSNaYNA-100" value="&lt;font style=&quot;font-size: 16px;&quot;&gt;Контекст использования&lt;/font&gt;" style="shape=partialRectangle;html=1;whiteSpace=wrap;connectable=0;fillColor=#f5f5f5;top=0;left=0;bottom=1;right=1;overflow=hidden;fontSize=16;fontColor=#333333;strokeColor=#666666;perimeterSpacing=4;align=left;fontStyle=1;strokeWidth=1;" parent="5O325MqEOkg0hkSNaYNA-99" vertex="1">
          <mxGeometry width="290" height="40" as="geometry">
            <mxRectangle width="290" height="40" as="alternateBounds" />
          </mxGeometry>
        </mxCell>
        <mxCell id="5O325MqEOkg0hkSNaYNA-101" value="Поиск доступных для заказа товаров в веб-приложении" style="shape=partialRectangle;html=1;whiteSpace=wrap;connectable=0;top=0;left=0;bottom=1;right=0;overflow=hidden;fontSize=16;align=left;verticalAlign=top;strokeWidth=1;strokeColor=#666666;" parent="5O325MqEOkg0hkSNaYNA-99" vertex="1">
          <mxGeometry x="290" width="580" height="40" as="geometry">
            <mxRectangle width="580" height="40" as="alternateBounds" />
          </mxGeometry>
        </mxCell>
        <mxCell id="5O325MqEOkg0hkSNaYNA-102" value="" style="shape=tableRow;horizontal=0;startSize=0;swimlaneHead=0;swimlaneBody=0;top=0;left=0;bottom=0;right=0;collapsible=0;dropTarget=0;fillColor=none;points=[[0,0.5],[1,0.5]];portConstraint=eastwest;fontSize=29;" parent="5O325MqEOkg0hkSNaYNA-95" vertex="1">
          <mxGeometry y="80" width="870" height="40" as="geometry" />
        </mxCell>
        <mxCell id="5O325MqEOkg0hkSNaYNA-103" value="&lt;font style=&quot;font-size: 16px;&quot;&gt;Область действия&lt;/font&gt;" style="shape=partialRectangle;html=1;whiteSpace=wrap;connectable=0;fillColor=#f5f5f5;top=0;left=0;bottom=1;right=1;overflow=hidden;fontSize=16;fontColor=#333333;strokeColor=#666666;align=left;fontStyle=1;strokeWidth=1;" parent="5O325MqEOkg0hkSNaYNA-102" vertex="1">
          <mxGeometry width="290" height="40" as="geometry">
            <mxRectangle width="290" height="40" as="alternateBounds" />
          </mxGeometry>
        </mxCell>
        <mxCell id="5O325MqEOkg0hkSNaYNA-104" value="Веб-приложение Накарабине" style="shape=partialRectangle;html=1;whiteSpace=wrap;connectable=0;top=0;left=0;bottom=1;right=0;overflow=hidden;fontSize=16;align=left;verticalAlign=top;strokeWidth=1;strokeColor=#666666;" parent="5O325MqEOkg0hkSNaYNA-102" vertex="1">
          <mxGeometry x="290" width="580" height="40" as="geometry">
            <mxRectangle width="580" height="40" as="alternateBounds" />
          </mxGeometry>
        </mxCell>
        <mxCell id="5O325MqEOkg0hkSNaYNA-105" style="shape=tableRow;horizontal=0;startSize=0;swimlaneHead=0;swimlaneBody=0;top=0;left=0;bottom=0;right=0;collapsible=0;dropTarget=0;fillColor=none;points=[[0,0.5],[1,0.5]];portConstraint=eastwest;fontSize=29;" parent="5O325MqEOkg0hkSNaYNA-95" vertex="1">
          <mxGeometry y="120" width="870" height="40" as="geometry" />
        </mxCell>
        <mxCell id="5O325MqEOkg0hkSNaYNA-106" value="Основное действующее лицо" style="shape=partialRectangle;html=1;whiteSpace=wrap;connectable=0;fillColor=#f5f5f5;top=0;left=0;bottom=1;right=1;overflow=hidden;fontSize=16;fontColor=#333333;strokeColor=#666666;align=left;fontStyle=1;strokeWidth=1;" parent="5O325MqEOkg0hkSNaYNA-105" vertex="1">
          <mxGeometry width="290" height="40" as="geometry">
            <mxRectangle width="290" height="40" as="alternateBounds" />
          </mxGeometry>
        </mxCell>
        <mxCell id="5O325MqEOkg0hkSNaYNA-107" value="Пользователь" style="shape=partialRectangle;html=1;whiteSpace=wrap;connectable=0;top=0;left=0;bottom=1;right=0;overflow=hidden;fontSize=16;align=left;verticalAlign=top;strokeWidth=1;strokeColor=#666666;" parent="5O325MqEOkg0hkSNaYNA-105" vertex="1">
          <mxGeometry x="290" width="580" height="40" as="geometry">
            <mxRectangle width="580" height="40" as="alternateBounds" />
          </mxGeometry>
        </mxCell>
        <mxCell id="5O325MqEOkg0hkSNaYNA-108" style="shape=tableRow;horizontal=0;startSize=0;swimlaneHead=0;swimlaneBody=0;top=0;left=0;bottom=0;right=0;collapsible=0;dropTarget=0;fillColor=none;points=[[0,0.5],[1,0.5]];portConstraint=eastwest;fontSize=29;" parent="5O325MqEOkg0hkSNaYNA-95" vertex="1">
          <mxGeometry y="160" width="870" height="40" as="geometry" />
        </mxCell>
        <mxCell id="5O325MqEOkg0hkSNaYNA-109" value="Предусловие" style="shape=partialRectangle;html=1;whiteSpace=wrap;connectable=0;fillColor=#f5f5f5;top=0;left=0;bottom=1;right=1;overflow=hidden;fontSize=16;fontColor=#333333;strokeColor=#666666;align=left;fontStyle=1;strokeWidth=1;" parent="5O325MqEOkg0hkSNaYNA-108" vertex="1">
          <mxGeometry width="290" height="40" as="geometry">
            <mxRectangle width="290" height="40" as="alternateBounds" />
          </mxGeometry>
        </mxCell>
        <mxCell id="5O325MqEOkg0hkSNaYNA-110" value="Пользователь вошел в веб-приложение Накарабине" style="shape=partialRectangle;html=1;whiteSpace=wrap;connectable=0;top=0;left=0;bottom=1;right=0;overflow=hidden;fontSize=16;align=left;verticalAlign=top;strokeWidth=1;strokeColor=#666666;" parent="5O325MqEOkg0hkSNaYNA-108" vertex="1">
          <mxGeometry x="290" width="580" height="40" as="geometry">
            <mxRectangle width="580" height="40" as="alternateBounds" />
          </mxGeometry>
        </mxCell>
        <mxCell id="5O325MqEOkg0hkSNaYNA-111" style="shape=tableRow;horizontal=0;startSize=0;swimlaneHead=0;swimlaneBody=0;top=0;left=0;bottom=0;right=0;collapsible=0;dropTarget=0;fillColor=none;points=[[0,0.5],[1,0.5]];portConstraint=eastwest;fontSize=29;" parent="5O325MqEOkg0hkSNaYNA-95" vertex="1">
          <mxGeometry y="200" width="870" height="50" as="geometry" />
        </mxCell>
        <mxCell id="5O325MqEOkg0hkSNaYNA-112" value="Гарантии успеха" style="shape=partialRectangle;html=1;whiteSpace=wrap;connectable=0;fillColor=#f5f5f5;top=0;left=0;bottom=1;right=1;overflow=hidden;fontSize=16;fontColor=#333333;strokeColor=#666666;align=left;fontStyle=1;strokeWidth=1;" parent="5O325MqEOkg0hkSNaYNA-111" vertex="1">
          <mxGeometry width="290" height="50" as="geometry">
            <mxRectangle width="290" height="50" as="alternateBounds" />
          </mxGeometry>
        </mxCell>
        <mxCell id="5O325MqEOkg0hkSNaYNA-113" value="— Товар найден&lt;br&gt;— Товар не найден" style="shape=partialRectangle;html=1;whiteSpace=wrap;connectable=0;top=0;left=0;bottom=1;right=0;overflow=hidden;fontSize=16;align=left;verticalAlign=top;strokeWidth=1;strokeColor=#666666;" parent="5O325MqEOkg0hkSNaYNA-111" vertex="1">
          <mxGeometry x="290" width="580" height="50" as="geometry">
            <mxRectangle width="580" height="50" as="alternateBounds" />
          </mxGeometry>
        </mxCell>
        <mxCell id="5O325MqEOkg0hkSNaYNA-114" style="shape=tableRow;horizontal=0;startSize=0;swimlaneHead=0;swimlaneBody=0;top=0;left=0;bottom=0;right=0;collapsible=0;dropTarget=0;fillColor=none;points=[[0,0.5],[1,0.5]];portConstraint=eastwest;fontSize=29;" parent="5O325MqEOkg0hkSNaYNA-95" vertex="1">
          <mxGeometry y="250" width="870" height="50" as="geometry" />
        </mxCell>
        <mxCell id="5O325MqEOkg0hkSNaYNA-115" value="Триггер" style="shape=partialRectangle;html=1;whiteSpace=wrap;connectable=0;fillColor=#f5f5f5;top=0;left=0;bottom=1;right=1;overflow=hidden;fontSize=16;fontColor=#333333;strokeColor=#666666;perimeterSpacing=1;align=left;fontStyle=1;strokeWidth=1;" parent="5O325MqEOkg0hkSNaYNA-114" vertex="1">
          <mxGeometry width="290" height="50" as="geometry">
            <mxRectangle width="290" height="50" as="alternateBounds" />
          </mxGeometry>
        </mxCell>
        <mxCell id="5O325MqEOkg0hkSNaYNA-116" value="Любой момент при использовании веб-приложения, когда пользователь хочет найти необходимый ему товар" style="shape=partialRectangle;html=1;whiteSpace=wrap;connectable=0;top=0;left=0;bottom=1;right=0;overflow=hidden;fontSize=16;align=left;verticalAlign=top;strokeWidth=1;strokeColor=#666666;" parent="5O325MqEOkg0hkSNaYNA-114" vertex="1">
          <mxGeometry x="290" width="580" height="50" as="geometry">
            <mxRectangle width="580" height="50" as="alternateBounds" />
          </mxGeometry>
        </mxCell>
        <mxCell id="5O325MqEOkg0hkSNaYNA-117" style="shape=tableRow;horizontal=0;startSize=0;swimlaneHead=0;swimlaneBody=0;top=0;left=0;bottom=0;right=0;collapsible=0;dropTarget=0;fillColor=none;points=[[0,0.5],[1,0.5]];portConstraint=eastwest;fontSize=29;" parent="5O325MqEOkg0hkSNaYNA-95" vertex="1">
          <mxGeometry y="300" width="870" height="90" as="geometry" />
        </mxCell>
        <mxCell id="5O325MqEOkg0hkSNaYNA-118" value="Базовый сценарий" style="shape=partialRectangle;html=1;whiteSpace=wrap;connectable=0;fillColor=#f5f5f5;top=0;left=0;bottom=1;right=1;overflow=hidden;fontSize=16;fontColor=#333333;strokeColor=#666666;perimeterSpacing=1;align=left;fontStyle=1;strokeWidth=1;" parent="5O325MqEOkg0hkSNaYNA-117" vertex="1">
          <mxGeometry width="290" height="90" as="geometry">
            <mxRectangle width="290" height="90" as="alternateBounds" />
          </mxGeometry>
        </mxCell>
        <mxCell id="5O325MqEOkg0hkSNaYNA-119" value="Поиск товара:&lt;br&gt;1. Пользователь вводит текст в строку поиска.&lt;br&gt;2. Система отображает пользователю найденные товары.&lt;br&gt;3. Пользователь просматривает товары." style="shape=partialRectangle;html=1;whiteSpace=wrap;connectable=0;top=0;left=0;bottom=1;right=0;overflow=hidden;fontSize=16;align=left;verticalAlign=top;strokeWidth=1;strokeColor=#666666;" parent="5O325MqEOkg0hkSNaYNA-117" vertex="1">
          <mxGeometry x="290" width="580" height="90" as="geometry">
            <mxRectangle width="580" height="90" as="alternateBounds" />
          </mxGeometry>
        </mxCell>
        <mxCell id="5O325MqEOkg0hkSNaYNA-120" style="shape=tableRow;horizontal=0;startSize=0;swimlaneHead=0;swimlaneBody=0;top=0;left=0;bottom=0;right=0;collapsible=0;dropTarget=0;fillColor=none;points=[[0,0.5],[1,0.5]];portConstraint=eastwest;fontSize=29;" parent="5O325MqEOkg0hkSNaYNA-95" vertex="1">
          <mxGeometry y="390" width="870" height="90" as="geometry" />
        </mxCell>
        <mxCell id="5O325MqEOkg0hkSNaYNA-121" value="Расширения" style="shape=partialRectangle;html=1;whiteSpace=wrap;connectable=0;fillColor=#f5f5f5;top=0;left=0;bottom=1;right=1;overflow=hidden;fontSize=16;fontColor=#333333;strokeColor=#666666;perimeterSpacing=1;align=left;fontStyle=1;strokeWidth=1;" parent="5O325MqEOkg0hkSNaYNA-120" vertex="1">
          <mxGeometry width="290" height="90" as="geometry">
            <mxRectangle width="290" height="90" as="alternateBounds" />
          </mxGeometry>
        </mxCell>
        <mxCell id="5O325MqEOkg0hkSNaYNA-122" value="Товар не найден:&lt;br&gt;2.а. Система отображает пользователю сообщение о том, что товар не найден.&lt;br&gt;2.b. Пользователь возвращается на шаг 1 основного сценария." style="shape=partialRectangle;html=1;whiteSpace=wrap;connectable=0;top=0;left=0;bottom=1;right=0;overflow=hidden;fontSize=16;align=left;verticalAlign=top;strokeWidth=1;strokeColor=#666666;" parent="5O325MqEOkg0hkSNaYNA-120" vertex="1">
          <mxGeometry x="290" width="580" height="90" as="geometry">
            <mxRectangle width="580" height="90" as="alternateBounds" />
          </mxGeometry>
        </mxCell>
        <mxCell id="5O325MqEOkg0hkSNaYNA-123" style="shape=tableRow;horizontal=0;startSize=0;swimlaneHead=0;swimlaneBody=0;top=0;left=0;bottom=0;right=0;collapsible=0;dropTarget=0;fillColor=none;points=[[0,0.5],[1,0.5]];portConstraint=eastwest;fontSize=29;" parent="5O325MqEOkg0hkSNaYNA-95" vertex="1">
          <mxGeometry y="480" width="870" height="40" as="geometry" />
        </mxCell>
        <mxCell id="5O325MqEOkg0hkSNaYNA-124" value="Изменения в технологии и данных" style="shape=partialRectangle;html=1;whiteSpace=wrap;connectable=0;fillColor=#f5f5f5;top=0;left=0;bottom=0;right=1;overflow=hidden;fontSize=16;fontColor=#333333;strokeColor=#666666;strokeWidth=1;perimeterSpacing=1;align=left;fontStyle=1" parent="5O325MqEOkg0hkSNaYNA-123" vertex="1">
          <mxGeometry width="290" height="40" as="geometry">
            <mxRectangle width="290" height="40" as="alternateBounds" />
          </mxGeometry>
        </mxCell>
        <mxCell id="5O325MqEOkg0hkSNaYNA-125" value="Использовать каталог товаров" style="shape=partialRectangle;html=1;whiteSpace=wrap;connectable=0;top=0;left=0;bottom=0;right=0;overflow=hidden;fontSize=16;align=left;verticalAlign=top;strokeWidth=1;strokeColor=#666666;" parent="5O325MqEOkg0hkSNaYNA-123" vertex="1">
          <mxGeometry x="290" width="580" height="40" as="geometry">
            <mxRectangle width="580" height="40" as="alternateBounds" />
          </mxGeometry>
        </mxCell>
        <mxCell id="5O325MqEOkg0hkSNaYNA-126" value="" style="shape=table;html=1;whiteSpace=wrap;startSize=0;container=1;collapsible=0;childLayout=tableLayout;fontSize=29;columnLines=1;rowLines=1;strokeColor=#666666;swimlaneLine=1;swimlaneFillColor=none;fillColor=#f5f5f5;fontColor=#333333;strokeWidth=2;shadow=1;" parent="1" vertex="1">
          <mxGeometry x="2846" y="-991" width="870" height="1020.0000000000009" as="geometry" />
        </mxCell>
        <mxCell id="5O325MqEOkg0hkSNaYNA-127" value="" style="shape=tableRow;horizontal=0;startSize=0;swimlaneHead=0;swimlaneBody=0;top=0;left=0;bottom=0;right=0;collapsible=0;dropTarget=0;fillColor=none;points=[[0,0.5],[1,0.5]];portConstraint=eastwest;fontSize=29;" parent="5O325MqEOkg0hkSNaYNA-126" vertex="1">
          <mxGeometry width="870" height="40" as="geometry" />
        </mxCell>
        <mxCell id="5O325MqEOkg0hkSNaYNA-128" value="&lt;font style=&quot;font-size: 18px;&quot;&gt;Уникальный код и название&lt;/font&gt;" style="shape=partialRectangle;html=1;whiteSpace=wrap;connectable=0;fillColor=#f5f5f5;top=0;left=0;bottom=1;right=1;overflow=hidden;fontSize=29;align=left;fontStyle=1;fontColor=#333333;strokeColor=#666666;labelBorderColor=none;verticalAlign=middle;spacing=2;strokeWidth=1;" parent="5O325MqEOkg0hkSNaYNA-127" vertex="1">
          <mxGeometry width="290" height="40" as="geometry">
            <mxRectangle width="290" height="40" as="alternateBounds" />
          </mxGeometry>
        </mxCell>
        <mxCell id="5O325MqEOkg0hkSNaYNA-129" value="&lt;font style=&quot;font-size: 18px;&quot;&gt;ВИ-4: Оформить заказ&lt;/font&gt;" style="shape=partialRectangle;html=1;whiteSpace=wrap;connectable=0;fillColor=#f5f5f5;top=0;left=0;bottom=1;right=0;overflow=hidden;fontSize=29;fontStyle=1;align=left;fontColor=#333333;strokeColor=#666666;verticalAlign=top;strokeWidth=1;" parent="5O325MqEOkg0hkSNaYNA-127" vertex="1">
          <mxGeometry x="290" width="580" height="40" as="geometry">
            <mxRectangle width="580" height="40" as="alternateBounds" />
          </mxGeometry>
        </mxCell>
        <mxCell id="5O325MqEOkg0hkSNaYNA-130" value="" style="shape=tableRow;horizontal=0;startSize=0;swimlaneHead=0;swimlaneBody=0;top=0;left=0;bottom=0;right=0;collapsible=0;dropTarget=0;fillColor=none;points=[[0,0.5],[1,0.5]];portConstraint=eastwest;fontSize=29;" parent="5O325MqEOkg0hkSNaYNA-126" vertex="1">
          <mxGeometry y="40" width="870" height="40" as="geometry" />
        </mxCell>
        <mxCell id="5O325MqEOkg0hkSNaYNA-131" value="&lt;font style=&quot;font-size: 16px;&quot;&gt;Контекст использования&lt;/font&gt;" style="shape=partialRectangle;html=1;whiteSpace=wrap;connectable=0;fillColor=#f5f5f5;top=0;left=0;bottom=1;right=1;overflow=hidden;fontSize=16;fontColor=#333333;strokeColor=#666666;perimeterSpacing=4;align=left;fontStyle=1;verticalAlign=top;strokeWidth=1;" parent="5O325MqEOkg0hkSNaYNA-130" vertex="1">
          <mxGeometry width="290" height="40" as="geometry">
            <mxRectangle width="290" height="40" as="alternateBounds" />
          </mxGeometry>
        </mxCell>
        <mxCell id="5O325MqEOkg0hkSNaYNA-132" value="Заказ выбранного товара" style="shape=partialRectangle;html=1;whiteSpace=wrap;connectable=0;top=0;left=0;bottom=1;right=0;overflow=hidden;fontSize=16;align=left;verticalAlign=top;strokeWidth=1;strokeColor=#666666;" parent="5O325MqEOkg0hkSNaYNA-130" vertex="1">
          <mxGeometry x="290" width="580" height="40" as="geometry">
            <mxRectangle width="580" height="40" as="alternateBounds" />
          </mxGeometry>
        </mxCell>
        <mxCell id="5O325MqEOkg0hkSNaYNA-133" value="" style="shape=tableRow;horizontal=0;startSize=0;swimlaneHead=0;swimlaneBody=0;top=0;left=0;bottom=0;right=0;collapsible=0;dropTarget=0;fillColor=none;points=[[0,0.5],[1,0.5]];portConstraint=eastwest;fontSize=29;" parent="5O325MqEOkg0hkSNaYNA-126" vertex="1">
          <mxGeometry y="80" width="870" height="40" as="geometry" />
        </mxCell>
        <mxCell id="5O325MqEOkg0hkSNaYNA-134" value="&lt;font style=&quot;font-size: 16px;&quot;&gt;Область действия&lt;/font&gt;" style="shape=partialRectangle;html=1;whiteSpace=wrap;connectable=0;fillColor=#f5f5f5;top=0;left=0;bottom=1;right=1;overflow=hidden;fontSize=16;fontColor=#333333;strokeColor=#666666;align=left;fontStyle=1;verticalAlign=top;strokeWidth=1;" parent="5O325MqEOkg0hkSNaYNA-133" vertex="1">
          <mxGeometry width="290" height="40" as="geometry">
            <mxRectangle width="290" height="40" as="alternateBounds" />
          </mxGeometry>
        </mxCell>
        <mxCell id="5O325MqEOkg0hkSNaYNA-135" value="Веб-приложение Накарабине" style="shape=partialRectangle;html=1;whiteSpace=wrap;connectable=0;top=0;left=0;bottom=1;right=0;overflow=hidden;fontSize=16;align=left;verticalAlign=top;strokeWidth=1;strokeColor=#666666;" parent="5O325MqEOkg0hkSNaYNA-133" vertex="1">
          <mxGeometry x="290" width="580" height="40" as="geometry">
            <mxRectangle width="580" height="40" as="alternateBounds" />
          </mxGeometry>
        </mxCell>
        <mxCell id="5O325MqEOkg0hkSNaYNA-136" style="shape=tableRow;horizontal=0;startSize=0;swimlaneHead=0;swimlaneBody=0;top=0;left=0;bottom=0;right=0;collapsible=0;dropTarget=0;fillColor=none;points=[[0,0.5],[1,0.5]];portConstraint=eastwest;fontSize=29;" parent="5O325MqEOkg0hkSNaYNA-126" vertex="1">
          <mxGeometry y="120" width="870" height="40" as="geometry" />
        </mxCell>
        <mxCell id="5O325MqEOkg0hkSNaYNA-137" value="Основное действующее лицо" style="shape=partialRectangle;html=1;whiteSpace=wrap;connectable=0;fillColor=#f5f5f5;top=0;left=0;bottom=1;right=1;overflow=hidden;fontSize=16;fontColor=#333333;strokeColor=#666666;align=left;fontStyle=1;verticalAlign=top;strokeWidth=1;" parent="5O325MqEOkg0hkSNaYNA-136" vertex="1">
          <mxGeometry width="290" height="40" as="geometry">
            <mxRectangle width="290" height="40" as="alternateBounds" />
          </mxGeometry>
        </mxCell>
        <mxCell id="5O325MqEOkg0hkSNaYNA-138" value="Пользователь" style="shape=partialRectangle;html=1;whiteSpace=wrap;connectable=0;top=0;left=0;bottom=1;right=0;overflow=hidden;fontSize=16;align=left;verticalAlign=top;strokeWidth=1;strokeColor=#666666;" parent="5O325MqEOkg0hkSNaYNA-136" vertex="1">
          <mxGeometry x="290" width="580" height="40" as="geometry">
            <mxRectangle width="580" height="40" as="alternateBounds" />
          </mxGeometry>
        </mxCell>
        <mxCell id="5O325MqEOkg0hkSNaYNA-139" style="shape=tableRow;horizontal=0;startSize=0;swimlaneHead=0;swimlaneBody=0;top=0;left=0;bottom=0;right=0;collapsible=0;dropTarget=0;fillColor=none;points=[[0,0.5],[1,0.5]];portConstraint=eastwest;fontSize=29;" parent="5O325MqEOkg0hkSNaYNA-126" vertex="1">
          <mxGeometry y="160" width="870" height="50" as="geometry" />
        </mxCell>
        <mxCell id="5O325MqEOkg0hkSNaYNA-140" value="Предусловие" style="shape=partialRectangle;html=1;whiteSpace=wrap;connectable=0;fillColor=#f5f5f5;top=0;left=0;bottom=1;right=1;overflow=hidden;fontSize=16;fontColor=#333333;strokeColor=#666666;align=left;fontStyle=1;verticalAlign=top;strokeWidth=1;" parent="5O325MqEOkg0hkSNaYNA-139" vertex="1">
          <mxGeometry width="290" height="50" as="geometry">
            <mxRectangle width="290" height="50" as="alternateBounds" />
          </mxGeometry>
        </mxCell>
        <mxCell id="5O325MqEOkg0hkSNaYNA-141" value="Успешно выполнен один из сценариев: «Зарегистрироваться в Личном кабинете» или «Авторизоваться в Личном кабинете»" style="shape=partialRectangle;html=1;whiteSpace=wrap;connectable=0;top=0;left=0;bottom=1;right=0;overflow=hidden;fontSize=16;align=left;verticalAlign=top;strokeWidth=1;strokeColor=#666666;" parent="5O325MqEOkg0hkSNaYNA-139" vertex="1">
          <mxGeometry x="290" width="580" height="50" as="geometry">
            <mxRectangle width="580" height="50" as="alternateBounds" />
          </mxGeometry>
        </mxCell>
        <mxCell id="5O325MqEOkg0hkSNaYNA-142" style="shape=tableRow;horizontal=0;startSize=0;swimlaneHead=0;swimlaneBody=0;top=0;left=0;bottom=0;right=0;collapsible=0;dropTarget=0;fillColor=none;points=[[0,0.5],[1,0.5]];portConstraint=eastwest;fontSize=29;" parent="5O325MqEOkg0hkSNaYNA-126" vertex="1">
          <mxGeometry y="210" width="870" height="50" as="geometry" />
        </mxCell>
        <mxCell id="5O325MqEOkg0hkSNaYNA-143" value="Гарантии успеха" style="shape=partialRectangle;html=1;whiteSpace=wrap;connectable=0;fillColor=#f5f5f5;top=0;left=0;bottom=1;right=1;overflow=hidden;fontSize=16;fontColor=#333333;strokeColor=#666666;align=left;fontStyle=1;verticalAlign=top;strokeWidth=1;" parent="5O325MqEOkg0hkSNaYNA-142" vertex="1">
          <mxGeometry width="290" height="50" as="geometry">
            <mxRectangle width="290" height="50" as="alternateBounds" />
          </mxGeometry>
        </mxCell>
        <mxCell id="5O325MqEOkg0hkSNaYNA-144" value="— Товар успешно заказан&lt;br&gt;— Товар не заказан" style="shape=partialRectangle;html=1;whiteSpace=wrap;connectable=0;top=0;left=0;bottom=1;right=0;overflow=hidden;fontSize=16;align=left;verticalAlign=top;strokeWidth=1;strokeColor=#666666;" parent="5O325MqEOkg0hkSNaYNA-142" vertex="1">
          <mxGeometry x="290" width="580" height="50" as="geometry">
            <mxRectangle width="580" height="50" as="alternateBounds" />
          </mxGeometry>
        </mxCell>
        <mxCell id="5O325MqEOkg0hkSNaYNA-145" style="shape=tableRow;horizontal=0;startSize=0;swimlaneHead=0;swimlaneBody=0;top=0;left=0;bottom=0;right=0;collapsible=0;dropTarget=0;fillColor=none;points=[[0,0.5],[1,0.5]];portConstraint=eastwest;fontSize=29;" parent="5O325MqEOkg0hkSNaYNA-126" vertex="1">
          <mxGeometry y="260" width="870" height="40" as="geometry" />
        </mxCell>
        <mxCell id="5O325MqEOkg0hkSNaYNA-146" value="Триггер" style="shape=partialRectangle;html=1;whiteSpace=wrap;connectable=0;fillColor=#f5f5f5;top=0;left=0;bottom=1;right=1;overflow=hidden;fontSize=16;fontColor=#333333;strokeColor=#666666;perimeterSpacing=1;align=left;fontStyle=1;verticalAlign=top;strokeWidth=1;" parent="5O325MqEOkg0hkSNaYNA-145" vertex="1">
          <mxGeometry width="290" height="40" as="geometry">
            <mxRectangle width="290" height="40" as="alternateBounds" />
          </mxGeometry>
        </mxCell>
        <mxCell id="5O325MqEOkg0hkSNaYNA-147" value="Пользователь хочет заказать понравившиеся ему товары" style="shape=partialRectangle;html=1;whiteSpace=wrap;connectable=0;top=0;left=0;bottom=1;right=0;overflow=hidden;fontSize=16;align=left;verticalAlign=top;strokeWidth=1;strokeColor=#666666;" parent="5O325MqEOkg0hkSNaYNA-145" vertex="1">
          <mxGeometry x="290" width="580" height="40" as="geometry">
            <mxRectangle width="580" height="40" as="alternateBounds" />
          </mxGeometry>
        </mxCell>
        <mxCell id="5O325MqEOkg0hkSNaYNA-148" style="shape=tableRow;horizontal=0;startSize=0;swimlaneHead=0;swimlaneBody=0;top=0;left=0;bottom=0;right=0;collapsible=0;dropTarget=0;fillColor=none;points=[[0,0.5],[1,0.5]];portConstraint=eastwest;fontSize=29;" parent="5O325MqEOkg0hkSNaYNA-126" vertex="1">
          <mxGeometry y="300" width="870" height="280" as="geometry" />
        </mxCell>
        <mxCell id="5O325MqEOkg0hkSNaYNA-149" value="Базовый сценарий" style="shape=partialRectangle;html=1;whiteSpace=wrap;connectable=0;fillColor=#f5f5f5;top=0;left=0;bottom=1;right=1;overflow=hidden;fontSize=16;fontColor=#333333;strokeColor=#666666;perimeterSpacing=1;align=left;fontStyle=1;verticalAlign=top;strokeWidth=1;" parent="5O325MqEOkg0hkSNaYNA-148" vertex="1">
          <mxGeometry width="290" height="280" as="geometry">
            <mxRectangle width="290" height="280" as="alternateBounds" />
          </mxGeometry>
        </mxCell>
        <mxCell id="5O325MqEOkg0hkSNaYNA-150" value="Заказ успешно оформлен:&lt;br&gt;1. Пользователь просматривает товар к заказу.&lt;br&gt;2. Система отображает информацию о товаре.&lt;br&gt;3. Пользователь выбирает действие заказа товара.&lt;br&gt;4. Система проверяет, что пользователь авторизован в Личном кабинете.&lt;br&gt;5. Пользователь выбирает количество товара.&lt;br&gt;6. Пользователь подтверждает состав заказа.&lt;br&gt;7. Пользователь заполняет необходимую информацию о доставке: город, индекс, адрес.&amp;nbsp;&lt;br&gt;8. Система рассчитывает дату доставки.&lt;br&gt;9. Пользователь оплачивает заказ.&lt;br&gt;10. Система присваивает заказу номер и дату.&lt;br&gt;11. Система отображает информацию о том, что заказ был успешно оформлен." style="shape=partialRectangle;html=1;whiteSpace=wrap;connectable=0;top=0;left=0;bottom=1;right=0;overflow=hidden;fontSize=16;align=left;verticalAlign=top;strokeWidth=1;strokeColor=#666666;" parent="5O325MqEOkg0hkSNaYNA-148" vertex="1">
          <mxGeometry x="290" width="580" height="280" as="geometry">
            <mxRectangle width="580" height="280" as="alternateBounds" />
          </mxGeometry>
        </mxCell>
        <mxCell id="5O325MqEOkg0hkSNaYNA-151" style="shape=tableRow;horizontal=0;startSize=0;swimlaneHead=0;swimlaneBody=0;top=0;left=0;bottom=0;right=0;collapsible=0;dropTarget=0;fillColor=none;points=[[0,0.5],[1,0.5]];portConstraint=eastwest;fontSize=29;" parent="5O325MqEOkg0hkSNaYNA-126" vertex="1">
          <mxGeometry y="580" width="870" height="400" as="geometry" />
        </mxCell>
        <mxCell id="5O325MqEOkg0hkSNaYNA-152" value="Расширения" style="shape=partialRectangle;html=1;whiteSpace=wrap;connectable=0;fillColor=#f5f5f5;top=0;left=0;bottom=1;right=1;overflow=hidden;fontSize=16;fontColor=#333333;strokeColor=#666666;perimeterSpacing=1;align=left;fontStyle=1;verticalAlign=top;strokeWidth=1;" parent="5O325MqEOkg0hkSNaYNA-151" vertex="1">
          <mxGeometry width="290" height="400" as="geometry">
            <mxRectangle width="290" height="400" as="alternateBounds" />
          </mxGeometry>
        </mxCell>
        <mxCell id="5O325MqEOkg0hkSNaYNA-153" value="Пользователь не авторизован в Личном кабинете:&lt;br&gt;4.а. Система выводит сообщение о том, что для совершения заказа необходимо авторизоваться или зарегистрироваться в Личном кабинете.&lt;br&gt;4.b. Пользователь выполняет один из сценариев: «Зарегистрироваться в Личном кабинете» или «Авторизоваться в Личном кабинете».&lt;br&gt;4.с. Система переходит на шаг 4 основного сценария.&lt;br&gt;&lt;br&gt;Пользователь хочет заказать несколько товаров:&lt;br&gt;6.a. Пользователь просматривает доступные для заказа товары.&lt;br&gt;6.b. Пользователь просматривает товар к заказу.&lt;br&gt;6.c. Система отображает информацию о товаре.&lt;br&gt;6.d. Пользователь выбирает действие заказа товара.&lt;br&gt;6.e. Пользователь выбирает количество товара.&lt;br&gt;6.f. Шаги 6.a – 6.e. повторяются для всех товаров, которые Пользователь хочет заказать.&lt;br&gt;6.g. Пользователь переходит на шаг 6 основного сценария.&lt;br&gt;&lt;br&gt;Заказ не оформлен:&lt;br&gt;11.а. Система отображает информацию о том, что заказ не был оформлен.&lt;br&gt;11.b.  Система переходит на шаг 4 основного сценария." style="shape=partialRectangle;html=1;whiteSpace=wrap;connectable=0;top=0;left=0;bottom=1;right=0;overflow=hidden;fontSize=16;align=left;verticalAlign=top;strokeWidth=1;strokeColor=#666666;" parent="5O325MqEOkg0hkSNaYNA-151" vertex="1">
          <mxGeometry x="290" width="580" height="400" as="geometry">
            <mxRectangle width="580" height="400" as="alternateBounds" />
          </mxGeometry>
        </mxCell>
        <mxCell id="5O325MqEOkg0hkSNaYNA-154" style="shape=tableRow;horizontal=0;startSize=0;swimlaneHead=0;swimlaneBody=0;top=0;left=0;bottom=0;right=0;collapsible=0;dropTarget=0;fillColor=none;points=[[0,0.5],[1,0.5]];portConstraint=eastwest;fontSize=29;" parent="5O325MqEOkg0hkSNaYNA-126" vertex="1">
          <mxGeometry y="980" width="870" height="40" as="geometry" />
        </mxCell>
        <mxCell id="5O325MqEOkg0hkSNaYNA-155" value="Изменения в технологии и данных" style="shape=partialRectangle;html=1;whiteSpace=wrap;connectable=0;fillColor=#f5f5f5;top=0;left=0;bottom=0;right=0;overflow=hidden;fontSize=16;fontColor=#333333;strokeColor=#666666;strokeWidth=1;perimeterSpacing=1;align=left;fontStyle=1" parent="5O325MqEOkg0hkSNaYNA-154" vertex="1">
          <mxGeometry width="290" height="40" as="geometry">
            <mxRectangle width="290" height="40" as="alternateBounds" />
          </mxGeometry>
        </mxCell>
        <mxCell id="5O325MqEOkg0hkSNaYNA-156" value="Использовать хранение заказов пользователя" style="shape=partialRectangle;html=1;whiteSpace=wrap;connectable=0;top=0;left=0;bottom=0;right=0;overflow=hidden;fontSize=16;align=left;verticalAlign=top;strokeWidth=1;strokeColor=#666666;" parent="5O325MqEOkg0hkSNaYNA-154" vertex="1">
          <mxGeometry x="290" width="580" height="40" as="geometry">
            <mxRectangle width="580" height="40" as="alternateBounds" />
          </mxGeometry>
        </mxCell>
        <mxCell id="5O325MqEOkg0hkSNaYNA-157" value="" style="shape=table;html=1;whiteSpace=wrap;startSize=0;container=1;collapsible=0;childLayout=tableLayout;fontSize=29;columnLines=1;rowLines=1;swimlaneLine=1;swimlaneFillColor=none;strokeWidth=2;strokeColor=#666666;shadow=1;" parent="1" vertex="1">
          <mxGeometry x="2846" y="49" width="870" height="610.0000000000009" as="geometry" />
        </mxCell>
        <mxCell id="5O325MqEOkg0hkSNaYNA-158" value="" style="shape=tableRow;horizontal=0;startSize=0;swimlaneHead=0;swimlaneBody=0;top=0;left=0;bottom=0;right=0;collapsible=0;dropTarget=0;fillColor=none;points=[[0,0.5],[1,0.5]];portConstraint=eastwest;fontSize=29;" parent="5O325MqEOkg0hkSNaYNA-157" vertex="1">
          <mxGeometry width="870" height="40" as="geometry" />
        </mxCell>
        <mxCell id="5O325MqEOkg0hkSNaYNA-159" value="&lt;font style=&quot;font-size: 18px;&quot;&gt;Уникальный код и название&lt;/font&gt;" style="shape=partialRectangle;html=1;whiteSpace=wrap;connectable=0;fillColor=#f5f5f5;top=0;left=0;bottom=1;right=1;overflow=hidden;fontSize=29;align=left;fontStyle=1;fontColor=#333333;strokeColor=#666666;labelBorderColor=none;verticalAlign=middle;" parent="5O325MqEOkg0hkSNaYNA-158" vertex="1">
          <mxGeometry width="290" height="40" as="geometry">
            <mxRectangle width="290" height="40" as="alternateBounds" />
          </mxGeometry>
        </mxCell>
        <mxCell id="5O325MqEOkg0hkSNaYNA-160" value="&lt;font style=&quot;font-size: 18px;&quot;&gt;ВИ-5: Зарегистрироваться в Личном кабинете&lt;/font&gt;" style="shape=partialRectangle;html=1;whiteSpace=wrap;connectable=0;fillColor=#f5f5f5;top=0;left=0;bottom=1;right=0;overflow=hidden;fontSize=29;fontStyle=1;align=left;fontColor=#333333;strokeColor=#666666;verticalAlign=top;" parent="5O325MqEOkg0hkSNaYNA-158" vertex="1">
          <mxGeometry x="290" width="580" height="40" as="geometry">
            <mxRectangle width="580" height="40" as="alternateBounds" />
          </mxGeometry>
        </mxCell>
        <mxCell id="5O325MqEOkg0hkSNaYNA-161" value="" style="shape=tableRow;horizontal=0;startSize=0;swimlaneHead=0;swimlaneBody=0;top=0;left=0;bottom=0;right=0;collapsible=0;dropTarget=0;fillColor=none;points=[[0,0.5],[1,0.5]];portConstraint=eastwest;fontSize=29;" parent="5O325MqEOkg0hkSNaYNA-157" vertex="1">
          <mxGeometry y="40" width="870" height="40" as="geometry" />
        </mxCell>
        <mxCell id="5O325MqEOkg0hkSNaYNA-162" value="&lt;font style=&quot;font-size: 16px;&quot;&gt;Контекст использования&lt;/font&gt;" style="shape=partialRectangle;html=1;whiteSpace=wrap;connectable=0;fillColor=#f5f5f5;top=0;left=0;bottom=1;right=1;overflow=hidden;fontSize=16;fontColor=#333333;strokeColor=#666666;perimeterSpacing=4;align=left;fontStyle=1;verticalAlign=top;" parent="5O325MqEOkg0hkSNaYNA-161" vertex="1">
          <mxGeometry width="290" height="40" as="geometry">
            <mxRectangle width="290" height="40" as="alternateBounds" />
          </mxGeometry>
        </mxCell>
        <mxCell id="5O325MqEOkg0hkSNaYNA-163" value="Регистрация в веб-приложении Накарабине" style="shape=partialRectangle;html=1;whiteSpace=wrap;connectable=0;top=0;left=0;bottom=1;right=0;overflow=hidden;fontSize=16;align=left;verticalAlign=top;strokeColor=#666666;" parent="5O325MqEOkg0hkSNaYNA-161" vertex="1">
          <mxGeometry x="290" width="580" height="40" as="geometry">
            <mxRectangle width="580" height="40" as="alternateBounds" />
          </mxGeometry>
        </mxCell>
        <mxCell id="5O325MqEOkg0hkSNaYNA-164" value="" style="shape=tableRow;horizontal=0;startSize=0;swimlaneHead=0;swimlaneBody=0;top=0;left=0;bottom=0;right=0;collapsible=0;dropTarget=0;fillColor=none;points=[[0,0.5],[1,0.5]];portConstraint=eastwest;fontSize=29;" parent="5O325MqEOkg0hkSNaYNA-157" vertex="1">
          <mxGeometry y="80" width="870" height="40" as="geometry" />
        </mxCell>
        <mxCell id="5O325MqEOkg0hkSNaYNA-165" value="&lt;font style=&quot;font-size: 16px;&quot;&gt;Область действия&lt;/font&gt;" style="shape=partialRectangle;html=1;whiteSpace=wrap;connectable=0;fillColor=#f5f5f5;top=0;left=0;bottom=1;right=1;overflow=hidden;fontSize=16;fontColor=#333333;strokeColor=#666666;align=left;fontStyle=1;verticalAlign=top;" parent="5O325MqEOkg0hkSNaYNA-164" vertex="1">
          <mxGeometry width="290" height="40" as="geometry">
            <mxRectangle width="290" height="40" as="alternateBounds" />
          </mxGeometry>
        </mxCell>
        <mxCell id="5O325MqEOkg0hkSNaYNA-166" value="Веб-приложение Накарабине" style="shape=partialRectangle;html=1;whiteSpace=wrap;connectable=0;top=0;left=0;bottom=1;right=0;overflow=hidden;fontSize=16;align=left;verticalAlign=top;strokeColor=#666666;" parent="5O325MqEOkg0hkSNaYNA-164" vertex="1">
          <mxGeometry x="290" width="580" height="40" as="geometry">
            <mxRectangle width="580" height="40" as="alternateBounds" />
          </mxGeometry>
        </mxCell>
        <mxCell id="5O325MqEOkg0hkSNaYNA-167" style="shape=tableRow;horizontal=0;startSize=0;swimlaneHead=0;swimlaneBody=0;top=0;left=0;bottom=0;right=0;collapsible=0;dropTarget=0;fillColor=none;points=[[0,0.5],[1,0.5]];portConstraint=eastwest;fontSize=29;" parent="5O325MqEOkg0hkSNaYNA-157" vertex="1">
          <mxGeometry y="120" width="870" height="40" as="geometry" />
        </mxCell>
        <mxCell id="5O325MqEOkg0hkSNaYNA-168" value="Основное действующее лицо" style="shape=partialRectangle;html=1;whiteSpace=wrap;connectable=0;fillColor=#f5f5f5;top=0;left=0;bottom=1;right=1;overflow=hidden;fontSize=16;fontColor=#333333;strokeColor=#666666;align=left;fontStyle=1;verticalAlign=top;" parent="5O325MqEOkg0hkSNaYNA-167" vertex="1">
          <mxGeometry width="290" height="40" as="geometry">
            <mxRectangle width="290" height="40" as="alternateBounds" />
          </mxGeometry>
        </mxCell>
        <mxCell id="5O325MqEOkg0hkSNaYNA-169" value="Пользователь" style="shape=partialRectangle;html=1;whiteSpace=wrap;connectable=0;top=0;left=0;bottom=1;right=0;overflow=hidden;fontSize=16;align=left;verticalAlign=top;strokeColor=#666666;" parent="5O325MqEOkg0hkSNaYNA-167" vertex="1">
          <mxGeometry x="290" width="580" height="40" as="geometry">
            <mxRectangle width="580" height="40" as="alternateBounds" />
          </mxGeometry>
        </mxCell>
        <mxCell id="5O325MqEOkg0hkSNaYNA-170" style="shape=tableRow;horizontal=0;startSize=0;swimlaneHead=0;swimlaneBody=0;top=0;left=0;bottom=0;right=0;collapsible=0;dropTarget=0;fillColor=none;points=[[0,0.5],[1,0.5]];portConstraint=eastwest;fontSize=29;" parent="5O325MqEOkg0hkSNaYNA-157" vertex="1">
          <mxGeometry y="160" width="870" height="40" as="geometry" />
        </mxCell>
        <mxCell id="5O325MqEOkg0hkSNaYNA-171" value="Предусловие" style="shape=partialRectangle;html=1;whiteSpace=wrap;connectable=0;fillColor=#f5f5f5;top=0;left=0;bottom=1;right=1;overflow=hidden;fontSize=16;fontColor=#333333;strokeColor=#666666;align=left;fontStyle=1;verticalAlign=top;" parent="5O325MqEOkg0hkSNaYNA-170" vertex="1">
          <mxGeometry width="290" height="40" as="geometry">
            <mxRectangle width="290" height="40" as="alternateBounds" />
          </mxGeometry>
        </mxCell>
        <mxCell id="5O325MqEOkg0hkSNaYNA-172" value="В любой момент при использовании Накарабине" style="shape=partialRectangle;html=1;whiteSpace=wrap;connectable=0;top=0;left=0;bottom=1;right=0;overflow=hidden;fontSize=16;align=left;verticalAlign=top;strokeColor=#666666;" parent="5O325MqEOkg0hkSNaYNA-170" vertex="1">
          <mxGeometry x="290" width="580" height="40" as="geometry">
            <mxRectangle width="580" height="40" as="alternateBounds" />
          </mxGeometry>
        </mxCell>
        <mxCell id="5O325MqEOkg0hkSNaYNA-173" style="shape=tableRow;horizontal=0;startSize=0;swimlaneHead=0;swimlaneBody=0;top=0;left=0;bottom=0;right=0;collapsible=0;dropTarget=0;fillColor=none;points=[[0,0.5],[1,0.5]];portConstraint=eastwest;fontSize=29;" parent="5O325MqEOkg0hkSNaYNA-157" vertex="1">
          <mxGeometry y="200" width="870" height="50" as="geometry" />
        </mxCell>
        <mxCell id="5O325MqEOkg0hkSNaYNA-174" value="Гарантии успеха" style="shape=partialRectangle;html=1;whiteSpace=wrap;connectable=0;fillColor=#f5f5f5;top=0;left=0;bottom=1;right=1;overflow=hidden;fontSize=16;fontColor=#333333;strokeColor=#666666;align=left;fontStyle=1;verticalAlign=top;" parent="5O325MqEOkg0hkSNaYNA-173" vertex="1">
          <mxGeometry width="290" height="50" as="geometry">
            <mxRectangle width="290" height="50" as="alternateBounds" />
          </mxGeometry>
        </mxCell>
        <mxCell id="5O325MqEOkg0hkSNaYNA-175" value="— Регистрация выполнена&lt;br&gt;— Регистрация не выполнена" style="shape=partialRectangle;html=1;whiteSpace=wrap;connectable=0;top=0;left=0;bottom=1;right=0;overflow=hidden;fontSize=16;align=left;verticalAlign=top;strokeColor=#666666;" parent="5O325MqEOkg0hkSNaYNA-173" vertex="1">
          <mxGeometry x="290" width="580" height="50" as="geometry">
            <mxRectangle width="580" height="50" as="alternateBounds" />
          </mxGeometry>
        </mxCell>
        <mxCell id="5O325MqEOkg0hkSNaYNA-176" style="shape=tableRow;horizontal=0;startSize=0;swimlaneHead=0;swimlaneBody=0;top=0;left=0;bottom=0;right=0;collapsible=0;dropTarget=0;fillColor=none;points=[[0,0.5],[1,0.5]];portConstraint=eastwest;fontSize=29;" parent="5O325MqEOkg0hkSNaYNA-157" vertex="1">
          <mxGeometry y="250" width="870" height="40" as="geometry" />
        </mxCell>
        <mxCell id="5O325MqEOkg0hkSNaYNA-177" value="Триггер" style="shape=partialRectangle;html=1;whiteSpace=wrap;connectable=0;fillColor=#f5f5f5;top=0;left=0;bottom=1;right=1;overflow=hidden;fontSize=16;fontColor=#333333;strokeColor=#666666;perimeterSpacing=1;align=left;fontStyle=1;verticalAlign=top;" parent="5O325MqEOkg0hkSNaYNA-176" vertex="1">
          <mxGeometry width="290" height="40" as="geometry">
            <mxRectangle width="290" height="40" as="alternateBounds" />
          </mxGeometry>
        </mxCell>
        <mxCell id="5O325MqEOkg0hkSNaYNA-178" value="Пользователь хочет зарегистрироваться в веб-приложении Накарабине" style="shape=partialRectangle;html=1;whiteSpace=wrap;connectable=0;top=0;left=0;bottom=1;right=0;overflow=hidden;fontSize=16;align=left;verticalAlign=top;strokeColor=#666666;" parent="5O325MqEOkg0hkSNaYNA-176" vertex="1">
          <mxGeometry x="290" width="580" height="40" as="geometry">
            <mxRectangle width="580" height="40" as="alternateBounds" />
          </mxGeometry>
        </mxCell>
        <mxCell id="5O325MqEOkg0hkSNaYNA-179" style="shape=tableRow;horizontal=0;startSize=0;swimlaneHead=0;swimlaneBody=0;top=0;left=0;bottom=0;right=0;collapsible=0;dropTarget=0;fillColor=none;points=[[0,0.5],[1,0.5]];portConstraint=eastwest;fontSize=29;" parent="5O325MqEOkg0hkSNaYNA-157" vertex="1">
          <mxGeometry y="290" width="870" height="190" as="geometry" />
        </mxCell>
        <mxCell id="5O325MqEOkg0hkSNaYNA-180" value="Базовый сценарий" style="shape=partialRectangle;html=1;whiteSpace=wrap;connectable=0;fillColor=#f5f5f5;top=0;left=0;bottom=1;right=1;overflow=hidden;fontSize=16;fontColor=#333333;strokeColor=#666666;perimeterSpacing=1;align=left;fontStyle=1;verticalAlign=top;" parent="5O325MqEOkg0hkSNaYNA-179" vertex="1">
          <mxGeometry width="290" height="190" as="geometry">
            <mxRectangle width="290" height="190" as="alternateBounds" />
          </mxGeometry>
        </mxCell>
        <mxCell id="5O325MqEOkg0hkSNaYNA-181" value="Регистрация выполнена:&lt;br&gt;1. Пользователь использует веб-приложение Накарабине.&lt;br&gt;2. Пользователь выбирает действие регистрации Личного кабинета.&lt;br&gt;3. Пользователь заполняет информацию: логин, пароль, ФИО, e-mail, номер телефона.&lt;br&gt;4. Система проверяет логин на уникальность.&lt;br&gt;5. Система сохраняет введённые данные и создает профиль Пользователя с указанным логином.&lt;br&gt;6. Система выводит сообщение об успешной регистрации." style="shape=partialRectangle;html=1;whiteSpace=wrap;connectable=0;top=0;left=0;bottom=1;right=0;overflow=hidden;fontSize=16;align=left;verticalAlign=top;strokeColor=#666666;" parent="5O325MqEOkg0hkSNaYNA-179" vertex="1">
          <mxGeometry x="290" width="580" height="190" as="geometry">
            <mxRectangle width="580" height="190" as="alternateBounds" />
          </mxGeometry>
        </mxCell>
        <mxCell id="5O325MqEOkg0hkSNaYNA-182" style="shape=tableRow;horizontal=0;startSize=0;swimlaneHead=0;swimlaneBody=0;top=0;left=0;bottom=0;right=0;collapsible=0;dropTarget=0;fillColor=none;points=[[0,0.5],[1,0.5]];portConstraint=eastwest;fontSize=29;" parent="5O325MqEOkg0hkSNaYNA-157" vertex="1">
          <mxGeometry y="480" width="870" height="90" as="geometry" />
        </mxCell>
        <mxCell id="5O325MqEOkg0hkSNaYNA-183" value="Расширения" style="shape=partialRectangle;html=1;whiteSpace=wrap;connectable=0;fillColor=#f5f5f5;top=0;left=0;bottom=1;right=1;overflow=hidden;fontSize=16;fontColor=#333333;strokeColor=#666666;perimeterSpacing=1;align=left;fontStyle=1;verticalAlign=top;" parent="5O325MqEOkg0hkSNaYNA-182" vertex="1">
          <mxGeometry width="290" height="90" as="geometry">
            <mxRectangle width="290" height="90" as="alternateBounds" />
          </mxGeometry>
        </mxCell>
        <mxCell id="5O325MqEOkg0hkSNaYNA-184" value="Регистрация не выполнена:&lt;br&gt;4.а. Система отображает информацию о том, что логин не является уникальным.&lt;br&gt;4.b.  Система переходит на шаг 3 основного сценария" style="shape=partialRectangle;html=1;whiteSpace=wrap;connectable=0;top=0;left=0;bottom=1;right=0;overflow=hidden;fontSize=16;align=left;verticalAlign=top;strokeColor=#666666;" parent="5O325MqEOkg0hkSNaYNA-182" vertex="1">
          <mxGeometry x="290" width="580" height="90" as="geometry">
            <mxRectangle width="580" height="90" as="alternateBounds" />
          </mxGeometry>
        </mxCell>
        <mxCell id="5O325MqEOkg0hkSNaYNA-185" style="shape=tableRow;horizontal=0;startSize=0;swimlaneHead=0;swimlaneBody=0;top=0;left=0;bottom=0;right=0;collapsible=0;dropTarget=0;points=[[0,0.5],[1,0.5]];portConstraint=eastwest;fontSize=29;" parent="5O325MqEOkg0hkSNaYNA-157" vertex="1">
          <mxGeometry y="570" width="870" height="40" as="geometry" />
        </mxCell>
        <mxCell id="5O325MqEOkg0hkSNaYNA-186" value="Изменения в технологии и данных" style="shape=partialRectangle;html=1;whiteSpace=wrap;connectable=0;fillColor=#f5f5f5;top=0;left=0;bottom=0;right=1;overflow=hidden;fontSize=16;fontColor=#333333;strokeColor=#666666;strokeWidth=1;perimeterSpacing=1;align=left;fontStyle=1;verticalAlign=top;" parent="5O325MqEOkg0hkSNaYNA-185" vertex="1">
          <mxGeometry width="290" height="40" as="geometry">
            <mxRectangle width="290" height="40" as="alternateBounds" />
          </mxGeometry>
        </mxCell>
        <mxCell id="5O325MqEOkg0hkSNaYNA-187" value="Использовать хранения данных пользователя&amp;nbsp;" style="shape=partialRectangle;html=1;whiteSpace=wrap;connectable=0;top=0;left=0;bottom=0;right=0;overflow=hidden;fontSize=16;align=left;verticalAlign=top;strokeColor=#666666;" parent="5O325MqEOkg0hkSNaYNA-185" vertex="1">
          <mxGeometry x="290" width="580" height="40" as="geometry">
            <mxRectangle width="580" height="40" as="alternateBounds" />
          </mxGeometry>
        </mxCell>
        <mxCell id="5O325MqEOkg0hkSNaYNA-188" value="" style="shape=table;html=1;whiteSpace=wrap;startSize=0;container=1;collapsible=0;childLayout=tableLayout;fontSize=29;columnLines=1;rowLines=1;swimlaneLine=1;swimlaneFillColor=none;shadow=1;" parent="1" vertex="1">
          <mxGeometry x="3814" y="-991" width="870" height="670.0000000000009" as="geometry" />
        </mxCell>
        <mxCell id="5O325MqEOkg0hkSNaYNA-189" value="" style="shape=tableRow;horizontal=0;startSize=0;swimlaneHead=0;swimlaneBody=0;top=0;left=0;bottom=0;right=0;collapsible=0;dropTarget=0;fillColor=none;points=[[0,0.5],[1,0.5]];portConstraint=eastwest;fontSize=29;" parent="5O325MqEOkg0hkSNaYNA-188" vertex="1">
          <mxGeometry width="870" height="40" as="geometry" />
        </mxCell>
        <mxCell id="5O325MqEOkg0hkSNaYNA-190" value="&lt;font style=&quot;font-size: 18px;&quot;&gt;Уникальный код и название&lt;/font&gt;" style="shape=partialRectangle;html=1;whiteSpace=wrap;connectable=0;fillColor=#f5f5f5;top=0;left=0;bottom=1;right=1;overflow=hidden;fontSize=29;align=left;fontStyle=1;fontColor=#333333;strokeColor=#666666;labelBorderColor=none;verticalAlign=middle;" parent="5O325MqEOkg0hkSNaYNA-189" vertex="1">
          <mxGeometry width="290" height="40" as="geometry">
            <mxRectangle width="290" height="40" as="alternateBounds" />
          </mxGeometry>
        </mxCell>
        <mxCell id="5O325MqEOkg0hkSNaYNA-191" value="&lt;font style=&quot;font-size: 18px;&quot;&gt;ВИ-6: Авторизоваться в Личном кабинете&lt;/font&gt;" style="shape=partialRectangle;html=1;whiteSpace=wrap;connectable=0;fillColor=#f5f5f5;top=0;left=0;bottom=1;right=0;overflow=hidden;fontSize=29;fontStyle=1;align=left;fontColor=#333333;strokeColor=#000000;verticalAlign=middle;" parent="5O325MqEOkg0hkSNaYNA-189" vertex="1">
          <mxGeometry x="290" width="580" height="40" as="geometry">
            <mxRectangle width="580" height="40" as="alternateBounds" />
          </mxGeometry>
        </mxCell>
        <mxCell id="5O325MqEOkg0hkSNaYNA-192" value="" style="shape=tableRow;horizontal=0;startSize=0;swimlaneHead=0;swimlaneBody=0;top=0;left=0;bottom=0;right=0;collapsible=0;dropTarget=0;fillColor=none;points=[[0,0.5],[1,0.5]];portConstraint=eastwest;fontSize=29;" parent="5O325MqEOkg0hkSNaYNA-188" vertex="1">
          <mxGeometry y="40" width="870" height="40" as="geometry" />
        </mxCell>
        <mxCell id="5O325MqEOkg0hkSNaYNA-193" value="&lt;font style=&quot;font-size: 16px;&quot;&gt;Контекст использования&lt;/font&gt;" style="shape=partialRectangle;html=1;whiteSpace=wrap;connectable=0;fillColor=#f5f5f5;top=0;left=0;bottom=1;right=1;overflow=hidden;fontSize=16;fontColor=#333333;strokeColor=#666666;perimeterSpacing=4;align=left;fontStyle=1;verticalAlign=top;" parent="5O325MqEOkg0hkSNaYNA-192" vertex="1">
          <mxGeometry width="290" height="40" as="geometry">
            <mxRectangle width="290" height="40" as="alternateBounds" />
          </mxGeometry>
        </mxCell>
        <mxCell id="5O325MqEOkg0hkSNaYNA-194" value="Авторизация в веб-приложении Накарабине" style="shape=partialRectangle;html=1;whiteSpace=wrap;connectable=0;top=0;left=0;bottom=1;right=0;overflow=hidden;fontSize=16;align=left;verticalAlign=top;" parent="5O325MqEOkg0hkSNaYNA-192" vertex="1">
          <mxGeometry x="290" width="580" height="40" as="geometry">
            <mxRectangle width="580" height="40" as="alternateBounds" />
          </mxGeometry>
        </mxCell>
        <mxCell id="5O325MqEOkg0hkSNaYNA-195" value="" style="shape=tableRow;horizontal=0;startSize=0;swimlaneHead=0;swimlaneBody=0;top=0;left=0;bottom=0;right=0;collapsible=0;dropTarget=0;fillColor=none;points=[[0,0.5],[1,0.5]];portConstraint=eastwest;fontSize=29;" parent="5O325MqEOkg0hkSNaYNA-188" vertex="1">
          <mxGeometry y="80" width="870" height="40" as="geometry" />
        </mxCell>
        <mxCell id="5O325MqEOkg0hkSNaYNA-196" value="&lt;font style=&quot;font-size: 16px;&quot;&gt;Область действия&lt;/font&gt;" style="shape=partialRectangle;html=1;whiteSpace=wrap;connectable=0;fillColor=#f5f5f5;top=0;left=0;bottom=1;right=1;overflow=hidden;fontSize=16;fontColor=#333333;strokeColor=#666666;align=left;fontStyle=1;verticalAlign=top;" parent="5O325MqEOkg0hkSNaYNA-195" vertex="1">
          <mxGeometry width="290" height="40" as="geometry">
            <mxRectangle width="290" height="40" as="alternateBounds" />
          </mxGeometry>
        </mxCell>
        <mxCell id="5O325MqEOkg0hkSNaYNA-197" value="Веб-приложение Накарабине" style="shape=partialRectangle;html=1;whiteSpace=wrap;connectable=0;top=0;left=0;bottom=1;right=0;overflow=hidden;fontSize=16;align=left;verticalAlign=top;" parent="5O325MqEOkg0hkSNaYNA-195" vertex="1">
          <mxGeometry x="290" width="580" height="40" as="geometry">
            <mxRectangle width="580" height="40" as="alternateBounds" />
          </mxGeometry>
        </mxCell>
        <mxCell id="5O325MqEOkg0hkSNaYNA-198" style="shape=tableRow;horizontal=0;startSize=0;swimlaneHead=0;swimlaneBody=0;top=0;left=0;bottom=0;right=0;collapsible=0;dropTarget=0;fillColor=none;points=[[0,0.5],[1,0.5]];portConstraint=eastwest;fontSize=29;" parent="5O325MqEOkg0hkSNaYNA-188" vertex="1">
          <mxGeometry y="120" width="870" height="40" as="geometry" />
        </mxCell>
        <mxCell id="5O325MqEOkg0hkSNaYNA-199" value="Основное действующее лицо" style="shape=partialRectangle;html=1;whiteSpace=wrap;connectable=0;fillColor=#f5f5f5;top=0;left=0;bottom=1;right=1;overflow=hidden;fontSize=16;fontColor=#333333;strokeColor=#666666;align=left;fontStyle=1;verticalAlign=top;" parent="5O325MqEOkg0hkSNaYNA-198" vertex="1">
          <mxGeometry width="290" height="40" as="geometry">
            <mxRectangle width="290" height="40" as="alternateBounds" />
          </mxGeometry>
        </mxCell>
        <mxCell id="5O325MqEOkg0hkSNaYNA-200" value="Пользователь" style="shape=partialRectangle;html=1;whiteSpace=wrap;connectable=0;top=0;left=0;bottom=1;right=0;overflow=hidden;fontSize=16;align=left;verticalAlign=top;" parent="5O325MqEOkg0hkSNaYNA-198" vertex="1">
          <mxGeometry x="290" width="580" height="40" as="geometry">
            <mxRectangle width="580" height="40" as="alternateBounds" />
          </mxGeometry>
        </mxCell>
        <mxCell id="5O325MqEOkg0hkSNaYNA-201" style="shape=tableRow;horizontal=0;startSize=0;swimlaneHead=0;swimlaneBody=0;top=0;left=0;bottom=0;right=0;collapsible=0;dropTarget=0;fillColor=none;points=[[0,0.5],[1,0.5]];portConstraint=eastwest;fontSize=29;" parent="5O325MqEOkg0hkSNaYNA-188" vertex="1">
          <mxGeometry y="160" width="870" height="70" as="geometry" />
        </mxCell>
        <mxCell id="5O325MqEOkg0hkSNaYNA-202" value="Предусловие" style="shape=partialRectangle;html=1;whiteSpace=wrap;connectable=0;fillColor=#f5f5f5;top=0;left=0;bottom=1;right=1;overflow=hidden;fontSize=16;fontColor=#333333;strokeColor=#666666;align=left;fontStyle=1;verticalAlign=top;" parent="5O325MqEOkg0hkSNaYNA-201" vertex="1">
          <mxGeometry width="290" height="70" as="geometry">
            <mxRectangle width="290" height="70" as="alternateBounds" />
          </mxGeometry>
        </mxCell>
        <mxCell id="5O325MqEOkg0hkSNaYNA-203" value="1. В любой момент при использовании веб-приложения Накарабине.&lt;br&gt;2. Пользователь ранее успешно выполнил сценарий «Зарегистрироваться в Личном кабинете»." style="shape=partialRectangle;html=1;whiteSpace=wrap;connectable=0;top=0;left=0;bottom=1;right=0;overflow=hidden;fontSize=16;align=left;verticalAlign=top;" parent="5O325MqEOkg0hkSNaYNA-201" vertex="1">
          <mxGeometry x="290" width="580" height="70" as="geometry">
            <mxRectangle width="580" height="70" as="alternateBounds" />
          </mxGeometry>
        </mxCell>
        <mxCell id="5O325MqEOkg0hkSNaYNA-204" style="shape=tableRow;horizontal=0;startSize=0;swimlaneHead=0;swimlaneBody=0;top=0;left=0;bottom=0;right=0;collapsible=0;dropTarget=0;fillColor=none;points=[[0,0.5],[1,0.5]];portConstraint=eastwest;fontSize=29;" parent="5O325MqEOkg0hkSNaYNA-188" vertex="1">
          <mxGeometry y="230" width="870" height="50" as="geometry" />
        </mxCell>
        <mxCell id="5O325MqEOkg0hkSNaYNA-205" value="Гарантии успеха" style="shape=partialRectangle;html=1;whiteSpace=wrap;connectable=0;fillColor=#f5f5f5;top=0;left=0;bottom=1;right=1;overflow=hidden;fontSize=16;fontColor=#333333;strokeColor=#666666;align=left;fontStyle=1;verticalAlign=top;" parent="5O325MqEOkg0hkSNaYNA-204" vertex="1">
          <mxGeometry width="290" height="50" as="geometry">
            <mxRectangle width="290" height="50" as="alternateBounds" />
          </mxGeometry>
        </mxCell>
        <mxCell id="5O325MqEOkg0hkSNaYNA-206" value="— Авторизация выполнена&lt;br&gt;— Авторизация не выполнена" style="shape=partialRectangle;html=1;whiteSpace=wrap;connectable=0;top=0;left=0;bottom=1;right=0;overflow=hidden;fontSize=16;align=left;verticalAlign=top;" parent="5O325MqEOkg0hkSNaYNA-204" vertex="1">
          <mxGeometry x="290" width="580" height="50" as="geometry">
            <mxRectangle width="580" height="50" as="alternateBounds" />
          </mxGeometry>
        </mxCell>
        <mxCell id="5O325MqEOkg0hkSNaYNA-207" style="shape=tableRow;horizontal=0;startSize=0;swimlaneHead=0;swimlaneBody=0;top=0;left=0;bottom=0;right=0;collapsible=0;dropTarget=0;fillColor=none;points=[[0,0.5],[1,0.5]];portConstraint=eastwest;fontSize=29;" parent="5O325MqEOkg0hkSNaYNA-188" vertex="1">
          <mxGeometry y="280" width="870" height="40" as="geometry" />
        </mxCell>
        <mxCell id="5O325MqEOkg0hkSNaYNA-208" value="Триггер" style="shape=partialRectangle;html=1;whiteSpace=wrap;connectable=0;fillColor=#f5f5f5;top=0;left=0;bottom=1;right=1;overflow=hidden;fontSize=16;fontColor=#333333;strokeColor=#666666;perimeterSpacing=1;align=left;fontStyle=1;verticalAlign=top;" parent="5O325MqEOkg0hkSNaYNA-207" vertex="1">
          <mxGeometry width="290" height="40" as="geometry">
            <mxRectangle width="290" height="40" as="alternateBounds" />
          </mxGeometry>
        </mxCell>
        <mxCell id="5O325MqEOkg0hkSNaYNA-209" value="Пользователь хочет авторизоваться в веб-приложении Накарабине" style="shape=partialRectangle;html=1;whiteSpace=wrap;connectable=0;top=0;left=0;bottom=1;right=0;overflow=hidden;fontSize=16;align=left;verticalAlign=top;" parent="5O325MqEOkg0hkSNaYNA-207" vertex="1">
          <mxGeometry x="290" width="580" height="40" as="geometry">
            <mxRectangle width="580" height="40" as="alternateBounds" />
          </mxGeometry>
        </mxCell>
        <mxCell id="5O325MqEOkg0hkSNaYNA-210" style="shape=tableRow;horizontal=0;startSize=0;swimlaneHead=0;swimlaneBody=0;top=0;left=0;bottom=0;right=0;collapsible=0;dropTarget=0;fillColor=none;points=[[0,0.5],[1,0.5]];portConstraint=eastwest;fontSize=29;" parent="5O325MqEOkg0hkSNaYNA-188" vertex="1">
          <mxGeometry y="320" width="870" height="150" as="geometry" />
        </mxCell>
        <mxCell id="5O325MqEOkg0hkSNaYNA-211" value="Базовый сценарий" style="shape=partialRectangle;html=1;whiteSpace=wrap;connectable=0;fillColor=#f5f5f5;top=0;left=0;bottom=1;right=1;overflow=hidden;fontSize=16;fontColor=#333333;strokeColor=#666666;perimeterSpacing=1;align=left;fontStyle=1;verticalAlign=top;" parent="5O325MqEOkg0hkSNaYNA-210" vertex="1">
          <mxGeometry width="290" height="150" as="geometry">
            <mxRectangle width="290" height="150" as="alternateBounds" />
          </mxGeometry>
        </mxCell>
        <mxCell id="5O325MqEOkg0hkSNaYNA-212" value="Авторизация выполнена:&lt;br&gt;1. Пользователь использует веб-приложение Накарабине.&lt;br&gt;2. Пользователь выбирает действие авторизоваться в Личном кабинете.&lt;br&gt;3. Пользователь заполняет информацию: логин, пароль.&lt;br&gt;4. Система проверяет, что введенный логин существует в системе.&amp;nbsp;&lt;br&gt;5. Система проверяет соответствие введенных логина и пароля.&lt;br&gt;6. Система выводит сообщение об успешной авторизации." style="shape=partialRectangle;html=1;whiteSpace=wrap;connectable=0;top=0;left=0;bottom=1;right=0;overflow=hidden;fontSize=16;align=left;verticalAlign=top;shadow=0;" parent="5O325MqEOkg0hkSNaYNA-210" vertex="1">
          <mxGeometry x="290" width="580" height="150" as="geometry">
            <mxRectangle width="580" height="150" as="alternateBounds" />
          </mxGeometry>
        </mxCell>
        <mxCell id="5O325MqEOkg0hkSNaYNA-213" style="shape=tableRow;horizontal=0;startSize=0;swimlaneHead=0;swimlaneBody=0;top=0;left=0;bottom=0;right=0;collapsible=0;dropTarget=0;fillColor=none;points=[[0,0.5],[1,0.5]];portConstraint=eastwest;fontSize=29;" parent="5O325MqEOkg0hkSNaYNA-188" vertex="1">
          <mxGeometry y="470" width="870" height="160" as="geometry" />
        </mxCell>
        <mxCell id="5O325MqEOkg0hkSNaYNA-214" value="Расширения" style="shape=partialRectangle;html=1;whiteSpace=wrap;connectable=0;fillColor=#f5f5f5;top=0;left=0;bottom=1;right=1;overflow=hidden;fontSize=16;fontColor=#333333;strokeColor=#666666;perimeterSpacing=1;align=left;fontStyle=1;verticalAlign=top;" parent="5O325MqEOkg0hkSNaYNA-213" vertex="1">
          <mxGeometry width="290" height="160" as="geometry">
            <mxRectangle width="290" height="160" as="alternateBounds" />
          </mxGeometry>
        </mxCell>
        <mxCell id="5O325MqEOkg0hkSNaYNA-215" value="Пользователя не существует в системе:&lt;br&gt;4.а. Система отображает информацию о том, что Пользователь с таким логином не найден.&lt;br&gt;4.b.  Система переходит на шаг 3 основного сценария.&lt;br&gt;&lt;br&gt;Неверный пароль:&lt;br&gt;5.a. Система отображает, что пароль неверный.&lt;br&gt;5.b. Система переходит на шаг 3 основного сценария." style="shape=partialRectangle;html=1;whiteSpace=wrap;connectable=0;top=0;left=0;bottom=1;right=0;overflow=hidden;fontSize=16;align=left;verticalAlign=top;" parent="5O325MqEOkg0hkSNaYNA-213" vertex="1">
          <mxGeometry x="290" width="580" height="160" as="geometry">
            <mxRectangle width="580" height="160" as="alternateBounds" />
          </mxGeometry>
        </mxCell>
        <mxCell id="5O325MqEOkg0hkSNaYNA-216" style="shape=tableRow;horizontal=0;startSize=0;swimlaneHead=0;swimlaneBody=0;top=0;left=0;bottom=0;right=0;collapsible=0;dropTarget=0;points=[[0,0.5],[1,0.5]];portConstraint=eastwest;fontSize=29;" parent="5O325MqEOkg0hkSNaYNA-188" vertex="1">
          <mxGeometry y="630" width="870" height="40" as="geometry" />
        </mxCell>
        <mxCell id="5O325MqEOkg0hkSNaYNA-217" value="Изменения в технологии и данных" style="shape=partialRectangle;html=1;whiteSpace=wrap;connectable=0;fillColor=#f5f5f5;top=0;left=0;bottom=0;right=1;overflow=hidden;fontSize=16;fontColor=#333333;strokeColor=#000000;strokeWidth=1;perimeterSpacing=1;align=left;fontStyle=1;verticalAlign=top;" parent="5O325MqEOkg0hkSNaYNA-216" vertex="1">
          <mxGeometry width="290" height="40" as="geometry">
            <mxRectangle width="290" height="40" as="alternateBounds" />
          </mxGeometry>
        </mxCell>
        <mxCell id="5O325MqEOkg0hkSNaYNA-218" value="Использовать хранения данных пользователя&amp;nbsp;" style="shape=partialRectangle;html=1;whiteSpace=wrap;connectable=0;top=0;left=0;bottom=0;right=0;overflow=hidden;fontSize=16;align=left;verticalAlign=top;" parent="5O325MqEOkg0hkSNaYNA-216" vertex="1">
          <mxGeometry x="290" width="580" height="40" as="geometry">
            <mxRectangle width="580" height="40" as="alternateBounds" />
          </mxGeometry>
        </mxCell>
        <mxCell id="5O325MqEOkg0hkSNaYNA-219" value="" style="shape=table;html=1;whiteSpace=wrap;startSize=0;container=1;collapsible=0;childLayout=tableLayout;fontSize=29;columnLines=1;rowLines=1;swimlaneLine=1;swimlaneFillColor=none;strokeWidth=2;strokeColor=#666666;shadow=1;" parent="1" vertex="1">
          <mxGeometry x="3814" y="-301" width="870" height="390.0000000000009" as="geometry" />
        </mxCell>
        <mxCell id="5O325MqEOkg0hkSNaYNA-220" value="" style="shape=tableRow;horizontal=0;startSize=0;swimlaneHead=0;swimlaneBody=0;top=0;left=0;bottom=0;right=0;collapsible=0;dropTarget=0;fillColor=none;points=[[0,0.5],[1,0.5]];portConstraint=eastwest;fontSize=29;" parent="5O325MqEOkg0hkSNaYNA-219" vertex="1">
          <mxGeometry width="870" height="40" as="geometry" />
        </mxCell>
        <mxCell id="5O325MqEOkg0hkSNaYNA-221" value="&lt;font style=&quot;font-size: 18px;&quot;&gt;Уникальный код и название&lt;/font&gt;" style="shape=partialRectangle;html=1;whiteSpace=wrap;connectable=0;fillColor=#f5f5f5;top=0;left=0;bottom=1;right=0;overflow=hidden;fontSize=29;align=left;fontStyle=1;fontColor=#333333;strokeColor=#666666;labelBorderColor=none;" parent="5O325MqEOkg0hkSNaYNA-220" vertex="1">
          <mxGeometry width="290" height="40" as="geometry">
            <mxRectangle width="290" height="40" as="alternateBounds" />
          </mxGeometry>
        </mxCell>
        <mxCell id="5O325MqEOkg0hkSNaYNA-222" value="&lt;font style=&quot;font-size: 18px;&quot;&gt;ВИ-7: Посмотреть профиль в Личном кабинете&lt;/font&gt;" style="shape=partialRectangle;html=1;whiteSpace=wrap;connectable=0;fillColor=#f5f5f5;top=0;left=0;bottom=1;right=0;overflow=hidden;fontSize=29;fontStyle=1;align=left;fontColor=#333333;strokeColor=#666666;" parent="5O325MqEOkg0hkSNaYNA-220" vertex="1">
          <mxGeometry x="290" width="580" height="40" as="geometry">
            <mxRectangle width="580" height="40" as="alternateBounds" />
          </mxGeometry>
        </mxCell>
        <mxCell id="5O325MqEOkg0hkSNaYNA-223" value="" style="shape=tableRow;horizontal=0;startSize=0;swimlaneHead=0;swimlaneBody=0;top=0;left=0;bottom=0;right=0;collapsible=0;dropTarget=0;fillColor=none;points=[[0,0.5],[1,0.5]];portConstraint=eastwest;fontSize=29;" parent="5O325MqEOkg0hkSNaYNA-219" vertex="1">
          <mxGeometry y="40" width="870" height="40" as="geometry" />
        </mxCell>
        <mxCell id="5O325MqEOkg0hkSNaYNA-224" value="&lt;font style=&quot;font-size: 16px;&quot;&gt;Контекст использования&lt;/font&gt;" style="shape=partialRectangle;html=1;whiteSpace=wrap;connectable=0;fillColor=#f5f5f5;top=0;left=0;bottom=1;right=1;overflow=hidden;fontSize=16;fontColor=#333333;strokeColor=#666666;perimeterSpacing=4;align=left;fontStyle=1;verticalAlign=top;" parent="5O325MqEOkg0hkSNaYNA-223" vertex="1">
          <mxGeometry width="290" height="40" as="geometry">
            <mxRectangle width="290" height="40" as="alternateBounds" />
          </mxGeometry>
        </mxCell>
        <mxCell id="5O325MqEOkg0hkSNaYNA-225" value="Просмотр данных о Пользователе в Личном кабинете" style="shape=partialRectangle;html=1;whiteSpace=wrap;connectable=0;top=0;left=0;bottom=1;right=0;overflow=hidden;fontSize=16;align=left;strokeColor=#666666;verticalAlign=top;" parent="5O325MqEOkg0hkSNaYNA-223" vertex="1">
          <mxGeometry x="290" width="580" height="40" as="geometry">
            <mxRectangle width="580" height="40" as="alternateBounds" />
          </mxGeometry>
        </mxCell>
        <mxCell id="5O325MqEOkg0hkSNaYNA-226" value="" style="shape=tableRow;horizontal=0;startSize=0;swimlaneHead=0;swimlaneBody=0;top=0;left=0;bottom=0;right=0;collapsible=0;dropTarget=0;fillColor=none;points=[[0,0.5],[1,0.5]];portConstraint=eastwest;fontSize=29;" parent="5O325MqEOkg0hkSNaYNA-219" vertex="1">
          <mxGeometry y="80" width="870" height="40" as="geometry" />
        </mxCell>
        <mxCell id="5O325MqEOkg0hkSNaYNA-227" value="&lt;font style=&quot;font-size: 16px;&quot;&gt;Область действия&lt;/font&gt;" style="shape=partialRectangle;html=1;whiteSpace=wrap;connectable=0;fillColor=#f5f5f5;top=0;left=0;bottom=1;right=1;overflow=hidden;fontSize=16;fontColor=#333333;strokeColor=#666666;align=left;fontStyle=1;verticalAlign=top;" parent="5O325MqEOkg0hkSNaYNA-226" vertex="1">
          <mxGeometry width="290" height="40" as="geometry">
            <mxRectangle width="290" height="40" as="alternateBounds" />
          </mxGeometry>
        </mxCell>
        <mxCell id="5O325MqEOkg0hkSNaYNA-228" value="Веб-приложение Накарабине" style="shape=partialRectangle;html=1;whiteSpace=wrap;connectable=0;top=0;left=0;bottom=1;right=0;overflow=hidden;fontSize=16;align=left;strokeColor=#666666;verticalAlign=top;" parent="5O325MqEOkg0hkSNaYNA-226" vertex="1">
          <mxGeometry x="290" width="580" height="40" as="geometry">
            <mxRectangle width="580" height="40" as="alternateBounds" />
          </mxGeometry>
        </mxCell>
        <mxCell id="5O325MqEOkg0hkSNaYNA-229" style="shape=tableRow;horizontal=0;startSize=0;swimlaneHead=0;swimlaneBody=0;top=0;left=0;bottom=0;right=0;collapsible=0;dropTarget=0;fillColor=none;points=[[0,0.5],[1,0.5]];portConstraint=eastwest;fontSize=29;" parent="5O325MqEOkg0hkSNaYNA-219" vertex="1">
          <mxGeometry y="120" width="870" height="40" as="geometry" />
        </mxCell>
        <mxCell id="5O325MqEOkg0hkSNaYNA-230" value="Основное действующее лицо" style="shape=partialRectangle;html=1;whiteSpace=wrap;connectable=0;fillColor=#f5f5f5;top=0;left=0;bottom=1;right=1;overflow=hidden;fontSize=16;fontColor=#333333;strokeColor=#666666;align=left;fontStyle=1;verticalAlign=top;" parent="5O325MqEOkg0hkSNaYNA-229" vertex="1">
          <mxGeometry width="290" height="40" as="geometry">
            <mxRectangle width="290" height="40" as="alternateBounds" />
          </mxGeometry>
        </mxCell>
        <mxCell id="5O325MqEOkg0hkSNaYNA-231" value="Пользователь" style="shape=partialRectangle;html=1;whiteSpace=wrap;connectable=0;top=0;left=0;bottom=1;right=0;overflow=hidden;fontSize=16;align=left;strokeColor=#666666;verticalAlign=top;" parent="5O325MqEOkg0hkSNaYNA-229" vertex="1">
          <mxGeometry x="290" width="580" height="40" as="geometry">
            <mxRectangle width="580" height="40" as="alternateBounds" />
          </mxGeometry>
        </mxCell>
        <mxCell id="5O325MqEOkg0hkSNaYNA-232" style="shape=tableRow;horizontal=0;startSize=0;swimlaneHead=0;swimlaneBody=0;top=0;left=0;bottom=0;right=0;collapsible=0;dropTarget=0;fillColor=none;points=[[0,0.5],[1,0.5]];portConstraint=eastwest;fontSize=29;" parent="5O325MqEOkg0hkSNaYNA-219" vertex="1">
          <mxGeometry y="160" width="870" height="40" as="geometry" />
        </mxCell>
        <mxCell id="5O325MqEOkg0hkSNaYNA-233" value="Предусловие" style="shape=partialRectangle;html=1;whiteSpace=wrap;connectable=0;fillColor=#f5f5f5;top=0;left=0;bottom=1;right=1;overflow=hidden;fontSize=16;fontColor=#333333;strokeColor=#666666;align=left;fontStyle=1;verticalAlign=top;" parent="5O325MqEOkg0hkSNaYNA-232" vertex="1">
          <mxGeometry width="290" height="40" as="geometry">
            <mxRectangle width="290" height="40" as="alternateBounds" />
          </mxGeometry>
        </mxCell>
        <mxCell id="5O325MqEOkg0hkSNaYNA-234" value="Успешно выполнен сценарий «Авторизоваться в Личном кабинете»" style="shape=partialRectangle;html=1;whiteSpace=wrap;connectable=0;top=0;left=0;bottom=1;right=0;overflow=hidden;fontSize=16;align=left;strokeColor=#666666;verticalAlign=top;" parent="5O325MqEOkg0hkSNaYNA-232" vertex="1">
          <mxGeometry x="290" width="580" height="40" as="geometry">
            <mxRectangle width="580" height="40" as="alternateBounds" />
          </mxGeometry>
        </mxCell>
        <mxCell id="5O325MqEOkg0hkSNaYNA-235" style="shape=tableRow;horizontal=0;startSize=0;swimlaneHead=0;swimlaneBody=0;top=0;left=0;bottom=0;right=0;collapsible=0;dropTarget=0;fillColor=none;points=[[0,0.5],[1,0.5]];portConstraint=eastwest;fontSize=29;" parent="5O325MqEOkg0hkSNaYNA-219" vertex="1">
          <mxGeometry y="200" width="870" height="40" as="geometry" />
        </mxCell>
        <mxCell id="5O325MqEOkg0hkSNaYNA-236" value="Гарантии успеха" style="shape=partialRectangle;html=1;whiteSpace=wrap;connectable=0;fillColor=#f5f5f5;top=0;left=0;bottom=1;right=1;overflow=hidden;fontSize=16;fontColor=#333333;strokeColor=#666666;align=left;fontStyle=1;verticalAlign=top;" parent="5O325MqEOkg0hkSNaYNA-235" vertex="1">
          <mxGeometry width="290" height="40" as="geometry">
            <mxRectangle width="290" height="40" as="alternateBounds" />
          </mxGeometry>
        </mxCell>
        <mxCell id="5O325MqEOkg0hkSNaYNA-237" value="Профиль Пользователя просмотрен" style="shape=partialRectangle;html=1;whiteSpace=wrap;connectable=0;top=0;left=0;bottom=1;right=0;overflow=hidden;fontSize=16;align=left;strokeColor=#666666;verticalAlign=top;" parent="5O325MqEOkg0hkSNaYNA-235" vertex="1">
          <mxGeometry x="290" width="580" height="40" as="geometry">
            <mxRectangle width="580" height="40" as="alternateBounds" />
          </mxGeometry>
        </mxCell>
        <mxCell id="5O325MqEOkg0hkSNaYNA-238" style="shape=tableRow;horizontal=0;startSize=0;swimlaneHead=0;swimlaneBody=0;top=0;left=0;bottom=0;right=0;collapsible=0;dropTarget=0;fillColor=none;points=[[0,0.5],[1,0.5]];portConstraint=eastwest;fontSize=29;" parent="5O325MqEOkg0hkSNaYNA-219" vertex="1">
          <mxGeometry y="240" width="870" height="40" as="geometry" />
        </mxCell>
        <mxCell id="5O325MqEOkg0hkSNaYNA-239" value="Триггер" style="shape=partialRectangle;html=1;whiteSpace=wrap;connectable=0;fillColor=#f5f5f5;top=0;left=0;bottom=1;right=1;overflow=hidden;fontSize=16;fontColor=#333333;strokeColor=#666666;perimeterSpacing=1;align=left;fontStyle=1;verticalAlign=top;" parent="5O325MqEOkg0hkSNaYNA-238" vertex="1">
          <mxGeometry width="290" height="40" as="geometry">
            <mxRectangle width="290" height="40" as="alternateBounds" />
          </mxGeometry>
        </mxCell>
        <mxCell id="5O325MqEOkg0hkSNaYNA-240" value="Пользователь хочет посмотреть свой профиль" style="shape=partialRectangle;html=1;whiteSpace=wrap;connectable=0;top=0;left=0;bottom=1;right=0;overflow=hidden;fontSize=16;align=left;strokeColor=#666666;verticalAlign=top;" parent="5O325MqEOkg0hkSNaYNA-238" vertex="1">
          <mxGeometry x="290" width="580" height="40" as="geometry">
            <mxRectangle width="580" height="40" as="alternateBounds" />
          </mxGeometry>
        </mxCell>
        <mxCell id="5O325MqEOkg0hkSNaYNA-241" style="shape=tableRow;horizontal=0;startSize=0;swimlaneHead=0;swimlaneBody=0;top=0;left=0;bottom=0;right=0;collapsible=0;dropTarget=0;fillColor=none;points=[[0,0.5],[1,0.5]];portConstraint=eastwest;fontSize=29;" parent="5O325MqEOkg0hkSNaYNA-219" vertex="1">
          <mxGeometry y="280" width="870" height="70" as="geometry" />
        </mxCell>
        <mxCell id="5O325MqEOkg0hkSNaYNA-242" value="Базовый сценарий" style="shape=partialRectangle;html=1;whiteSpace=wrap;connectable=0;fillColor=#f5f5f5;top=0;left=0;bottom=1;right=1;overflow=hidden;fontSize=16;fontColor=#333333;strokeColor=#666666;perimeterSpacing=1;align=left;fontStyle=1;verticalAlign=top;" parent="5O325MqEOkg0hkSNaYNA-241" vertex="1">
          <mxGeometry width="290" height="70" as="geometry">
            <mxRectangle width="290" height="70" as="alternateBounds" />
          </mxGeometry>
        </mxCell>
        <mxCell id="5O325MqEOkg0hkSNaYNA-243" value="Просмотр профиля&lt;br&gt;1. Пользователь просматривает информацию своего профиля в Личном кабинете" style="shape=partialRectangle;html=1;whiteSpace=wrap;connectable=0;top=0;left=0;bottom=1;right=0;overflow=hidden;fontSize=16;align=left;strokeColor=#666666;verticalAlign=top;" parent="5O325MqEOkg0hkSNaYNA-241" vertex="1">
          <mxGeometry x="290" width="580" height="70" as="geometry">
            <mxRectangle width="580" height="70" as="alternateBounds" />
          </mxGeometry>
        </mxCell>
        <mxCell id="5O325MqEOkg0hkSNaYNA-244" style="shape=tableRow;horizontal=0;startSize=0;swimlaneHead=0;swimlaneBody=0;top=0;left=0;bottom=0;right=0;collapsible=0;dropTarget=0;points=[[0,0.5],[1,0.5]];portConstraint=eastwest;fontSize=29;" parent="5O325MqEOkg0hkSNaYNA-219" vertex="1">
          <mxGeometry y="350" width="870" height="40" as="geometry" />
        </mxCell>
        <mxCell id="5O325MqEOkg0hkSNaYNA-245" value="Изменения в технологии и данных" style="shape=partialRectangle;html=1;whiteSpace=wrap;connectable=0;fillColor=#f5f5f5;top=0;left=0;bottom=0;right=1;overflow=hidden;fontSize=16;fontColor=#333333;strokeColor=#666666;strokeWidth=1;perimeterSpacing=1;align=left;fontStyle=1;verticalAlign=top;" parent="5O325MqEOkg0hkSNaYNA-244" vertex="1">
          <mxGeometry width="290" height="40" as="geometry">
            <mxRectangle width="290" height="40" as="alternateBounds" />
          </mxGeometry>
        </mxCell>
        <mxCell id="5O325MqEOkg0hkSNaYNA-246" value="Использовать хранения данных пользователя&amp;nbsp;" style="shape=partialRectangle;html=1;whiteSpace=wrap;connectable=0;top=0;left=0;bottom=0;right=0;overflow=hidden;fontSize=16;align=left;verticalAlign=top;" parent="5O325MqEOkg0hkSNaYNA-244" vertex="1">
          <mxGeometry x="290" width="580" height="40" as="geometry">
            <mxRectangle width="580" height="40" as="alternateBounds" />
          </mxGeometry>
        </mxCell>
        <mxCell id="5O325MqEOkg0hkSNaYNA-247" value="" style="shape=table;html=1;whiteSpace=wrap;startSize=0;container=1;collapsible=0;childLayout=tableLayout;fontSize=29;columnLines=1;rowLines=1;swimlaneLine=1;swimlaneFillColor=none;strokeColor=#666666;strokeWidth=2;shadow=1;" parent="1" vertex="1">
          <mxGeometry x="3814" y="114" width="870" height="480.0000000000009" as="geometry" />
        </mxCell>
        <mxCell id="5O325MqEOkg0hkSNaYNA-248" value="" style="shape=tableRow;horizontal=0;startSize=0;swimlaneHead=0;swimlaneBody=0;top=0;left=0;bottom=0;right=0;collapsible=0;dropTarget=0;fillColor=none;points=[[0,0.5],[1,0.5]];portConstraint=eastwest;fontSize=29;" parent="5O325MqEOkg0hkSNaYNA-247" vertex="1">
          <mxGeometry width="870" height="40" as="geometry" />
        </mxCell>
        <mxCell id="5O325MqEOkg0hkSNaYNA-249" value="&lt;font style=&quot;font-size: 18px;&quot;&gt;Уникальный код и название&lt;/font&gt;" style="shape=partialRectangle;html=1;whiteSpace=wrap;connectable=0;fillColor=#f5f5f5;top=0;left=0;bottom=1;right=1;overflow=hidden;fontSize=29;align=left;fontStyle=1;fontColor=#333333;strokeColor=#666666;labelBorderColor=none;" parent="5O325MqEOkg0hkSNaYNA-248" vertex="1">
          <mxGeometry width="290" height="40" as="geometry">
            <mxRectangle width="290" height="40" as="alternateBounds" />
          </mxGeometry>
        </mxCell>
        <mxCell id="5O325MqEOkg0hkSNaYNA-250" value="&lt;font style=&quot;font-size: 18px;&quot;&gt;ВИ-8: Отредактировать профиль в Личном&amp;nbsp;&lt;/font&gt;" style="shape=partialRectangle;html=1;whiteSpace=wrap;connectable=0;fillColor=#f5f5f5;top=0;left=0;bottom=1;right=0;overflow=hidden;fontSize=29;fontStyle=1;align=left;fontColor=#333333;strokeColor=#666666;" parent="5O325MqEOkg0hkSNaYNA-248" vertex="1">
          <mxGeometry x="290" width="580" height="40" as="geometry">
            <mxRectangle width="580" height="40" as="alternateBounds" />
          </mxGeometry>
        </mxCell>
        <mxCell id="5O325MqEOkg0hkSNaYNA-251" value="" style="shape=tableRow;horizontal=0;startSize=0;swimlaneHead=0;swimlaneBody=0;top=0;left=0;bottom=0;right=0;collapsible=0;dropTarget=0;fillColor=none;points=[[0,0.5],[1,0.5]];portConstraint=eastwest;fontSize=29;" parent="5O325MqEOkg0hkSNaYNA-247" vertex="1">
          <mxGeometry y="40" width="870" height="40" as="geometry" />
        </mxCell>
        <mxCell id="5O325MqEOkg0hkSNaYNA-252" value="&lt;font style=&quot;font-size: 16px;&quot;&gt;Контекст использования&lt;/font&gt;" style="shape=partialRectangle;html=1;whiteSpace=wrap;connectable=0;fillColor=#f5f5f5;top=0;left=0;bottom=1;right=1;overflow=hidden;fontSize=16;fontColor=#333333;strokeColor=#666666;perimeterSpacing=4;align=left;fontStyle=1;verticalAlign=top;" parent="5O325MqEOkg0hkSNaYNA-251" vertex="1">
          <mxGeometry width="290" height="40" as="geometry">
            <mxRectangle width="290" height="40" as="alternateBounds" />
          </mxGeometry>
        </mxCell>
        <mxCell id="5O325MqEOkg0hkSNaYNA-253" value="Изменение данных Пользователя в Личном кабинете" style="shape=partialRectangle;html=1;whiteSpace=wrap;connectable=0;top=0;left=0;bottom=1;right=0;overflow=hidden;fontSize=16;align=left;strokeColor=#666666;verticalAlign=top;" parent="5O325MqEOkg0hkSNaYNA-251" vertex="1">
          <mxGeometry x="290" width="580" height="40" as="geometry">
            <mxRectangle width="580" height="40" as="alternateBounds" />
          </mxGeometry>
        </mxCell>
        <mxCell id="5O325MqEOkg0hkSNaYNA-254" value="" style="shape=tableRow;horizontal=0;startSize=0;swimlaneHead=0;swimlaneBody=0;top=0;left=0;bottom=0;right=0;collapsible=0;dropTarget=0;fillColor=none;points=[[0,0.5],[1,0.5]];portConstraint=eastwest;fontSize=29;" parent="5O325MqEOkg0hkSNaYNA-247" vertex="1">
          <mxGeometry y="80" width="870" height="40" as="geometry" />
        </mxCell>
        <mxCell id="5O325MqEOkg0hkSNaYNA-255" value="&lt;font style=&quot;font-size: 16px;&quot;&gt;Область действия&lt;/font&gt;" style="shape=partialRectangle;html=1;whiteSpace=wrap;connectable=0;fillColor=#f5f5f5;top=0;left=0;bottom=1;right=1;overflow=hidden;fontSize=16;fontColor=#333333;strokeColor=#666666;align=left;fontStyle=1;verticalAlign=top;" parent="5O325MqEOkg0hkSNaYNA-254" vertex="1">
          <mxGeometry width="290" height="40" as="geometry">
            <mxRectangle width="290" height="40" as="alternateBounds" />
          </mxGeometry>
        </mxCell>
        <mxCell id="5O325MqEOkg0hkSNaYNA-256" value="Веб-приложение Накарабине" style="shape=partialRectangle;html=1;whiteSpace=wrap;connectable=0;top=0;left=0;bottom=1;right=0;overflow=hidden;fontSize=16;align=left;strokeColor=#666666;verticalAlign=top;" parent="5O325MqEOkg0hkSNaYNA-254" vertex="1">
          <mxGeometry x="290" width="580" height="40" as="geometry">
            <mxRectangle width="580" height="40" as="alternateBounds" />
          </mxGeometry>
        </mxCell>
        <mxCell id="5O325MqEOkg0hkSNaYNA-257" style="shape=tableRow;horizontal=0;startSize=0;swimlaneHead=0;swimlaneBody=0;top=0;left=0;bottom=0;right=0;collapsible=0;dropTarget=0;fillColor=none;points=[[0,0.5],[1,0.5]];portConstraint=eastwest;fontSize=29;" parent="5O325MqEOkg0hkSNaYNA-247" vertex="1">
          <mxGeometry y="120" width="870" height="40" as="geometry" />
        </mxCell>
        <mxCell id="5O325MqEOkg0hkSNaYNA-258" value="Основное действующее лицо" style="shape=partialRectangle;html=1;whiteSpace=wrap;connectable=0;fillColor=#f5f5f5;top=0;left=0;bottom=1;right=1;overflow=hidden;fontSize=16;fontColor=#333333;strokeColor=#666666;align=left;fontStyle=1;verticalAlign=top;" parent="5O325MqEOkg0hkSNaYNA-257" vertex="1">
          <mxGeometry width="290" height="40" as="geometry">
            <mxRectangle width="290" height="40" as="alternateBounds" />
          </mxGeometry>
        </mxCell>
        <mxCell id="5O325MqEOkg0hkSNaYNA-259" value="Пользователь" style="shape=partialRectangle;html=1;whiteSpace=wrap;connectable=0;top=0;left=0;bottom=1;right=0;overflow=hidden;fontSize=16;align=left;strokeColor=#666666;verticalAlign=top;" parent="5O325MqEOkg0hkSNaYNA-257" vertex="1">
          <mxGeometry x="290" width="580" height="40" as="geometry">
            <mxRectangle width="580" height="40" as="alternateBounds" />
          </mxGeometry>
        </mxCell>
        <mxCell id="5O325MqEOkg0hkSNaYNA-260" style="shape=tableRow;horizontal=0;startSize=0;swimlaneHead=0;swimlaneBody=0;top=0;left=0;bottom=0;right=0;collapsible=0;dropTarget=0;fillColor=none;points=[[0,0.5],[1,0.5]];portConstraint=eastwest;fontSize=29;" parent="5O325MqEOkg0hkSNaYNA-247" vertex="1">
          <mxGeometry y="160" width="870" height="40" as="geometry" />
        </mxCell>
        <mxCell id="5O325MqEOkg0hkSNaYNA-261" value="Предусловие" style="shape=partialRectangle;html=1;whiteSpace=wrap;connectable=0;fillColor=#f5f5f5;top=0;left=0;bottom=1;right=1;overflow=hidden;fontSize=16;fontColor=#333333;strokeColor=#666666;align=left;fontStyle=1;verticalAlign=top;" parent="5O325MqEOkg0hkSNaYNA-260" vertex="1">
          <mxGeometry width="290" height="40" as="geometry">
            <mxRectangle width="290" height="40" as="alternateBounds" />
          </mxGeometry>
        </mxCell>
        <mxCell id="5O325MqEOkg0hkSNaYNA-262" value="Успешно выполнен сценарий «Авторизоваться в Личном кабинете»" style="shape=partialRectangle;html=1;whiteSpace=wrap;connectable=0;top=0;left=0;bottom=1;right=0;overflow=hidden;fontSize=16;align=left;strokeColor=#666666;verticalAlign=top;" parent="5O325MqEOkg0hkSNaYNA-260" vertex="1">
          <mxGeometry x="290" width="580" height="40" as="geometry">
            <mxRectangle width="580" height="40" as="alternateBounds" />
          </mxGeometry>
        </mxCell>
        <mxCell id="5O325MqEOkg0hkSNaYNA-263" style="shape=tableRow;horizontal=0;startSize=0;swimlaneHead=0;swimlaneBody=0;top=0;left=0;bottom=0;right=0;collapsible=0;dropTarget=0;fillColor=none;points=[[0,0.5],[1,0.5]];portConstraint=eastwest;fontSize=29;" parent="5O325MqEOkg0hkSNaYNA-247" vertex="1">
          <mxGeometry y="200" width="870" height="50" as="geometry" />
        </mxCell>
        <mxCell id="5O325MqEOkg0hkSNaYNA-264" value="Гарантии успеха" style="shape=partialRectangle;html=1;whiteSpace=wrap;connectable=0;fillColor=#f5f5f5;top=0;left=0;bottom=1;right=1;overflow=hidden;fontSize=16;fontColor=#333333;strokeColor=#666666;align=left;fontStyle=1;verticalAlign=top;" parent="5O325MqEOkg0hkSNaYNA-263" vertex="1">
          <mxGeometry width="290" height="50" as="geometry">
            <mxRectangle width="290" height="50" as="alternateBounds" />
          </mxGeometry>
        </mxCell>
        <mxCell id="5O325MqEOkg0hkSNaYNA-265" value="— Профиль изменен&lt;br&gt;— Изменения не сохранены" style="shape=partialRectangle;html=1;whiteSpace=wrap;connectable=0;top=0;left=0;bottom=1;right=0;overflow=hidden;fontSize=16;align=left;strokeColor=#666666;verticalAlign=top;" parent="5O325MqEOkg0hkSNaYNA-263" vertex="1">
          <mxGeometry x="290" width="580" height="50" as="geometry">
            <mxRectangle width="580" height="50" as="alternateBounds" />
          </mxGeometry>
        </mxCell>
        <mxCell id="5O325MqEOkg0hkSNaYNA-266" style="shape=tableRow;horizontal=0;startSize=0;swimlaneHead=0;swimlaneBody=0;top=0;left=0;bottom=0;right=0;collapsible=0;dropTarget=0;fillColor=none;points=[[0,0.5],[1,0.5]];portConstraint=eastwest;fontSize=29;" parent="5O325MqEOkg0hkSNaYNA-247" vertex="1">
          <mxGeometry y="250" width="870" height="40" as="geometry" />
        </mxCell>
        <mxCell id="5O325MqEOkg0hkSNaYNA-267" value="Триггер" style="shape=partialRectangle;html=1;whiteSpace=wrap;connectable=0;fillColor=#f5f5f5;top=0;left=0;bottom=1;right=0;overflow=hidden;fontSize=16;fontColor=#333333;strokeColor=#666666;perimeterSpacing=1;align=left;fontStyle=1" parent="5O325MqEOkg0hkSNaYNA-266" vertex="1">
          <mxGeometry width="290" height="40" as="geometry">
            <mxRectangle width="290" height="40" as="alternateBounds" />
          </mxGeometry>
        </mxCell>
        <mxCell id="5O325MqEOkg0hkSNaYNA-268" value="Пользователь хочет изменить свои текущие данные в Личном кабинете" style="shape=partialRectangle;html=1;whiteSpace=wrap;connectable=0;top=0;left=0;bottom=1;right=0;overflow=hidden;fontSize=16;align=left;verticalAlign=top;" parent="5O325MqEOkg0hkSNaYNA-266" vertex="1">
          <mxGeometry x="290" width="580" height="40" as="geometry">
            <mxRectangle width="580" height="40" as="alternateBounds" />
          </mxGeometry>
        </mxCell>
        <mxCell id="5O325MqEOkg0hkSNaYNA-269" style="shape=tableRow;horizontal=0;startSize=0;swimlaneHead=0;swimlaneBody=0;top=0;left=0;bottom=0;right=0;collapsible=0;dropTarget=0;fillColor=none;points=[[0,0.5],[1,0.5]];portConstraint=eastwest;fontSize=29;" parent="5O325MqEOkg0hkSNaYNA-247" vertex="1">
          <mxGeometry y="290" width="870" height="150" as="geometry" />
        </mxCell>
        <mxCell id="5O325MqEOkg0hkSNaYNA-270" value="Базовый сценарий" style="shape=partialRectangle;html=1;whiteSpace=wrap;connectable=0;fillColor=#f5f5f5;top=0;left=0;bottom=1;right=1;overflow=hidden;fontSize=16;fontColor=#333333;strokeColor=#666666;perimeterSpacing=1;align=left;fontStyle=1;verticalAlign=top;" parent="5O325MqEOkg0hkSNaYNA-269" vertex="1">
          <mxGeometry width="290" height="150" as="geometry">
            <mxRectangle width="290" height="150" as="alternateBounds" />
          </mxGeometry>
        </mxCell>
        <mxCell id="5O325MqEOkg0hkSNaYNA-271" value="Профиль изменен:&lt;br&gt;1. Пользователь просматривает свои данные в Личном кабинете.&lt;br&gt;2. Пользователь выбирает действие изменения данных.&lt;br&gt;3. Пользователь вносит изменения в данные: ФИО, пароль, телефон, e-mail.&lt;br&gt;4. Пользователь выбирает действие сохранения изменений.&lt;br&gt;5. Система сохраняет внесенные изменения." style="shape=partialRectangle;html=1;whiteSpace=wrap;connectable=0;top=0;left=0;bottom=1;right=0;overflow=hidden;fontSize=16;align=left;strokeColor=#666666;verticalAlign=top;" parent="5O325MqEOkg0hkSNaYNA-269" vertex="1">
          <mxGeometry x="290" width="580" height="150" as="geometry">
            <mxRectangle width="580" height="150" as="alternateBounds" />
          </mxGeometry>
        </mxCell>
        <mxCell id="5O325MqEOkg0hkSNaYNA-272" style="shape=tableRow;horizontal=0;startSize=0;swimlaneHead=0;swimlaneBody=0;top=0;left=0;bottom=0;right=0;collapsible=0;dropTarget=0;points=[[0,0.5],[1,0.5]];portConstraint=eastwest;fontSize=29;" parent="5O325MqEOkg0hkSNaYNA-247" vertex="1">
          <mxGeometry y="440" width="870" height="40" as="geometry" />
        </mxCell>
        <mxCell id="5O325MqEOkg0hkSNaYNA-273" value="Изменения в технологии и данных" style="shape=partialRectangle;html=1;whiteSpace=wrap;connectable=0;fillColor=#f5f5f5;top=0;left=0;bottom=0;right=1;overflow=hidden;fontSize=16;fontColor=#333333;strokeColor=#666666;strokeWidth=1;perimeterSpacing=1;align=left;fontStyle=1;verticalAlign=top;" parent="5O325MqEOkg0hkSNaYNA-272" vertex="1">
          <mxGeometry width="290" height="40" as="geometry">
            <mxRectangle width="290" height="40" as="alternateBounds" />
          </mxGeometry>
        </mxCell>
        <mxCell id="5O325MqEOkg0hkSNaYNA-274" value="Использовать хранения данных пользователя&amp;nbsp;" style="shape=partialRectangle;html=1;whiteSpace=wrap;connectable=0;top=0;left=0;bottom=0;right=0;overflow=hidden;fontSize=16;align=left;strokeColor=#666666;verticalAlign=top;" parent="5O325MqEOkg0hkSNaYNA-272" vertex="1">
          <mxGeometry x="290" width="580" height="40" as="geometry">
            <mxRectangle width="580" height="40" as="alternateBounds" />
          </mxGeometry>
        </mxCell>
        <mxCell id="5O325MqEOkg0hkSNaYNA-275" value="" style="shape=table;html=1;whiteSpace=wrap;startSize=0;container=1;collapsible=0;childLayout=tableLayout;fontSize=29;columnLines=1;rowLines=1;swimlaneLine=1;swimlaneFillColor=none;strokeColor=#666666;strokeWidth=2;" parent="1" vertex="1">
          <mxGeometry x="3814" y="629" width="870" height="480.0000000000009" as="geometry" />
        </mxCell>
        <mxCell id="5O325MqEOkg0hkSNaYNA-276" value="" style="shape=tableRow;horizontal=0;startSize=0;swimlaneHead=0;swimlaneBody=0;top=0;left=0;bottom=0;right=0;collapsible=0;dropTarget=0;fillColor=none;points=[[0,0.5],[1,0.5]];portConstraint=eastwest;fontSize=29;" parent="5O325MqEOkg0hkSNaYNA-275" vertex="1">
          <mxGeometry width="870" height="40" as="geometry" />
        </mxCell>
        <mxCell id="5O325MqEOkg0hkSNaYNA-277" value="&lt;font style=&quot;font-size: 18px;&quot;&gt;Уникальный код и название&lt;/font&gt;" style="shape=partialRectangle;html=1;whiteSpace=wrap;connectable=0;fillColor=#f5f5f5;top=0;left=0;bottom=1;right=1;overflow=hidden;fontSize=29;align=left;fontStyle=1;fontColor=#333333;strokeColor=#666666;labelBorderColor=none;" parent="5O325MqEOkg0hkSNaYNA-276" vertex="1">
          <mxGeometry width="290" height="40" as="geometry">
            <mxRectangle width="290" height="40" as="alternateBounds" />
          </mxGeometry>
        </mxCell>
        <mxCell id="5O325MqEOkg0hkSNaYNA-278" value="&lt;font style=&quot;font-size: 18px;&quot;&gt;&lt;font style=&quot;font-size: 18px;&quot;&gt;ВИ-9:&amp;nbsp;&lt;/font&gt;&lt;span style=&quot;color: rgb(0, 0, 0); text-align: center;&quot;&gt;Посмотреть историю заказов&lt;/span&gt;&lt;/font&gt;" style="shape=partialRectangle;html=1;whiteSpace=wrap;connectable=0;fillColor=#f5f5f5;top=0;left=0;bottom=1;right=0;overflow=hidden;fontSize=29;fontStyle=1;align=left;fontColor=#333333;strokeColor=#666666;" parent="5O325MqEOkg0hkSNaYNA-276" vertex="1">
          <mxGeometry x="290" width="580" height="40" as="geometry">
            <mxRectangle width="580" height="40" as="alternateBounds" />
          </mxGeometry>
        </mxCell>
        <mxCell id="5O325MqEOkg0hkSNaYNA-279" value="" style="shape=tableRow;horizontal=0;startSize=0;swimlaneHead=0;swimlaneBody=0;top=0;left=0;bottom=0;right=0;collapsible=0;dropTarget=0;fillColor=none;points=[[0,0.5],[1,0.5]];portConstraint=eastwest;fontSize=29;" parent="5O325MqEOkg0hkSNaYNA-275" vertex="1">
          <mxGeometry y="40" width="870" height="50" as="geometry" />
        </mxCell>
        <mxCell id="5O325MqEOkg0hkSNaYNA-280" value="&lt;font style=&quot;font-size: 16px;&quot;&gt;Контекст использования&lt;/font&gt;" style="shape=partialRectangle;html=1;whiteSpace=wrap;connectable=0;fillColor=#f5f5f5;top=0;left=0;bottom=1;right=1;overflow=hidden;fontSize=16;fontColor=#333333;strokeColor=#666666;perimeterSpacing=4;align=left;fontStyle=1;verticalAlign=top;" parent="5O325MqEOkg0hkSNaYNA-279" vertex="1">
          <mxGeometry width="290" height="50" as="geometry">
            <mxRectangle width="290" height="50" as="alternateBounds" />
          </mxGeometry>
        </mxCell>
        <mxCell id="5O325MqEOkg0hkSNaYNA-281" value="Просмотр информации о заказах, которые сделал Пользователь за весь период&amp;nbsp;" style="shape=partialRectangle;html=1;whiteSpace=wrap;connectable=0;top=0;left=0;bottom=1;right=0;overflow=hidden;fontSize=16;align=left;strokeColor=#666666;verticalAlign=top;" parent="5O325MqEOkg0hkSNaYNA-279" vertex="1">
          <mxGeometry x="290" width="580" height="50" as="geometry">
            <mxRectangle width="580" height="50" as="alternateBounds" />
          </mxGeometry>
        </mxCell>
        <mxCell id="5O325MqEOkg0hkSNaYNA-282" value="" style="shape=tableRow;horizontal=0;startSize=0;swimlaneHead=0;swimlaneBody=0;top=0;left=0;bottom=0;right=0;collapsible=0;dropTarget=0;fillColor=none;points=[[0,0.5],[1,0.5]];portConstraint=eastwest;fontSize=29;" parent="5O325MqEOkg0hkSNaYNA-275" vertex="1">
          <mxGeometry y="90" width="870" height="40" as="geometry" />
        </mxCell>
        <mxCell id="5O325MqEOkg0hkSNaYNA-283" value="&lt;font style=&quot;font-size: 16px;&quot;&gt;Область действия&lt;/font&gt;" style="shape=partialRectangle;html=1;whiteSpace=wrap;connectable=0;fillColor=#f5f5f5;top=0;left=0;bottom=1;right=1;overflow=hidden;fontSize=16;fontColor=#333333;strokeColor=#666666;align=left;fontStyle=1;verticalAlign=top;" parent="5O325MqEOkg0hkSNaYNA-282" vertex="1">
          <mxGeometry width="290" height="40" as="geometry">
            <mxRectangle width="290" height="40" as="alternateBounds" />
          </mxGeometry>
        </mxCell>
        <mxCell id="5O325MqEOkg0hkSNaYNA-284" value="Веб-приложение Накарабине" style="shape=partialRectangle;html=1;whiteSpace=wrap;connectable=0;top=0;left=0;bottom=1;right=0;overflow=hidden;fontSize=16;align=left;strokeColor=#666666;verticalAlign=top;" parent="5O325MqEOkg0hkSNaYNA-282" vertex="1">
          <mxGeometry x="290" width="580" height="40" as="geometry">
            <mxRectangle width="580" height="40" as="alternateBounds" />
          </mxGeometry>
        </mxCell>
        <mxCell id="5O325MqEOkg0hkSNaYNA-285" style="shape=tableRow;horizontal=0;startSize=0;swimlaneHead=0;swimlaneBody=0;top=0;left=0;bottom=0;right=0;collapsible=0;dropTarget=0;fillColor=none;points=[[0,0.5],[1,0.5]];portConstraint=eastwest;fontSize=29;" parent="5O325MqEOkg0hkSNaYNA-275" vertex="1">
          <mxGeometry y="130" width="870" height="40" as="geometry" />
        </mxCell>
        <mxCell id="5O325MqEOkg0hkSNaYNA-286" value="Основное действующее лицо" style="shape=partialRectangle;html=1;whiteSpace=wrap;connectable=0;fillColor=#f5f5f5;top=0;left=0;bottom=1;right=1;overflow=hidden;fontSize=16;fontColor=#333333;strokeColor=#666666;align=left;fontStyle=1;verticalAlign=top;" parent="5O325MqEOkg0hkSNaYNA-285" vertex="1">
          <mxGeometry width="290" height="40" as="geometry">
            <mxRectangle width="290" height="40" as="alternateBounds" />
          </mxGeometry>
        </mxCell>
        <mxCell id="5O325MqEOkg0hkSNaYNA-287" value="Пользователь" style="shape=partialRectangle;html=1;whiteSpace=wrap;connectable=0;top=0;left=0;bottom=1;right=0;overflow=hidden;fontSize=16;align=left;strokeColor=#666666;verticalAlign=top;" parent="5O325MqEOkg0hkSNaYNA-285" vertex="1">
          <mxGeometry x="290" width="580" height="40" as="geometry">
            <mxRectangle width="580" height="40" as="alternateBounds" />
          </mxGeometry>
        </mxCell>
        <mxCell id="5O325MqEOkg0hkSNaYNA-288" style="shape=tableRow;horizontal=0;startSize=0;swimlaneHead=0;swimlaneBody=0;top=0;left=0;bottom=0;right=0;collapsible=0;dropTarget=0;fillColor=none;points=[[0,0.5],[1,0.5]];portConstraint=eastwest;fontSize=29;" parent="5O325MqEOkg0hkSNaYNA-275" vertex="1">
          <mxGeometry y="170" width="870" height="40" as="geometry" />
        </mxCell>
        <mxCell id="5O325MqEOkg0hkSNaYNA-289" value="Предусловие" style="shape=partialRectangle;html=1;whiteSpace=wrap;connectable=0;fillColor=#f5f5f5;top=0;left=0;bottom=1;right=1;overflow=hidden;fontSize=16;fontColor=#333333;strokeColor=#666666;align=left;fontStyle=1;verticalAlign=top;" parent="5O325MqEOkg0hkSNaYNA-288" vertex="1">
          <mxGeometry width="290" height="40" as="geometry">
            <mxRectangle width="290" height="40" as="alternateBounds" />
          </mxGeometry>
        </mxCell>
        <mxCell id="5O325MqEOkg0hkSNaYNA-290" value="Успешно выполнен сценарий «Авторизоваться в Личном кабинете»" style="shape=partialRectangle;html=1;whiteSpace=wrap;connectable=0;top=0;left=0;bottom=1;right=0;overflow=hidden;fontSize=16;align=left;strokeColor=#666666;verticalAlign=top;" parent="5O325MqEOkg0hkSNaYNA-288" vertex="1">
          <mxGeometry x="290" width="580" height="40" as="geometry">
            <mxRectangle width="580" height="40" as="alternateBounds" />
          </mxGeometry>
        </mxCell>
        <mxCell id="5O325MqEOkg0hkSNaYNA-291" style="shape=tableRow;horizontal=0;startSize=0;swimlaneHead=0;swimlaneBody=0;top=0;left=0;bottom=0;right=0;collapsible=0;dropTarget=0;fillColor=none;points=[[0,0.5],[1,0.5]];portConstraint=eastwest;fontSize=29;" parent="5O325MqEOkg0hkSNaYNA-275" vertex="1">
          <mxGeometry y="210" width="870" height="40" as="geometry" />
        </mxCell>
        <mxCell id="5O325MqEOkg0hkSNaYNA-292" value="Гарантии успеха" style="shape=partialRectangle;html=1;whiteSpace=wrap;connectable=0;fillColor=#f5f5f5;top=0;left=0;bottom=1;right=1;overflow=hidden;fontSize=16;fontColor=#333333;strokeColor=#666666;align=left;fontStyle=1;verticalAlign=top;" parent="5O325MqEOkg0hkSNaYNA-291" vertex="1">
          <mxGeometry width="290" height="40" as="geometry">
            <mxRectangle width="290" height="40" as="alternateBounds" />
          </mxGeometry>
        </mxCell>
        <mxCell id="5O325MqEOkg0hkSNaYNA-293" value="Просмотрена информация о сделанных заказах" style="shape=partialRectangle;html=1;whiteSpace=wrap;connectable=0;top=0;left=0;bottom=1;right=0;overflow=hidden;fontSize=16;align=left;strokeColor=#666666;verticalAlign=top;" parent="5O325MqEOkg0hkSNaYNA-291" vertex="1">
          <mxGeometry x="290" width="580" height="40" as="geometry">
            <mxRectangle width="580" height="40" as="alternateBounds" />
          </mxGeometry>
        </mxCell>
        <mxCell id="5O325MqEOkg0hkSNaYNA-294" style="shape=tableRow;horizontal=0;startSize=0;swimlaneHead=0;swimlaneBody=0;top=0;left=0;bottom=0;right=0;collapsible=0;dropTarget=0;fillColor=none;points=[[0,0.5],[1,0.5]];portConstraint=eastwest;fontSize=29;" parent="5O325MqEOkg0hkSNaYNA-275" vertex="1">
          <mxGeometry y="250" width="870" height="50" as="geometry" />
        </mxCell>
        <mxCell id="5O325MqEOkg0hkSNaYNA-295" value="Триггер" style="shape=partialRectangle;html=1;whiteSpace=wrap;connectable=0;fillColor=#f5f5f5;top=0;left=0;bottom=1;right=1;overflow=hidden;fontSize=16;fontColor=#333333;strokeColor=#666666;perimeterSpacing=1;align=left;fontStyle=1;verticalAlign=top;" parent="5O325MqEOkg0hkSNaYNA-294" vertex="1">
          <mxGeometry width="290" height="50" as="geometry">
            <mxRectangle width="290" height="50" as="alternateBounds" />
          </mxGeometry>
        </mxCell>
        <mxCell id="5O325MqEOkg0hkSNaYNA-296" value="Пользователь хочет посмотреть, какие заказы он уже сделал в веб-приложении Накарабине" style="shape=partialRectangle;html=1;whiteSpace=wrap;connectable=0;top=0;left=0;bottom=1;right=0;overflow=hidden;fontSize=16;align=left;strokeColor=#666666;verticalAlign=top;" parent="5O325MqEOkg0hkSNaYNA-294" vertex="1">
          <mxGeometry x="290" width="580" height="50" as="geometry">
            <mxRectangle width="580" height="50" as="alternateBounds" />
          </mxGeometry>
        </mxCell>
        <mxCell id="5O325MqEOkg0hkSNaYNA-297" style="shape=tableRow;horizontal=0;startSize=0;swimlaneHead=0;swimlaneBody=0;top=0;left=0;bottom=0;right=0;collapsible=0;dropTarget=0;fillColor=none;points=[[0,0.5],[1,0.5]];portConstraint=eastwest;fontSize=29;" parent="5O325MqEOkg0hkSNaYNA-275" vertex="1">
          <mxGeometry y="300" width="870" height="140" as="geometry" />
        </mxCell>
        <mxCell id="5O325MqEOkg0hkSNaYNA-298" value="Базовый сценарий" style="shape=partialRectangle;html=1;whiteSpace=wrap;connectable=0;fillColor=#f5f5f5;top=0;left=0;bottom=1;right=1;overflow=hidden;fontSize=16;fontColor=#333333;strokeColor=#666666;perimeterSpacing=1;align=left;fontStyle=1;verticalAlign=top;" parent="5O325MqEOkg0hkSNaYNA-297" vertex="1">
          <mxGeometry width="290" height="140" as="geometry">
            <mxRectangle width="290" height="140" as="alternateBounds" />
          </mxGeometry>
        </mxCell>
        <mxCell id="5O325MqEOkg0hkSNaYNA-299" value="Просмотр истории заказов:&lt;br&gt;1. Пользователь выбирает действие просмотреть историю заказов в Личном кабинете.&lt;br&gt;&lt;font style=&quot;font-size: 16px;&quot;&gt;2. Система выводит информацию обо всех сделанных заказах:&amp;nbsp;Номер заказа,&amp;nbsp;Статус,&amp;nbsp;Дату создания заказа,&amp;nbsp;Сумму, Данные о доставке (индекс, город,&amp;nbsp; адрес и дату), Данные об оплате (номер чека, способ оплаты, статус оплаты), Товары в заказе.&lt;/font&gt;" style="shape=partialRectangle;html=1;whiteSpace=wrap;connectable=0;top=0;left=0;bottom=1;right=0;overflow=hidden;fontSize=16;align=left;strokeColor=#666666;verticalAlign=top;" parent="5O325MqEOkg0hkSNaYNA-297" vertex="1">
          <mxGeometry x="290" width="580" height="140" as="geometry">
            <mxRectangle width="580" height="140" as="alternateBounds" />
          </mxGeometry>
        </mxCell>
        <mxCell id="5O325MqEOkg0hkSNaYNA-300" style="shape=tableRow;horizontal=0;startSize=0;swimlaneHead=0;swimlaneBody=0;top=0;left=0;bottom=0;right=0;collapsible=0;dropTarget=0;points=[[0,0.5],[1,0.5]];portConstraint=eastwest;fontSize=29;" parent="5O325MqEOkg0hkSNaYNA-275" vertex="1">
          <mxGeometry y="440" width="870" height="40" as="geometry" />
        </mxCell>
        <mxCell id="5O325MqEOkg0hkSNaYNA-301" value="Изменения в технологии и данных" style="shape=partialRectangle;html=1;whiteSpace=wrap;connectable=0;fillColor=#f5f5f5;top=0;left=0;bottom=0;right=1;overflow=hidden;fontSize=16;fontColor=#333333;strokeColor=#666666;strokeWidth=1;perimeterSpacing=1;align=left;fontStyle=1;verticalAlign=top;" parent="5O325MqEOkg0hkSNaYNA-300" vertex="1">
          <mxGeometry width="290" height="40" as="geometry">
            <mxRectangle width="290" height="40" as="alternateBounds" />
          </mxGeometry>
        </mxCell>
        <mxCell id="5O325MqEOkg0hkSNaYNA-302" value="Использовать хранения заказов пользователя&amp;nbsp;" style="shape=partialRectangle;html=1;whiteSpace=wrap;connectable=0;top=0;left=0;bottom=0;right=0;overflow=hidden;fontSize=16;align=left;strokeColor=#666666;verticalAlign=top;" parent="5O325MqEOkg0hkSNaYNA-300" vertex="1">
          <mxGeometry x="290" width="580" height="40" as="geometry">
            <mxRectangle width="580" height="40" as="alternateBounds" />
          </mxGeometry>
        </mxCell>
      </root>
    </mxGraphModel>
  </diagram>
  <diagram id="C0rMQa0Olz1QOOh9Zp8d" name="№2. Нотация Чена">
    <mxGraphModel dx="5538" dy="3523" grid="1" gridSize="10" guides="1" tooltips="1" connect="1" arrows="1" fold="1" page="1" pageScale="1" pageWidth="827" pageHeight="1169" math="0" shadow="0">
      <root>
        <mxCell id="0" />
        <mxCell id="1" parent="0" />
        <mxCell id="eTUbv3Dqw28xAWh45OkO-1" value="&lt;font style=&quot;font-size: 42px;&quot;&gt;&lt;b&gt;Логическая ER-диаграмма в нотации Чена&lt;/b&gt;&lt;/font&gt;" style="text;html=1;strokeColor=none;fillColor=none;align=center;verticalAlign=middle;whiteSpace=wrap;rounded=0;fontSize=24;" parent="1" vertex="1">
          <mxGeometry x="-680" y="-1150" width="1030" height="30" as="geometry" />
        </mxCell>
        <mxCell id="d0mvA6AZbDKzfT7o7rPE-1" value="Пользователь" style="ellipse;whiteSpace=wrap;html=1;labelBackgroundColor=none;labelBorderColor=none;fontSize=26;strokeWidth=1;fillColor=default;" parent="1" vertex="1">
          <mxGeometry x="-240" y="-830" width="190" height="80" as="geometry" />
        </mxCell>
        <mxCell id="d0mvA6AZbDKzfT7o7rPE-2" value="Номер" style="ellipse;whiteSpace=wrap;html=1;labelBackgroundColor=none;labelBorderColor=none;fontSize=26;strokeWidth=1;verticalAlign=middle;fontStyle=4" parent="1" vertex="1">
          <mxGeometry x="-330" y="-910" width="150" height="80" as="geometry" />
        </mxCell>
        <mxCell id="d0mvA6AZbDKzfT7o7rPE-6" value="Заказ" style="rounded=0;whiteSpace=wrap;html=1;labelBackgroundColor=none;labelBorderColor=none;fontSize=30;strokeWidth=1;fillColor=default;fontStyle=1" parent="1" vertex="1">
          <mxGeometry x="-590" y="-555" width="170" height="90" as="geometry" />
        </mxCell>
        <mxCell id="2R7LQehc_XVWjN9QiV79-1" value="" style="endArrow=none;html=1;rounded=0;fontSize=30;exitX=1;exitY=0.5;exitDx=0;exitDy=0;entryX=0;entryY=0.5;entryDx=0;entryDy=0;" parent="1" source="d0mvA6AZbDKzfT7o7rPE-6" target="mT7hJ6zgwEMFL5UcatVa-1" edge="1">
          <mxGeometry relative="1" as="geometry">
            <mxPoint x="-460" y="-400" as="sourcePoint" />
            <mxPoint x="-300" y="-400" as="targetPoint" />
          </mxGeometry>
        </mxCell>
        <mxCell id="KI9OqakF0Zt3uWATrMEL-2" value="Доставка" style="ellipse;whiteSpace=wrap;html=1;labelBackgroundColor=none;labelBorderColor=none;fontSize=26;strokeWidth=1;" parent="1" vertex="1">
          <mxGeometry x="-460" y="-410" width="150" height="80" as="geometry" />
        </mxCell>
        <mxCell id="KI9OqakF0Zt3uWATrMEL-4" value="Сумма" style="ellipse;whiteSpace=wrap;html=1;labelBackgroundColor=none;labelBorderColor=none;fontSize=26;strokeWidth=1;fillColor=default;dashed=1;dashPattern=8 8;" parent="1" vertex="1">
          <mxGeometry x="30" y="-555" width="150" height="80" as="geometry" />
        </mxCell>
        <mxCell id="KI9OqakF0Zt3uWATrMEL-5" value="Дата&amp;nbsp;&lt;div&gt;&lt;span style=&quot;font-size: 20px;&quot;&gt;создания&lt;/span&gt;&lt;/div&gt;" style="ellipse;whiteSpace=wrap;html=1;labelBackgroundColor=none;labelBorderColor=none;fontSize=26;strokeWidth=1;fillColor=default;" parent="1" vertex="1">
          <mxGeometry x="-100" y="-740" width="150" height="80" as="geometry" />
        </mxCell>
        <mxCell id="KI9OqakF0Zt3uWATrMEL-6" value="Данные&lt;div&gt;&lt;span style=&quot;font-size: 20px;&quot;&gt;об оплате&lt;/span&gt;&lt;/div&gt;" style="ellipse;whiteSpace=wrap;html=1;labelBackgroundColor=none;labelBorderColor=none;fontSize=26;strokeWidth=1;fillColor=default;" parent="1" vertex="1">
          <mxGeometry x="-272" y="-380" width="150" height="80" as="geometry" />
        </mxCell>
        <mxCell id="mT7hJ6zgwEMFL5UcatVa-1" value="Товар" style="ellipse;shape=doubleEllipse;margin=3;whiteSpace=wrap;html=1;align=center;fontSize=25;" parent="1" vertex="1">
          <mxGeometry x="-40" y="-430" width="150" height="80" as="geometry" />
        </mxCell>
        <mxCell id="mT7hJ6zgwEMFL5UcatVa-2" value="" style="endArrow=none;html=1;rounded=0;fontSize=30;exitX=1;exitY=0.5;exitDx=0;exitDy=0;entryX=0;entryY=0.5;entryDx=0;entryDy=0;" parent="1" source="d0mvA6AZbDKzfT7o7rPE-6" target="d0mvA6AZbDKzfT7o7rPE-2" edge="1">
          <mxGeometry relative="1" as="geometry">
            <mxPoint x="-440" y="-1030" as="sourcePoint" />
            <mxPoint x="-280" y="-1030" as="targetPoint" />
          </mxGeometry>
        </mxCell>
        <mxCell id="mT7hJ6zgwEMFL5UcatVa-6" value="" style="endArrow=none;html=1;rounded=0;fontSize=30;exitX=1;exitY=0.5;exitDx=0;exitDy=0;entryX=0;entryY=0.5;entryDx=0;entryDy=0;" parent="1" source="d0mvA6AZbDKzfT7o7rPE-6" target="KI9OqakF0Zt3uWATrMEL-5" edge="1">
          <mxGeometry relative="1" as="geometry">
            <mxPoint x="-430" y="-810" as="sourcePoint" />
            <mxPoint x="-270" y="-810" as="targetPoint" />
          </mxGeometry>
        </mxCell>
        <mxCell id="mT7hJ6zgwEMFL5UcatVa-7" value="" style="endArrow=none;html=1;rounded=0;fontSize=30;exitX=1;exitY=0.5;exitDx=0;exitDy=0;entryX=0;entryY=0.5;entryDx=0;entryDy=0;" parent="1" source="d0mvA6AZbDKzfT7o7rPE-6" target="d0mvA6AZbDKzfT7o7rPE-1" edge="1">
          <mxGeometry relative="1" as="geometry">
            <mxPoint x="-460" y="-751" as="sourcePoint" />
            <mxPoint x="-300" y="-751" as="targetPoint" />
          </mxGeometry>
        </mxCell>
        <mxCell id="mT7hJ6zgwEMFL5UcatVa-8" value="" style="endArrow=none;html=1;rounded=0;fontSize=30;exitX=1;exitY=0.5;exitDx=0;exitDy=0;entryX=0.5;entryY=0;entryDx=0;entryDy=0;" parent="1" source="d0mvA6AZbDKzfT7o7rPE-6" target="KI9OqakF0Zt3uWATrMEL-2" edge="1">
          <mxGeometry relative="1" as="geometry">
            <mxPoint x="-410" y="-690" as="sourcePoint" />
            <mxPoint x="-250" y="-690" as="targetPoint" />
          </mxGeometry>
        </mxCell>
        <mxCell id="mT7hJ6zgwEMFL5UcatVa-9" value="" style="endArrow=none;html=1;rounded=0;fontSize=30;exitX=1;exitY=0.5;exitDx=0;exitDy=0;entryX=0.5;entryY=0;entryDx=0;entryDy=0;" parent="1" source="d0mvA6AZbDKzfT7o7rPE-6" target="KI9OqakF0Zt3uWATrMEL-6" edge="1">
          <mxGeometry relative="1" as="geometry">
            <mxPoint x="-510" y="-770" as="sourcePoint" />
            <mxPoint x="-350" y="-770" as="targetPoint" />
          </mxGeometry>
        </mxCell>
        <mxCell id="mT7hJ6zgwEMFL5UcatVa-10" value="" style="endArrow=none;html=1;rounded=0;fontSize=30;entryX=0;entryY=0.5;entryDx=0;entryDy=0;exitX=1;exitY=0.5;exitDx=0;exitDy=0;" parent="1" source="d0mvA6AZbDKzfT7o7rPE-6" target="KI9OqakF0Zt3uWATrMEL-4" edge="1">
          <mxGeometry relative="1" as="geometry">
            <mxPoint x="-410" y="-570" as="sourcePoint" />
            <mxPoint x="-270" y="-700" as="targetPoint" />
          </mxGeometry>
        </mxCell>
        <mxCell id="3T9rAD-ebFBhFva2MfWU-3" value="Статус" style="ellipse;whiteSpace=wrap;html=1;labelBackgroundColor=none;labelBorderColor=none;fontSize=26;strokeWidth=1;fillColor=default;" parent="1" vertex="1">
          <mxGeometry x="30" y="-660" width="150" height="80" as="geometry" />
        </mxCell>
        <mxCell id="3T9rAD-ebFBhFva2MfWU-4" value="" style="endArrow=none;html=1;rounded=0;fontSize=30;entryX=0;entryY=0.5;entryDx=0;entryDy=0;" parent="1" target="3T9rAD-ebFBhFva2MfWU-3" edge="1">
          <mxGeometry relative="1" as="geometry">
            <mxPoint x="-420" y="-510" as="sourcePoint" />
            <mxPoint x="-290" y="-741" as="targetPoint" />
          </mxGeometry>
        </mxCell>
        <mxCell id="3T9rAD-ebFBhFva2MfWU-5" value="Город" style="ellipse;whiteSpace=wrap;html=1;labelBackgroundColor=none;labelBorderColor=none;fontSize=26;strokeWidth=1;fillColor=default;" parent="1" vertex="1">
          <mxGeometry x="-510" y="-160" width="150" height="80" as="geometry" />
        </mxCell>
        <mxCell id="3T9rAD-ebFBhFva2MfWU-6" value="" style="endArrow=none;html=1;rounded=0;fontSize=30;exitX=0.5;exitY=1;exitDx=0;exitDy=0;entryX=0.5;entryY=0;entryDx=0;entryDy=0;" parent="1" source="KI9OqakF0Zt3uWATrMEL-2" target="3T9rAD-ebFBhFva2MfWU-5" edge="1">
          <mxGeometry relative="1" as="geometry">
            <mxPoint x="-60" y="-240" as="sourcePoint" />
            <mxPoint x="60" y="-481" as="targetPoint" />
          </mxGeometry>
        </mxCell>
        <mxCell id="3T9rAD-ebFBhFva2MfWU-7" value="Дата&amp;nbsp;&lt;div&gt;&lt;span style=&quot;font-size: 20px;&quot;&gt;доставки&lt;/span&gt;&lt;/div&gt;" style="ellipse;whiteSpace=wrap;html=1;labelBackgroundColor=none;labelBorderColor=none;fontSize=26;strokeWidth=1;fillColor=default;" parent="1" vertex="1">
          <mxGeometry x="-600" y="-260" width="150" height="80" as="geometry" />
        </mxCell>
        <mxCell id="3T9rAD-ebFBhFva2MfWU-8" value="" style="endArrow=none;html=1;rounded=0;fontSize=30;exitX=0.5;exitY=1;exitDx=0;exitDy=0;entryX=0.5;entryY=0;entryDx=0;entryDy=0;" parent="1" source="KI9OqakF0Zt3uWATrMEL-2" target="3T9rAD-ebFBhFva2MfWU-7" edge="1">
          <mxGeometry relative="1" as="geometry">
            <mxPoint x="-50" y="-230" as="sourcePoint" />
            <mxPoint x="-440" y="-150" as="targetPoint" />
            <Array as="points" />
          </mxGeometry>
        </mxCell>
        <mxCell id="E2hIUq9rfDUZ2jzuSo-P-1" value="Логин" style="ellipse;whiteSpace=wrap;html=1;labelBackgroundColor=none;labelBorderColor=none;fontSize=26;strokeWidth=1;fillColor=default;" parent="1" vertex="1">
          <mxGeometry x="-180" y="-1100" width="150" height="80" as="geometry" />
        </mxCell>
        <mxCell id="E2hIUq9rfDUZ2jzuSo-P-2" value="" style="endArrow=none;html=1;rounded=0;fontSize=30;exitX=1;exitY=0.5;exitDx=0;exitDy=0;entryX=0.5;entryY=1;entryDx=0;entryDy=0;" parent="1" source="d0mvA6AZbDKzfT7o7rPE-1" target="E2hIUq9rfDUZ2jzuSo-P-1" edge="1">
          <mxGeometry relative="1" as="geometry">
            <mxPoint x="320" y="-570" as="sourcePoint" />
            <mxPoint x="645" y="-871" as="targetPoint" />
          </mxGeometry>
        </mxCell>
        <mxCell id="E2hIUq9rfDUZ2jzuSo-P-3" value="Телефон" style="ellipse;whiteSpace=wrap;html=1;labelBackgroundColor=none;labelBorderColor=none;fontSize=26;strokeWidth=1;fillColor=default;" parent="1" vertex="1">
          <mxGeometry x="120" y="-790" width="150" height="80" as="geometry" />
        </mxCell>
        <mxCell id="E2hIUq9rfDUZ2jzuSo-P-4" value="" style="endArrow=none;html=1;rounded=0;fontSize=30;exitX=1;exitY=0.5;exitDx=0;exitDy=0;entryX=0;entryY=0.5;entryDx=0;entryDy=0;" parent="1" source="d0mvA6AZbDKzfT7o7rPE-1" target="E2hIUq9rfDUZ2jzuSo-P-3" edge="1">
          <mxGeometry relative="1" as="geometry">
            <mxPoint x="50" y="-180" as="sourcePoint" />
            <mxPoint x="375" y="-481" as="targetPoint" />
          </mxGeometry>
        </mxCell>
        <mxCell id="E2hIUq9rfDUZ2jzuSo-P-5" value="e-mail" style="ellipse;whiteSpace=wrap;html=1;labelBackgroundColor=none;labelBorderColor=none;fontSize=26;strokeWidth=1;fillColor=default;" parent="1" vertex="1">
          <mxGeometry x="110" y="-900" width="150" height="80" as="geometry" />
        </mxCell>
        <mxCell id="E2hIUq9rfDUZ2jzuSo-P-6" value="" style="endArrow=none;html=1;rounded=0;fontSize=30;exitX=1;exitY=0.5;exitDx=0;exitDy=0;entryX=0;entryY=0.5;entryDx=0;entryDy=0;" parent="1" source="d0mvA6AZbDKzfT7o7rPE-1" target="E2hIUq9rfDUZ2jzuSo-P-5" edge="1">
          <mxGeometry relative="1" as="geometry">
            <mxPoint x="230" y="-270" as="sourcePoint" />
            <mxPoint x="555" y="-571" as="targetPoint" />
          </mxGeometry>
        </mxCell>
        <mxCell id="E2hIUq9rfDUZ2jzuSo-P-7" value="ФИО" style="ellipse;whiteSpace=wrap;html=1;labelBackgroundColor=none;labelBorderColor=none;fontSize=26;strokeWidth=1;fillColor=default;" parent="1" vertex="1">
          <mxGeometry x="100" y="-1020" width="150" height="80" as="geometry" />
        </mxCell>
        <mxCell id="E2hIUq9rfDUZ2jzuSo-P-8" value="" style="endArrow=none;html=1;rounded=0;fontSize=30;exitX=1;exitY=0.5;exitDx=0;exitDy=0;entryX=0;entryY=0.5;entryDx=0;entryDy=0;" parent="1" source="d0mvA6AZbDKzfT7o7rPE-1" target="E2hIUq9rfDUZ2jzuSo-P-7" edge="1">
          <mxGeometry relative="1" as="geometry">
            <mxPoint x="280" y="-410" as="sourcePoint" />
            <mxPoint x="160" y="-900" as="targetPoint" />
          </mxGeometry>
        </mxCell>
        <mxCell id="xSI-za8DFZWcnAOzlD7R-1" value="Способ&lt;div&gt;&lt;span style=&quot;font-size: 20px;&quot;&gt;оплаты&lt;/span&gt;&lt;/div&gt;" style="ellipse;whiteSpace=wrap;html=1;labelBackgroundColor=none;labelBorderColor=none;fontSize=26;strokeWidth=1;fillColor=default;" parent="1" vertex="1">
          <mxGeometry x="-30" y="-190" width="150" height="80" as="geometry" />
        </mxCell>
        <mxCell id="xSI-za8DFZWcnAOzlD7R-2" value="" style="endArrow=none;html=1;rounded=0;fontSize=30;exitX=1;exitY=0.5;exitDx=0;exitDy=0;entryX=0.5;entryY=0;entryDx=0;entryDy=0;" parent="1" source="KI9OqakF0Zt3uWATrMEL-6" target="xSI-za8DFZWcnAOzlD7R-1" edge="1">
          <mxGeometry relative="1" as="geometry">
            <mxPoint x="180" y="-330" as="sourcePoint" />
            <mxPoint x="505" y="-631" as="targetPoint" />
          </mxGeometry>
        </mxCell>
        <mxCell id="xSI-za8DFZWcnAOzlD7R-3" value="Адрес" style="ellipse;whiteSpace=wrap;html=1;labelBackgroundColor=none;labelBorderColor=none;fontSize=26;strokeWidth=1;fillColor=default;" parent="1" vertex="1">
          <mxGeometry x="-280" y="-230" width="150" height="80" as="geometry" />
        </mxCell>
        <mxCell id="xSI-za8DFZWcnAOzlD7R-4" value="" style="endArrow=none;html=1;rounded=0;fontSize=30;entryX=0.5;entryY=0;entryDx=0;entryDy=0;exitX=0.5;exitY=1;exitDx=0;exitDy=0;" parent="1" source="KI9OqakF0Zt3uWATrMEL-2" target="xSI-za8DFZWcnAOzlD7R-3" edge="1">
          <mxGeometry relative="1" as="geometry">
            <mxPoint x="-350" y="-260" as="sourcePoint" />
            <mxPoint x="390" y="-571" as="targetPoint" />
          </mxGeometry>
        </mxCell>
        <mxCell id="xSI-za8DFZWcnAOzlD7R-5" value="Индекс" style="ellipse;whiteSpace=wrap;html=1;labelBackgroundColor=none;labelBorderColor=none;fontSize=26;strokeWidth=1;fillColor=default;" parent="1" vertex="1">
          <mxGeometry x="-350" y="-140" width="150" height="80" as="geometry" />
        </mxCell>
        <mxCell id="xSI-za8DFZWcnAOzlD7R-6" value="" style="endArrow=none;html=1;rounded=0;fontSize=30;exitX=0.5;exitY=1;exitDx=0;exitDy=0;entryX=0.5;entryY=0;entryDx=0;entryDy=0;" parent="1" source="KI9OqakF0Zt3uWATrMEL-2" target="xSI-za8DFZWcnAOzlD7R-5" edge="1">
          <mxGeometry relative="1" as="geometry">
            <mxPoint x="-60" y="-210" as="sourcePoint" />
            <mxPoint x="265" y="-511" as="targetPoint" />
          </mxGeometry>
        </mxCell>
        <mxCell id="xSI-za8DFZWcnAOzlD7R-7" value="Номер&lt;div&gt;&lt;span style=&quot;font-size: 20px;&quot;&gt;чека&lt;/span&gt;&lt;/div&gt;" style="ellipse;whiteSpace=wrap;html=1;labelBackgroundColor=none;labelBorderColor=none;fontSize=26;strokeWidth=1;fillColor=default;" parent="1" vertex="1">
          <mxGeometry x="-160" y="-120" width="150" height="80" as="geometry" />
        </mxCell>
        <mxCell id="xSI-za8DFZWcnAOzlD7R-8" value="" style="endArrow=none;html=1;rounded=0;fontSize=30;exitX=1;exitY=0.5;exitDx=0;exitDy=0;entryX=0.5;entryY=0;entryDx=0;entryDy=0;" parent="1" source="KI9OqakF0Zt3uWATrMEL-6" target="xSI-za8DFZWcnAOzlD7R-7" edge="1">
          <mxGeometry relative="1" as="geometry">
            <mxPoint x="40" y="-70" as="sourcePoint" />
            <mxPoint x="365" y="-371" as="targetPoint" />
          </mxGeometry>
        </mxCell>
        <mxCell id="BRbOPBkDZTdBHurSvgw6-1" value="Статус&lt;br&gt;&lt;div&gt;&lt;span style=&quot;font-size: 20px;&quot;&gt;оплаты&lt;/span&gt;&lt;/div&gt;" style="ellipse;whiteSpace=wrap;html=1;labelBackgroundColor=none;labelBorderColor=none;fontSize=26;strokeWidth=1;fillColor=default;" parent="1" vertex="1">
          <mxGeometry x="80" y="-290" width="150" height="80" as="geometry" />
        </mxCell>
        <mxCell id="BRbOPBkDZTdBHurSvgw6-2" value="" style="endArrow=none;html=1;rounded=0;fontSize=30;exitX=1;exitY=0.5;exitDx=0;exitDy=0;entryX=0;entryY=0.5;entryDx=0;entryDy=0;" parent="1" source="KI9OqakF0Zt3uWATrMEL-6" target="BRbOPBkDZTdBHurSvgw6-1" edge="1">
          <mxGeometry relative="1" as="geometry">
            <mxPoint x="230" y="-440" as="sourcePoint" />
            <mxPoint x="555" y="-741" as="targetPoint" />
          </mxGeometry>
        </mxCell>
        <mxCell id="OUcWN10Av2n3sRjGIVds-1" value="Пароль" style="ellipse;whiteSpace=wrap;html=1;labelBackgroundColor=none;labelBorderColor=none;fontSize=26;strokeWidth=1;fillColor=default;" parent="1" vertex="1">
          <mxGeometry x="-10" y="-1100" width="150" height="80" as="geometry" />
        </mxCell>
        <mxCell id="OUcWN10Av2n3sRjGIVds-2" value="" style="endArrow=none;html=1;rounded=0;fontSize=30;exitX=1;exitY=0.5;exitDx=0;exitDy=0;entryX=0.5;entryY=1;entryDx=0;entryDy=0;" parent="1" source="d0mvA6AZbDKzfT7o7rPE-1" target="OUcWN10Av2n3sRjGIVds-1" edge="1">
          <mxGeometry relative="1" as="geometry">
            <mxPoint x="70" y="-810" as="sourcePoint" />
            <mxPoint x="765" y="-891" as="targetPoint" />
          </mxGeometry>
        </mxCell>
        <mxCell id="OUcWN10Av2n3sRjGIVds-6" value="Наименование&lt;br&gt;&lt;div&gt;&lt;span style=&quot;font-size: 20px;&quot;&gt;товара&lt;/span&gt;&lt;/div&gt;" style="ellipse;whiteSpace=wrap;html=1;labelBackgroundColor=none;labelBorderColor=none;fontSize=26;strokeWidth=1;fillColor=default;" parent="1" vertex="1">
          <mxGeometry x="390" y="-690" width="212" height="90" as="geometry" />
        </mxCell>
        <mxCell id="OUcWN10Av2n3sRjGIVds-7" value="" style="endArrow=none;html=1;rounded=0;fontSize=30;exitX=1;exitY=0.5;exitDx=0;exitDy=0;entryX=0;entryY=0.5;entryDx=0;entryDy=0;" parent="1" source="mT7hJ6zgwEMFL5UcatVa-1" target="OUcWN10Av2n3sRjGIVds-6" edge="1">
          <mxGeometry relative="1" as="geometry">
            <mxPoint x="300" y="-530" as="sourcePoint" />
            <mxPoint x="977" y="-931" as="targetPoint" />
          </mxGeometry>
        </mxCell>
        <mxCell id="OUcWN10Av2n3sRjGIVds-8" value="Описание&lt;br&gt;&lt;div&gt;&lt;span style=&quot;font-size: 20px;&quot;&gt;товара&lt;/span&gt;&lt;/div&gt;" style="ellipse;whiteSpace=wrap;html=1;labelBackgroundColor=none;labelBorderColor=none;fontSize=26;strokeWidth=1;fillColor=default;" parent="1" vertex="1">
          <mxGeometry x="421" y="-580" width="150" height="80" as="geometry" />
        </mxCell>
        <mxCell id="OUcWN10Av2n3sRjGIVds-9" value="" style="endArrow=none;html=1;rounded=0;fontSize=30;exitX=1;exitY=0.5;exitDx=0;exitDy=0;entryX=0;entryY=0.5;entryDx=0;entryDy=0;" parent="1" source="mT7hJ6zgwEMFL5UcatVa-1" target="OUcWN10Av2n3sRjGIVds-8" edge="1">
          <mxGeometry relative="1" as="geometry">
            <mxPoint x="230" y="-390" as="sourcePoint" />
            <mxPoint x="907" y="-791" as="targetPoint" />
          </mxGeometry>
        </mxCell>
        <mxCell id="rN7ipnRZTZdS6e3_WK2N-1" value="Артикул" style="ellipse;whiteSpace=wrap;html=1;labelBackgroundColor=none;labelBorderColor=none;fontSize=26;strokeWidth=1;fillColor=default;" parent="1" vertex="1">
          <mxGeometry x="430" y="-480" width="150" height="80" as="geometry" />
        </mxCell>
        <mxCell id="rN7ipnRZTZdS6e3_WK2N-2" value="" style="endArrow=none;html=1;rounded=0;fontSize=30;exitX=1;exitY=0.5;exitDx=0;exitDy=0;entryX=0;entryY=0.5;entryDx=0;entryDy=0;" parent="1" source="mT7hJ6zgwEMFL5UcatVa-1" target="rN7ipnRZTZdS6e3_WK2N-1" edge="1">
          <mxGeometry relative="1" as="geometry">
            <mxPoint x="190" y="-290" as="sourcePoint" />
            <mxPoint x="987" y="-691" as="targetPoint" />
          </mxGeometry>
        </mxCell>
        <mxCell id="rN7ipnRZTZdS6e3_WK2N-3" value="Цена" style="ellipse;whiteSpace=wrap;html=1;labelBackgroundColor=none;labelBorderColor=none;fontSize=26;strokeWidth=1;fillColor=default;" parent="1" vertex="1">
          <mxGeometry x="430" y="-380" width="150" height="80" as="geometry" />
        </mxCell>
        <mxCell id="rN7ipnRZTZdS6e3_WK2N-4" value="" style="endArrow=none;html=1;rounded=0;fontSize=30;exitX=1;exitY=0.5;exitDx=0;exitDy=0;entryX=0;entryY=0.5;entryDx=0;entryDy=0;" parent="1" source="mT7hJ6zgwEMFL5UcatVa-1" target="rN7ipnRZTZdS6e3_WK2N-3" edge="1">
          <mxGeometry relative="1" as="geometry">
            <mxPoint x="200" y="-160" as="sourcePoint" />
            <mxPoint x="997" y="-561" as="targetPoint" />
          </mxGeometry>
        </mxCell>
        <mxCell id="rN7ipnRZTZdS6e3_WK2N-5" value="Размер&lt;br&gt;&lt;div&gt;&lt;span style=&quot;font-size: 20px;&quot;&gt;скидки&lt;/span&gt;&lt;/div&gt;" style="ellipse;whiteSpace=wrap;html=1;labelBackgroundColor=none;labelBorderColor=none;fontSize=26;strokeWidth=1;fillColor=default;" parent="1" vertex="1">
          <mxGeometry x="430" y="-280" width="150" height="80" as="geometry" />
        </mxCell>
        <mxCell id="rN7ipnRZTZdS6e3_WK2N-6" value="" style="endArrow=none;html=1;rounded=0;fontSize=30;exitX=1;exitY=0.5;exitDx=0;exitDy=0;entryX=0;entryY=0.5;entryDx=0;entryDy=0;" parent="1" source="mT7hJ6zgwEMFL5UcatVa-1" target="rN7ipnRZTZdS6e3_WK2N-5" edge="1">
          <mxGeometry relative="1" as="geometry">
            <mxPoint x="141" y="-90" as="sourcePoint" />
            <mxPoint x="938" y="-491" as="targetPoint" />
          </mxGeometry>
        </mxCell>
        <mxCell id="rN7ipnRZTZdS6e3_WK2N-7" value="Название&lt;br&gt;&lt;div&gt;&lt;span style=&quot;font-size: 20px;&quot;&gt;акции&lt;/span&gt;&lt;/div&gt;" style="ellipse;whiteSpace=wrap;html=1;labelBackgroundColor=none;labelBorderColor=none;fontSize=26;strokeWidth=1;fillColor=default;" parent="1" vertex="1">
          <mxGeometry x="430" y="-180" width="150" height="80" as="geometry" />
        </mxCell>
        <mxCell id="rN7ipnRZTZdS6e3_WK2N-8" value="" style="endArrow=none;html=1;rounded=0;fontSize=30;exitX=1;exitY=0.5;exitDx=0;exitDy=0;entryX=0;entryY=0.5;entryDx=0;entryDy=0;" parent="1" source="mT7hJ6zgwEMFL5UcatVa-1" target="rN7ipnRZTZdS6e3_WK2N-7" edge="1">
          <mxGeometry relative="1" as="geometry">
            <mxPoint x="90" y="60" as="sourcePoint" />
            <mxPoint x="887" y="-341" as="targetPoint" />
          </mxGeometry>
        </mxCell>
      </root>
    </mxGraphModel>
  </diagram>
  <diagram id="Q4ZGwjjQSBGG-6-HoBCX" name="№3 Нотация Crow&#39;s Foot">
    <mxGraphModel dx="3026" dy="2268" grid="1" gridSize="10" guides="1" tooltips="1" connect="1" arrows="1" fold="1" page="1" pageScale="1" pageWidth="827" pageHeight="1169" math="0" shadow="0">
      <root>
        <mxCell id="0" />
        <mxCell id="1" parent="0" />
        <mxCell id="qCRUAt-N05SVonc8kFVc-1" value="&lt;font style=&quot;font-size: 42px;&quot;&gt;&lt;b&gt;Логическая ER-диаграмма в нотации Crow&#39;s Foot&lt;/b&gt;&lt;/font&gt;" style="text;html=1;strokeColor=none;fillColor=none;align=center;verticalAlign=middle;whiteSpace=wrap;rounded=0;fontSize=24;" parent="1" vertex="1">
          <mxGeometry x="-690" y="-1050" width="540" height="30" as="geometry" />
        </mxCell>
        <mxCell id="302suVOXfm_NrtrpAr3B-1" value="Заказ" style="swimlane;childLayout=stackLayout;horizontal=1;startSize=30;horizontalStack=0;rounded=1;fontSize=20;fontStyle=1;strokeWidth=2;resizeParent=0;resizeLast=1;shadow=0;dashed=0;align=center;labelBackgroundColor=#FFFFFF;labelBorderColor=none;" parent="1" vertex="1">
          <mxGeometry x="-540" y="-890" width="330" height="550" as="geometry" />
        </mxCell>
        <mxCell id="302suVOXfm_NrtrpAr3B-2" value="* Номер&#xa;  Логин пользователя&#xa;  Пароль авторизации&#xa;  ФИО&#xa;  e-mail&#xa;  Телефон&#xa;  Дата создания&#xa;  Статус&#xa;  Сумма&#xa;  Наименование товара&#xa;  Описание товара&#xa;  Артикул&#xa;  Цена&#xa;  Размер скидки&#xa;  Название акции&#xa;  Номер чека&#xa;  Способ оплаты&#xa;  Статус оплаты&#xa;  Дата доставки&#xa;  Город&#xa;  Индекс&#xa;  Адрес&#xa;  &#xa; " style="align=left;strokeColor=none;fillColor=none;spacingLeft=4;fontSize=18;verticalAlign=top;resizable=0;rotatable=0;part=1;labelBackgroundColor=#FFFFFF;labelBorderColor=none;" parent="302suVOXfm_NrtrpAr3B-1" vertex="1">
          <mxGeometry y="30" width="330" height="520" as="geometry" />
        </mxCell>
      </root>
    </mxGraphModel>
  </diagram>
  <diagram id="CQK-FGek5vSntuvO6r_Q" name="№4. Нормализованная модель">
    <mxGraphModel dx="9072" dy="5289" grid="1" gridSize="10" guides="1" tooltips="1" connect="1" arrows="1" fold="1" page="1" pageScale="1" pageWidth="827" pageHeight="1169" math="0" shadow="0">
      <root>
        <mxCell id="0" />
        <mxCell id="1" parent="0" />
        <mxCell id="DC7iOe18iWYN67__it-D-6" value="Товар" style="swimlane;childLayout=stackLayout;horizontal=1;startSize=30;horizontalStack=0;rounded=1;fontSize=20;fontStyle=1;strokeWidth=2;resizeParent=0;resizeLast=1;shadow=0;dashed=0;align=center;labelBackgroundColor=#FFFFFF;labelBorderColor=none;" parent="1" vertex="1">
          <mxGeometry x="81" y="450" width="246" height="180" as="geometry" />
        </mxCell>
        <mxCell id="DC7iOe18iWYN67__it-D-7" value="* Артикул&#xa;  Наименование&#xa;  Описание&#xa;  Цена стандартная&#xa;  Цена фактическая&#xa;* Код акции&#xa;  &#xa;  " style="align=left;strokeColor=none;fillColor=none;spacingLeft=4;fontSize=18;verticalAlign=top;resizable=0;rotatable=0;part=1;labelBackgroundColor=#FFFFFF;labelBorderColor=none;" parent="DC7iOe18iWYN67__it-D-6" vertex="1">
          <mxGeometry y="30" width="246" height="150" as="geometry" />
        </mxCell>
        <mxCell id="fMbNgHCoq1QQ6YyeBjnL-1" value="&lt;b style=&quot;color: rgb(0, 0, 0); font-family: Helvetica; font-size: 42px; font-style: normal; font-variant-ligatures: normal; font-variant-caps: normal; letter-spacing: normal; orphans: 2; text-align: center; text-indent: 0px; text-transform: none; widows: 2; word-spacing: 0px; -webkit-text-stroke-width: 0px; background-color: rgb(248, 249, 250); text-decoration-thickness: initial; text-decoration-style: initial; text-decoration-color: initial;&quot;&gt;Логическая ER-модель в 1 НФ&lt;/b&gt;" style="text;whiteSpace=wrap;html=1;fontSize=20;" parent="1" vertex="1">
          <mxGeometry x="-620" y="-1140" width="1080" height="80" as="geometry" />
        </mxCell>
        <mxCell id="g3L1DORRYKpxkKkxLXuE-1" value="&lt;b style=&quot;color: rgb(0, 0, 0); font-family: Helvetica; font-size: 42px; font-style: normal; font-variant-ligatures: normal; font-variant-caps: normal; letter-spacing: normal; orphans: 2; text-align: center; text-indent: 0px; text-transform: none; widows: 2; word-spacing: 0px; -webkit-text-stroke-width: 0px; background-color: rgb(248, 249, 250); text-decoration-thickness: initial; text-decoration-style: initial; text-decoration-color: initial;&quot;&gt;Логическая ER-модель в 2 НФ&lt;/b&gt;" style="text;whiteSpace=wrap;html=1;fontSize=20;" parent="1" vertex="1">
          <mxGeometry x="-620" y="-76" width="1080" height="80" as="geometry" />
        </mxCell>
        <mxCell id="g3L1DORRYKpxkKkxLXuE-2" value="&lt;b style=&quot;color: rgb(0, 0, 0); font-family: Helvetica; font-size: 42px; font-style: normal; font-variant-ligatures: normal; font-variant-caps: normal; letter-spacing: normal; orphans: 2; text-align: center; text-indent: 0px; text-transform: none; widows: 2; word-spacing: 0px; -webkit-text-stroke-width: 0px; background-color: rgb(248, 249, 250); text-decoration-thickness: initial; text-decoration-style: initial; text-decoration-color: initial;&quot;&gt;Логическая ER-модель в 3 НФ&lt;/b&gt;" style="text;whiteSpace=wrap;html=1;fontSize=20;" parent="1" vertex="1">
          <mxGeometry x="-640" y="1010" width="1080" height="80" as="geometry" />
        </mxCell>
        <mxCell id="QHkXWqypEcOR4OB4217k-1" value="&lt;h1 style=&quot;font-size: 20px;&quot;&gt;&lt;font style=&quot;font-size: 20px;&quot;&gt;План нормализации&lt;/font&gt;&lt;/h1&gt;&lt;p style=&quot;font-size: 20px;&quot;&gt;1. Раскрыл полностью составные атрибуты: &quot;Пользователь&quot;, &quot;Данные об оплате&quot; и &quot;Доставка&quot;. привел к 0НФ&lt;/p&gt;&lt;p style=&quot;font-size: 20px;&quot;&gt;2. Вынес повторяющиеся значения множественного атрибута &quot;Товар&quot; в промежуточную сущность &quot;Товар в заказе&quot; c атрибутом &quot;Количество&quot; товара&amp;nbsp;&lt;/p&gt;&lt;p style=&quot;font-size: 20px;&quot;&gt;&lt;span style=&quot;background-color: transparent; color: light-dark(rgb(0, 0, 0), rgb(255, 255, 255));&quot;&gt;3. Выделил из промежуточной сущности &quot;Товар в заказе&quot; отдельную сущность &quot;Товар&quot; с дополнительными атрибутами &quot;Цена фактическая&quot; и &quot;Цена стандартная&quot;. В описании домашнего задания есть упоминание &quot;&lt;/span&gt;&lt;span style=&quot;background-color: transparent; color: light-dark(rgb(0, 0, 0), rgb(255, 255, 255));&quot;&gt;Поэтому пользователи должны видеть и старую, и новую цену&quot;, в тоже время ВИ-2 указана просто видеть - &quot;Цена&quot;, которая вероятно может манятся исходя из того применяется акция или нет.&amp;nbsp;&lt;/span&gt;&lt;/p&gt;&lt;p style=&quot;font-size: 20px;&quot;&gt;...&lt;/p&gt;" style="text;html=1;strokeColor=#d6b656;fillColor=#fff2cc;spacing=5;spacingTop=-20;whiteSpace=wrap;overflow=hidden;rounded=0;fontSize=20;" parent="1" vertex="1">
          <mxGeometry x="-620" y="-1085" width="730" height="325" as="geometry" />
        </mxCell>
        <mxCell id="QHkXWqypEcOR4OB4217k-2" value="&lt;h1 style=&quot;font-size: 20px;&quot;&gt;&lt;font style=&quot;font-size: 20px;&quot;&gt;План нормализации&lt;/font&gt;&lt;/h1&gt;&lt;p style=&quot;font-size: 20px;&quot;&gt;1. Выделил атрибуты акции независимо от ключа &quot;Товар&quot; в сущность &quot;Акции&quot;&lt;/p&gt;&lt;p style=&quot;font-size: 20px;&quot;&gt;2. Добавил составные атрибуты в сущности &quot;Акция&quot;&lt;/p&gt;&lt;p style=&quot;font-size: 20px;&quot;&gt;&lt;br&gt;&lt;/p&gt;" style="text;html=1;strokeColor=#d6b656;fillColor=#fff2cc;spacing=5;spacingTop=-20;whiteSpace=wrap;overflow=hidden;rounded=0;fontSize=20;" parent="1" vertex="1">
          <mxGeometry x="-620" y="-16" width="350" height="226" as="geometry" />
        </mxCell>
        <mxCell id="QHkXWqypEcOR4OB4217k-3" value="&lt;h1 style=&quot;font-size: 20px;&quot;&gt;&lt;font style=&quot;font-size: 20px;&quot;&gt;План нормализации&lt;/font&gt;&lt;/h1&gt;&lt;p style=&quot;font-size: 20px;&quot;&gt;1. Выделил атрибуты пользователя в отдельную сущность &quot;Пользователь&quot;.&lt;/p&gt;&lt;p style=&quot;font-size: 20px;&quot;&gt;&lt;span style=&quot;background-color: transparent; color: light-dark(rgb(0, 0, 0), rgb(255, 255, 255));&quot;&gt;2. Выделил атрибуты оплаты в отдельную сущность &quot;Оплата&quot;.&lt;/span&gt;&lt;/p&gt;" style="text;html=1;strokeColor=#d6b656;fillColor=#fff2cc;spacing=5;spacingTop=-20;whiteSpace=wrap;overflow=hidden;rounded=0;fontSize=20;" parent="1" vertex="1">
          <mxGeometry x="-640" y="1070" width="370" height="190" as="geometry" />
        </mxCell>
        <mxCell id="lmBjp8ZT6w_YNoohcpof-1" value="" style="endArrow=classic;html=1;rounded=0;fontSize=20;strokeWidth=10;strokeColor=#006600;" parent="1" edge="1">
          <mxGeometry width="50" height="50" relative="1" as="geometry">
            <mxPoint x="-660" y="-1085" as="sourcePoint" />
            <mxPoint x="-660" y="-475" as="targetPoint" />
          </mxGeometry>
        </mxCell>
        <mxCell id="UCBrGDz-zy3AIGmUoxT1-2" value="" style="endArrow=classic;html=1;rounded=0;fontSize=20;strokeWidth=10;strokeColor=#006600;" parent="1" edge="1">
          <mxGeometry width="50" height="50" relative="1" as="geometry">
            <mxPoint x="-660" y="-16" as="sourcePoint" />
            <mxPoint x="-660" y="594" as="targetPoint" />
          </mxGeometry>
        </mxCell>
        <mxCell id="zZsgap_rCuGygySD3_PF-5" value="Товар в заказе" style="swimlane;childLayout=stackLayout;horizontal=1;startSize=30;horizontalStack=0;rounded=1;fontSize=20;fontStyle=1;strokeWidth=2;resizeParent=0;resizeLast=1;shadow=0;dashed=0;align=center;labelBackgroundColor=#FFFFFF;labelBorderColor=none;" parent="1" vertex="1">
          <mxGeometry x="-256" y="-575" width="246" height="115" as="geometry" />
        </mxCell>
        <mxCell id="zZsgap_rCuGygySD3_PF-6" value="* Номер заказа&#xa;* Артикул&#xa;  Количество&#xa;  &#xa;  " style="align=left;strokeColor=none;fillColor=none;spacingLeft=4;fontSize=18;verticalAlign=top;resizable=0;rotatable=0;part=1;labelBackgroundColor=#FFFFFF;labelBorderColor=none;" parent="zZsgap_rCuGygySD3_PF-5" vertex="1">
          <mxGeometry y="30" width="246" height="85" as="geometry" />
        </mxCell>
        <mxCell id="zZsgap_rCuGygySD3_PF-7" value="Включает" style="edgeStyle=entityRelationEdgeStyle;fontSize=12;html=1;endArrow=ERmandOne;startArrow=ERoneToMany;rounded=0;entryX=1;entryY=0.25;entryDx=0;entryDy=0;exitX=0;exitY=0.25;exitDx=0;exitDy=0;endFill=0;startFill=0;" parent="1" source="zZsgap_rCuGygySD3_PF-6" target="K7P1BqAtmTlEBdK8Nu7C-2" edge="1">
          <mxGeometry width="100" height="100" relative="1" as="geometry">
            <mxPoint x="-84" y="-472.5" as="sourcePoint" />
            <mxPoint x="-164.00000000000045" y="-637.5" as="targetPoint" />
          </mxGeometry>
        </mxCell>
        <mxCell id="K7P1BqAtmTlEBdK8Nu7C-1" value="Заказ" style="swimlane;childLayout=stackLayout;horizontal=1;startSize=30;horizontalStack=0;rounded=1;fontSize=20;fontStyle=1;strokeWidth=2;resizeParent=0;resizeLast=1;shadow=0;dashed=0;align=center;labelBackgroundColor=#FFFFFF;labelBorderColor=none;" parent="1" vertex="1">
          <mxGeometry x="-610" y="-721" width="270" height="481" as="geometry" />
        </mxCell>
        <mxCell id="K7P1BqAtmTlEBdK8Nu7C-2" value="* Номер&#xa;  Логин пользователя&#xa;  Пароль авторизации&#xa;  Фамиля пользователя&#xa;  Имя пользователя&#xa;  Отчество пользователя&#xa;  e-mail&#xa;  Телефон&#xa;  Дата создания&#xa;  Статус&#xa;  Сумма&#xa;  Номер чека&#xa;  Способ оплаты&#xa;  Статус оплаты&#xa;  Дата доставки&#xa;  Город&#xa;  Индекс&#xa;  Улица&#xa;  Дом&#xa;  Квартира&#xa;  &#xa; " style="align=left;strokeColor=none;fillColor=none;spacingLeft=4;fontSize=18;verticalAlign=top;resizable=0;rotatable=0;part=1;labelBackgroundColor=#FFFFFF;labelBorderColor=none;" parent="K7P1BqAtmTlEBdK8Nu7C-1" vertex="1">
          <mxGeometry y="30" width="270" height="451" as="geometry" />
        </mxCell>
        <mxCell id="_qq10yL5is1NEXrGwq1g-3" value="Товар" style="swimlane;childLayout=stackLayout;horizontal=1;startSize=30;horizontalStack=0;rounded=1;fontSize=20;fontStyle=1;strokeWidth=2;resizeParent=0;resizeLast=1;shadow=0;dashed=0;align=center;labelBackgroundColor=#FFFFFF;labelBorderColor=none;" parent="1" vertex="1">
          <mxGeometry x="60" y="-490" width="246" height="200" as="geometry" />
        </mxCell>
        <mxCell id="_qq10yL5is1NEXrGwq1g-4" value="* Артикул&#xa;  Наименование&#xa;  Описание&#xa;  Цена стандартная&#xa;  Цена фактическая&#xa;  Размер скидки&#xa;  Название акции&#xa;  " style="align=left;strokeColor=none;fillColor=none;spacingLeft=4;fontSize=18;verticalAlign=top;resizable=0;rotatable=0;part=1;labelBackgroundColor=#FFFFFF;labelBorderColor=none;" parent="_qq10yL5is1NEXrGwq1g-3" vertex="1">
          <mxGeometry y="30" width="246" height="170" as="geometry" />
        </mxCell>
        <mxCell id="_qq10yL5is1NEXrGwq1g-5" value="Состоит" style="edgeStyle=entityRelationEdgeStyle;fontSize=12;html=1;endArrow=ERzeroToMany;startArrow=ERmandOne;rounded=0;exitX=0;exitY=0.25;exitDx=0;exitDy=0;entryX=1;entryY=0.5;entryDx=0;entryDy=0;" parent="1" source="_qq10yL5is1NEXrGwq1g-4" target="zZsgap_rCuGygySD3_PF-6" edge="1">
          <mxGeometry x="0.0026" width="100" height="100" relative="1" as="geometry">
            <mxPoint x="-390" y="-80" as="sourcePoint" />
            <mxPoint x="-14" y="-340" as="targetPoint" />
            <mxPoint as="offset" />
          </mxGeometry>
        </mxCell>
        <mxCell id="DC7iOe18iWYN67__it-D-1" value="Товар в заказе" style="swimlane;childLayout=stackLayout;horizontal=1;startSize=30;horizontalStack=0;rounded=1;fontSize=20;fontStyle=1;strokeWidth=2;resizeParent=0;resizeLast=1;shadow=0;dashed=0;align=center;labelBackgroundColor=#FFFFFF;labelBorderColor=none;" parent="1" vertex="1">
          <mxGeometry x="-270" y="390" width="246" height="110" as="geometry" />
        </mxCell>
        <mxCell id="DC7iOe18iWYN67__it-D-2" value="* Номер заказа&#xa;* Артикул&#xa;  Количество&#xa;" style="align=left;strokeColor=none;fillColor=none;spacingLeft=4;fontSize=18;verticalAlign=top;resizable=0;rotatable=0;part=1;labelBackgroundColor=#FFFFFF;labelBorderColor=none;" parent="DC7iOe18iWYN67__it-D-1" vertex="1">
          <mxGeometry y="30" width="246" height="80" as="geometry" />
        </mxCell>
        <mxCell id="DC7iOe18iWYN67__it-D-3" value="Включает" style="edgeStyle=entityRelationEdgeStyle;fontSize=12;html=1;endArrow=ERmandOne;startArrow=ERoneToMany;rounded=0;entryX=1;entryY=0.25;entryDx=0;entryDy=0;exitX=0;exitY=0.25;exitDx=0;exitDy=0;endFill=0;startFill=0;" parent="1" source="DC7iOe18iWYN67__it-D-2" target="DC7iOe18iWYN67__it-D-5" edge="1">
          <mxGeometry width="100" height="100" relative="1" as="geometry">
            <mxPoint x="-84" y="495.5" as="sourcePoint" />
            <mxPoint x="-164.00000000000045" y="330.5" as="targetPoint" />
          </mxGeometry>
        </mxCell>
        <mxCell id="DC7iOe18iWYN67__it-D-4" value="Заказ" style="swimlane;childLayout=stackLayout;horizontal=1;startSize=30;horizontalStack=0;rounded=1;fontSize=20;fontStyle=1;strokeWidth=2;resizeParent=0;resizeLast=1;shadow=0;dashed=0;align=center;labelBackgroundColor=#FFFFFF;labelBorderColor=none;" parent="1" vertex="1">
          <mxGeometry x="-610" y="247" width="270" height="481" as="geometry" />
        </mxCell>
        <mxCell id="DC7iOe18iWYN67__it-D-5" value="* Номер&#xa;  Логин пользователя&#xa;  Пароль авторизации&#xa;  Фамиля пользователя&#xa;  Имя пользователя&#xa;  Отчество пользователя&#xa;  e-mail&#xa;  Телефон&#xa;  Дата создания&#xa;  Статус&#xa;  Сумма&#xa;  Номер чека&#xa;  Способ оплаты&#xa;  Статус оплаты&#xa;  Дата доставки&#xa;  Город&#xa;  Индекс&#xa;  Улица&#xa;  Дом&#xa;  Квартира&#xa;  &#xa; " style="align=left;strokeColor=none;fillColor=none;spacingLeft=4;fontSize=18;verticalAlign=top;resizable=0;rotatable=0;part=1;labelBackgroundColor=#FFFFFF;labelBorderColor=none;" parent="DC7iOe18iWYN67__it-D-4" vertex="1">
          <mxGeometry y="30" width="270" height="451" as="geometry" />
        </mxCell>
        <mxCell id="DC7iOe18iWYN67__it-D-8" value="Состоит" style="edgeStyle=entityRelationEdgeStyle;fontSize=12;html=1;endArrow=ERzeroToMany;startArrow=ERmandOne;rounded=0;exitX=0;exitY=0.25;exitDx=0;exitDy=0;entryX=1;entryY=0.25;entryDx=0;entryDy=0;" parent="1" source="DC7iOe18iWYN67__it-D-7" target="DC7iOe18iWYN67__it-D-2" edge="1">
          <mxGeometry x="0.0026" width="100" height="100" relative="1" as="geometry">
            <mxPoint x="-390" y="888" as="sourcePoint" />
            <mxPoint x="-14" y="628" as="targetPoint" />
            <mxPoint as="offset" />
          </mxGeometry>
        </mxCell>
        <mxCell id="DC7iOe18iWYN67__it-D-9" value="Акция" style="swimlane;childLayout=stackLayout;horizontal=1;startSize=30;horizontalStack=0;rounded=1;fontSize=20;fontStyle=1;strokeWidth=2;resizeParent=0;resizeLast=1;shadow=0;dashed=0;align=center;labelBackgroundColor=#FFFFFF;labelBorderColor=none;" parent="1" vertex="1">
          <mxGeometry x="-270" y="680" width="246" height="163" as="geometry" />
        </mxCell>
        <mxCell id="DC7iOe18iWYN67__it-D-10" value="* Код акции&#xa;  Название акции&#xa;  Размер скидки&#xa;  Дата начала&#xa;  Дата окончания&#xa;  " style="align=left;strokeColor=none;fillColor=none;spacingLeft=4;fontSize=18;verticalAlign=top;resizable=0;rotatable=0;part=1;labelBackgroundColor=#FFFFFF;labelBorderColor=none;" parent="DC7iOe18iWYN67__it-D-9" vertex="1">
          <mxGeometry y="30" width="246" height="133" as="geometry" />
        </mxCell>
        <mxCell id="DC7iOe18iWYN67__it-D-11" value="Учувствует" style="fontSize=12;html=1;endArrow=ERzeroToMany;startArrow=ERzeroToOne;rounded=0;entryX=0;entryY=0.75;entryDx=0;entryDy=0;exitX=1;exitY=0.25;exitDx=0;exitDy=0;edgeStyle=elbowEdgeStyle;startFill=0;" parent="1" source="DC7iOe18iWYN67__it-D-10" target="DC7iOe18iWYN67__it-D-7" edge="1">
          <mxGeometry width="100" height="100" relative="1" as="geometry">
            <mxPoint x="-370" y="154" as="sourcePoint" />
            <mxPoint x="90" y="607" as="targetPoint" />
            <Array as="points">
              <mxPoint x="20" y="670" />
            </Array>
          </mxGeometry>
        </mxCell>
        <mxCell id="JpLV2EWrmmqyeiOqlaFP-1" value="Товар" style="swimlane;childLayout=stackLayout;horizontal=1;startSize=30;horizontalStack=0;rounded=1;fontSize=20;fontStyle=1;strokeWidth=2;resizeParent=0;resizeLast=1;shadow=0;dashed=0;align=center;labelBackgroundColor=#FFFFFF;labelBorderColor=none;" parent="1" vertex="1">
          <mxGeometry x="290" y="1624" width="246" height="176" as="geometry" />
        </mxCell>
        <mxCell id="JpLV2EWrmmqyeiOqlaFP-2" value="* Артикул&#xa;  Наименование&#xa;  Описание&#xa;  Цена стандартная&#xa;  Цена фактическая&#xa;* Код акции  " style="align=left;strokeColor=none;fillColor=none;spacingLeft=4;fontSize=18;verticalAlign=top;resizable=0;rotatable=0;part=1;labelBackgroundColor=#FFFFFF;labelBorderColor=none;" parent="JpLV2EWrmmqyeiOqlaFP-1" vertex="1">
          <mxGeometry y="30" width="246" height="146" as="geometry" />
        </mxCell>
        <mxCell id="JpLV2EWrmmqyeiOqlaFP-3" value="Товар в заказе" style="swimlane;childLayout=stackLayout;horizontal=1;startSize=30;horizontalStack=0;rounded=1;fontSize=20;fontStyle=1;strokeWidth=2;resizeParent=0;resizeLast=1;shadow=0;dashed=0;align=center;labelBackgroundColor=#FFFFFF;labelBorderColor=none;" parent="1" vertex="1">
          <mxGeometry x="-84" y="1510" width="246" height="110" as="geometry" />
        </mxCell>
        <mxCell id="JpLV2EWrmmqyeiOqlaFP-4" value="* Номер заказа&#xa;* Артикул&#xa;  Количество&#xa;&#xa;  " style="align=left;strokeColor=none;fillColor=none;spacingLeft=4;fontSize=18;verticalAlign=top;resizable=0;rotatable=0;part=1;labelBackgroundColor=#FFFFFF;labelBorderColor=none;" parent="JpLV2EWrmmqyeiOqlaFP-3" vertex="1">
          <mxGeometry y="30" width="246" height="80" as="geometry" />
        </mxCell>
        <mxCell id="JpLV2EWrmmqyeiOqlaFP-5" value="Включает" style="edgeStyle=entityRelationEdgeStyle;fontSize=12;html=1;endArrow=ERmandOne;startArrow=ERoneToMany;rounded=0;entryX=1;entryY=0.5;entryDx=0;entryDy=0;exitX=0;exitY=0.25;exitDx=0;exitDy=0;endFill=0;startFill=0;" parent="1" source="JpLV2EWrmmqyeiOqlaFP-4" target="JpLV2EWrmmqyeiOqlaFP-7" edge="1">
          <mxGeometry width="100" height="100" relative="1" as="geometry">
            <mxPoint x="32" y="1626.5" as="sourcePoint" />
            <mxPoint x="-48.000000000000455" y="1461.5" as="targetPoint" />
          </mxGeometry>
        </mxCell>
        <mxCell id="JpLV2EWrmmqyeiOqlaFP-6" value="Заказ" style="swimlane;childLayout=stackLayout;horizontal=1;startSize=30;horizontalStack=0;rounded=1;fontSize=20;fontStyle=1;strokeWidth=2;resizeParent=0;resizeLast=1;shadow=0;dashed=0;align=center;labelBackgroundColor=#FFFFFF;labelBorderColor=none;" parent="1" vertex="1">
          <mxGeometry x="-500" y="1450" width="270" height="270" as="geometry" />
        </mxCell>
        <mxCell id="JpLV2EWrmmqyeiOqlaFP-7" value="* Номер&#xa;  Дата создания&#xa;  Статус&#xa;  Сумма&#xa;  Дата доставки&#xa;  Город&#xa;  Индекс&#xa;  Улица&#xa;  Дом&#xa;  Квартира&#xa;   &#xa; " style="align=left;strokeColor=none;fillColor=none;spacingLeft=4;fontSize=18;verticalAlign=top;resizable=0;rotatable=0;part=1;labelBackgroundColor=#FFFFFF;labelBorderColor=none;" parent="JpLV2EWrmmqyeiOqlaFP-6" vertex="1">
          <mxGeometry y="30" width="270" height="240" as="geometry" />
        </mxCell>
        <mxCell id="JpLV2EWrmmqyeiOqlaFP-8" value="Состоит" style="edgeStyle=entityRelationEdgeStyle;fontSize=12;html=1;endArrow=ERzeroToMany;startArrow=ERmandOne;rounded=0;exitX=0;exitY=0.25;exitDx=0;exitDy=0;entryX=1;entryY=0.25;entryDx=0;entryDy=0;" parent="1" source="JpLV2EWrmmqyeiOqlaFP-2" target="JpLV2EWrmmqyeiOqlaFP-4" edge="1">
          <mxGeometry x="0.0026" width="100" height="100" relative="1" as="geometry">
            <mxPoint x="-274" y="2019" as="sourcePoint" />
            <mxPoint x="102" y="1759" as="targetPoint" />
            <mxPoint as="offset" />
          </mxGeometry>
        </mxCell>
        <mxCell id="JpLV2EWrmmqyeiOqlaFP-9" value="Акция" style="swimlane;childLayout=stackLayout;horizontal=1;startSize=30;horizontalStack=0;rounded=1;fontSize=20;fontStyle=1;strokeWidth=2;resizeParent=0;resizeLast=1;shadow=0;dashed=0;align=center;labelBackgroundColor=#FFFFFF;labelBorderColor=none;" parent="1" vertex="1">
          <mxGeometry x="-84" y="1950" width="246" height="163" as="geometry" />
        </mxCell>
        <mxCell id="JpLV2EWrmmqyeiOqlaFP-10" value="* Код акции&#xa;  Название акции&#xa;  Размер скидки&#xa;  Дата начала&#xa;  Дата окончания&#xa;  " style="align=left;strokeColor=none;fillColor=none;spacingLeft=4;fontSize=18;verticalAlign=top;resizable=0;rotatable=0;part=1;labelBackgroundColor=#FFFFFF;labelBorderColor=none;" parent="JpLV2EWrmmqyeiOqlaFP-9" vertex="1">
          <mxGeometry y="30" width="246" height="133" as="geometry" />
        </mxCell>
        <mxCell id="JpLV2EWrmmqyeiOqlaFP-11" value="Учувствует" style="fontSize=12;html=1;endArrow=ERzeroToMany;startArrow=ERzeroToOne;rounded=0;entryX=0;entryY=0.75;entryDx=0;entryDy=0;exitX=1;exitY=0.25;exitDx=0;exitDy=0;edgeStyle=elbowEdgeStyle;startFill=0;" parent="1" source="JpLV2EWrmmqyeiOqlaFP-10" target="JpLV2EWrmmqyeiOqlaFP-2" edge="1">
          <mxGeometry width="100" height="100" relative="1" as="geometry">
            <mxPoint x="-254" y="1285" as="sourcePoint" />
            <mxPoint x="206" y="1738" as="targetPoint" />
            <Array as="points">
              <mxPoint x="196" y="1900" />
            </Array>
          </mxGeometry>
        </mxCell>
        <mxCell id="JpLV2EWrmmqyeiOqlaFP-12" value="Оплата" style="swimlane;childLayout=stackLayout;horizontal=1;startSize=30;horizontalStack=0;rounded=1;fontSize=20;fontStyle=1;strokeWidth=2;resizeParent=0;resizeLast=1;shadow=0;dashed=0;align=center;labelBackgroundColor=#FFFFFF;labelBorderColor=none;" parent="1" vertex="1">
          <mxGeometry x="-140" y="1763.5" width="246" height="110" as="geometry" />
        </mxCell>
        <mxCell id="JpLV2EWrmmqyeiOqlaFP-13" value="* Номер чека&#xa;  Способ оплаты&#xa;  Статус оплаты&#xa;    " style="align=left;strokeColor=none;fillColor=none;spacingLeft=4;fontSize=18;verticalAlign=top;resizable=0;rotatable=0;part=1;labelBackgroundColor=#FFFFFF;labelBorderColor=none;" parent="JpLV2EWrmmqyeiOqlaFP-12" vertex="1">
          <mxGeometry y="30" width="246" height="80" as="geometry" />
        </mxCell>
        <mxCell id="JpLV2EWrmmqyeiOqlaFP-14" value="Содержит" style="edgeStyle=entityRelationEdgeStyle;fontSize=12;html=1;endArrow=ERmandOne;startArrow=ERzeroToOne;rounded=0;exitX=0;exitY=0.25;exitDx=0;exitDy=0;entryX=1;entryY=0.75;entryDx=0;entryDy=0;endFill=0;startFill=0;" parent="1" source="JpLV2EWrmmqyeiOqlaFP-13" target="JpLV2EWrmmqyeiOqlaFP-7" edge="1">
          <mxGeometry x="0.0012" width="100" height="100" relative="1" as="geometry">
            <mxPoint x="-398.00000000000045" y="2110" as="sourcePoint" />
            <mxPoint x="-210" y="2050" as="targetPoint" />
            <Array as="points">
              <mxPoint x="-174" y="1980" />
              <mxPoint x="-134" y="1995" />
            </Array>
            <mxPoint as="offset" />
          </mxGeometry>
        </mxCell>
        <mxCell id="pB-CQyK-u5Jn9SYimkGC-1" value="Пользователь" style="swimlane;childLayout=stackLayout;horizontal=1;startSize=30;horizontalStack=0;rounded=1;fontSize=20;fontStyle=1;strokeWidth=2;resizeParent=0;resizeLast=1;shadow=0;dashed=0;align=center;labelBackgroundColor=#FFFFFF;labelBorderColor=none;" parent="1" vertex="1">
          <mxGeometry x="-140" y="1260" width="246" height="200" as="geometry" />
        </mxCell>
        <mxCell id="pB-CQyK-u5Jn9SYimkGC-2" value="* Логин&#xa;  Пароль авторизации&#xa;  Фамиля пользователя&#xa;  Имя пользователя&#xa;  Отчество пользователя&#xa;  Email&#xa;  Телефон  " style="align=left;strokeColor=none;fillColor=none;spacingLeft=4;fontSize=18;verticalAlign=top;resizable=0;rotatable=0;part=1;labelBackgroundColor=#FFFFFF;labelBorderColor=none;" parent="pB-CQyK-u5Jn9SYimkGC-1" vertex="1">
          <mxGeometry y="30" width="246" height="170" as="geometry" />
        </mxCell>
        <mxCell id="pB-CQyK-u5Jn9SYimkGC-3" value="Принадлежит" style="edgeStyle=entityRelationEdgeStyle;fontSize=12;html=1;endArrow=ERzeroToMany;startArrow=ERmandOne;rounded=0;exitX=0;exitY=0.25;exitDx=0;exitDy=0;entryX=1;entryY=0.25;entryDx=0;entryDy=0;" parent="1" source="pB-CQyK-u5Jn9SYimkGC-2" target="JpLV2EWrmmqyeiOqlaFP-7" edge="1">
          <mxGeometry width="100" height="100" relative="1" as="geometry">
            <mxPoint x="446" y="1536" as="sourcePoint" />
            <mxPoint x="306" y="1280" as="targetPoint" />
            <Array as="points">
              <mxPoint x="356" y="1706" />
              <mxPoint x="396" y="1721" />
            </Array>
          </mxGeometry>
        </mxCell>
        <mxCell id="WxsP1yQAPQfCppwhUv---1" value="&lt;h1 style=&quot;font-size: 20px;&quot;&gt;&lt;font style=&quot;font-size: 20px;&quot;&gt;Заметка для ревьюера&lt;/font&gt;&lt;/h1&gt;&lt;p style=&quot;font-size: 20px;&quot;&gt;С корректировал связь между сущностями &quot;Товар&quot; - &quot;Акция&quot;&lt;/p&gt;" style="text;html=1;strokeColor=#d6b656;fillColor=#fff2cc;spacing=5;spacingTop=-20;whiteSpace=wrap;overflow=hidden;rounded=0;fontSize=20;" parent="1" vertex="1">
          <mxGeometry x="70" y="830" width="370" height="170" as="geometry" />
        </mxCell>
        <mxCell id="WxsP1yQAPQfCppwhUv---2" value="&lt;h1 style=&quot;font-size: 20px;&quot;&gt;&lt;font style=&quot;font-size: 20px;&quot;&gt;Заметка для ревьюера&lt;/font&gt;&lt;/h1&gt;&lt;p style=&quot;font-size: 20px;&quot;&gt;С корректировал промежуточную сущность &quot;Товар в заказе&quot; и &quot;Заказ&quot; согласно рекомендациям,&lt;/p&gt;&lt;p style=&quot;font-size: 20px;&quot;&gt;Поправил связь &quot;Заказ&quot; - &quot;Товар в заказе&quot;&amp;nbsp;&lt;/p&gt;" style="text;html=1;strokeColor=#d6b656;fillColor=#fff2cc;spacing=5;spacingTop=-20;whiteSpace=wrap;overflow=hidden;rounded=0;fontSize=20;" parent="1" vertex="1">
          <mxGeometry x="-289" y="-260" width="439" height="170" as="geometry" />
        </mxCell>
      </root>
    </mxGraphModel>
  </diagram>
</mxfile>
